<svg width="103" height="15" viewBox="0 0 103 15" fill="none" xmlns="http://www.w3.org/2000/svg">
<g id="Isolation_Mode" clip-path="url(#clip0_1129_426)">
<path id="Vector" d="M0.480049 8.69993L9.50005 4.77993C9.91005 4.59993 10.3801 4.77993 10.55 5.18993C10.73 5.59993 10.55 6.06993 10.14 6.23993L4.65005 8.62993H10.82C11.15 6.80993 12.74 5.42993 14.65 5.42993C16.5601 5.42993 18.15 6.80993 18.48 8.62993H92.99C93.06 8.62993 99.62 8.58993 100.38 4.95993C100.78 3.02993 99.31 2.18993 98.66 1.91993C97.27 1.33993 95.26 1.49993 94.43 2.75993C93.92 3.53993 93.73 4.20993 93.87 4.75993C94.03 5.38993 94.62 5.70993 94.62 5.70993C95.02 5.90993 95.18 6.38993 94.98 6.77993C94.78 7.17993 94.3 7.33993 93.91 7.13993C93.79 7.07993 92.69 6.49993 92.34 5.18993C92.07 4.17993 92.32 3.06993 93.1 1.87993C94.43 -0.160074 97.27 -0.380074 99.27 0.449926C101.36 1.31993 102.39 3.16993 101.94 5.28993C101.44 7.65993 99.4 8.87993 97.39 9.52993C100.93 10.7699 102.59 12.7699 102.68 12.8799C102.96 13.2199 102.9 13.7199 102.56 13.9999C102.41 14.1199 102.23 14.1799 102.06 14.1799C101.83 14.1799 101.6 14.0799 101.44 13.8899C101.41 13.8599 98.76 10.6999 92.95 10.2299H18.44C18.03 11.9499 16.49 13.2299 14.65 13.2299C12.8101 13.2299 11.2701 11.9499 10.86 10.2299H4.78004L9.37005 12.1599C9.78005 12.3299 9.97005 12.7999 9.80005 13.2099C9.67005 13.5199 9.37004 13.6999 9.06004 13.6999C8.96004 13.6999 8.85004 13.6799 8.75005 13.6399L0.490044 10.1699C0.190041 10.0499 4.57764e-05 9.75992 4.57764e-05 9.43993C4.57764e-05 9.11993 0.190048 8.82993 0.480049 8.69993ZM14.64 11.6399C15.91 11.6399 16.94 10.6099 16.94 9.33993C16.94 8.06993 15.91 7.03993 14.64 7.03993C13.37 7.03993 12.34 8.06993 12.34 9.33993C12.34 10.6099 13.37 11.6399 14.64 11.6399Z" fill="#02C503"/>
</g>
<defs>
<clipPath id="clip0_1129_426">
<rect width="102.86" height="14.18" fill="white" transform="matrix(-1 0 0 1 102.86 0)"/>
</clipPath>
</defs>
</svg>
