<?xml version="1.0" standalone="no"?>
<!DOCTYPE svg PUBLIC "-//W3C//DTD SVG 1.1//EN" "http://www.w3.org/Graphics/SVG/1.1/DTD/svg11.dtd" >
<svg xmlns="http://www.w3.org/2000/svg" xmlns:xlink="http://www.w3.org/1999/xlink" version="1.1">
<metadata>
Created by FontForge 20200314 at Mon Nov  7 21:13:44 2011
 By Unknown
Copyright (c) 2009 by Ascender Corporation. All rights reserved. Designed by Jim Ford.
</metadata>
<defs>
<font id="FordsFollyW02-Regular" horiz-adv-x="756" >
  <font-face 
    font-family="FordsFollyW02-Regular"
    font-weight="400"
    font-stretch="normal"
    units-per-em="2048"
    panose-1="3 8 5 2 0 5 0 0 0 0"
    ascent="1452"
    descent="-596"
    x-height="854"
    cap-height="1245"
    bbox="-432 -782 1894 2003"
    underline-thickness="150"
    underline-position="-293"
    unicode-range="U+000D-FB02"
  />
<missing-glyph horiz-adv-x="0" 
 />
    <glyph glyph-name=".notdef" horiz-adv-x="0" 
 />
    <glyph glyph-name=".null" horiz-adv-x="0" 
 />
    <glyph glyph-name="uni000D" unicode="&#xd;" horiz-adv-x="0" 
 />
    <glyph glyph-name="space" unicode=" " horiz-adv-x="600" 
 />
    <glyph glyph-name="exclam" unicode="!" horiz-adv-x="506" 
d="M383 1370q82 0 82 -55q-102 -346 -135 -478.5t-33 -193.5q0 -69 27 -113q-13 -46 -22.5 -59t-24.5 -19t-37 -6q-70 0 -82 113q23 122 46 220.5t40 178.5l39 211q6 91 20 139.5t31 53.5q19 8 49 8zM225 248q22 0 31 -12q18 -17 18 -50q0 -29 -4 -54t-4 -54q0 -42 -82 -84
q-56 19 -80 54.5t-24 92.5v29q9 55 55 55q15 0 46 12q31 11 44 11z" />
    <glyph glyph-name="quotedbl" unicode="&#x22;" horiz-adv-x="653" 
d="M662 1481q32 0 59 -72q-7 -45 -42 -134q-41 -105 -54 -155q-31 -112 -60.5 -195t-52 -123t-45.5 -40q-21 0 -33.5 35t-12.5 85l3 40l22 73q80 246 101 420q6 54 115 66zM299 1440q59 0 59 -86q-17 -82 -72 -256l-26 -92q4 -99 14 -166q-32 -38 -69 -58q-42 2 -63 20.5
t-21 63.5q0 95 59 318l12 66q23 167 54 184q27 6 53 6z" />
    <glyph glyph-name="numbersign" unicode="#" horiz-adv-x="1372" 
d="M1096 1188q26 -36 26 -84q0 -35 -38 -124l-17 -44q363 0 363 -168q-54 -29 -82 -29q-52 31 -116.5 47t-86.5 16l-33 -1q-36 0 -74 -4q-84 -20 -84 -226v-26q68 24 168 24l53 -11q45 -9 67 -32t22 -65q0 -55 -58 -55l-153 26q-93 0 -130.5 -38.5t-37.5 -129.5
q0 -31 -22 -163t-48 -367q29 -53 29 -84q0 -22 -26.5 -39t-57.5 -17t-57.5 25t-26.5 59q0 89 28 251q41 238 70 448l-125 4q-44 0 -79.5 -3.5t-48.5 -24t-13 -60.5q5 -26 13.5 -53.5t8.5 -53.5q0 -14 -6 -32q-28 -58 -71 -58l-43 -2q-32 0 -41 17q-9 13 -9 43q0 38 25 150
l10 52q-96 -28 -184.5 -45.5t-122.5 -17.5q-17 2 -36 46.5t-19 74.5q9 55 55 55q75 0 162 6.5t174 11.5q14 51 17.5 99t11.5 98h-29q-129 0 -338 -72l-16 17q-21 19 -29 30.5t-8 24.5q0 38 13 59.5t45 33.5t126 26q195 30 291 49q33 307 113 307q84 -28 84 -168
q-9 -49 -42 -72q-18 -12 -18 -16.5v-9.5l2 -12q5 -9 29 -9q19 0 86 9.5t105.5 24t57 37t29.5 77.5q-16 25 -16 78q0 27 2 35q48 29 82.5 42t73.5 13zM563 487q174 29 252 29q0 47 55 281h-14q-98 0 -167 -29.5t-97.5 -85.5t-28.5 -195z" />
    <glyph glyph-name="dollar" unicode="$" horiz-adv-x="1139" 
d="M778 1358h131l27 -107q-53 -77 -53 -184q133 -9 133 -82v-27q0 -53 -53 -53h-80l-54 29l-51 -213q291 -40 291 -131q0 -171 -317 -266q4 -22 4 -68l-4 -119v0q0 -266 104 -397q-27 -59 -27 -80q-169 0 -184 397v267h-53q-59 0 -80 -238q27 -147 27 -215l-54 -25
q-41 0 -106 158q33 237 53 293q-86 0 -184 27q-81 -27 -166 -27l-27 53l33 107q220 -29 344 -29h27v213q-211 0 -211 133q0 64 264 240l-27 157q38 134 80 134h78q53 -11 53 -54v-80l-51 -133h80q53 224 53 320zM600 748h98v157h-26q-54 -6 -54 -51zM565 590v-162h80l27 186
l-54 27q-53 -6 -53 -51zM778 590v-109q158 29 158 80l-133 29h-25zM477 743l17 113q0 8 -5 8q-13 0 -52.5 -31t-39.5 -49q0 -31 80 -41z" />
    <glyph glyph-name="percent" unicode="%" horiz-adv-x="1079" 
d="M885 1174q50 -27 84 -27v-57q0 -66 -334 -560q-168 -275 -281 -698l66 -29q0 -76 -19 -109.5t-75 -55.5h-27q-55 0 -55 55v139q0 262 530 1174v141q18 0 111 27zM475 1090q141 -72 141 -252q-51 -145 -335 -308h-140q-46 0 -84 142q175 418 392 418h26zM209 653h31
q211 87 254 191v30q0 64 -66 64h-31q-188 -111 -188 -285zM811 504q197 -71 197 -197q-96 -242 -252 -307h-113q-55 0 -55 55v113q65 336 223 336zM702 121h41q24 0 52.5 38t56.5 99l-10 86l-92 -18l-29 -95z" />
    <glyph glyph-name="ampersand" unicode="&#x26;" horiz-adv-x="891" 
d="M80 416q0 16 26.5 49.5t65.5 66.5q12 10 45 18q34 8 47 21q-9 2 -54 15.5t-58 19.5q-11 0 -32.5 33.5t-21.5 40.5q0 11 22.5 47t31.5 43l21 11q87 41 91 46q2 2 9.5 40.5t7.5 50.5v51l38 149v6l-2 54q0 27 15.5 44.5t77.5 43.5h7q32 0 58.5 -32t26.5 -60l-46 -90
q-13 -24 -29.5 -84.5t-16.5 -67.5q0 -51 16 -51q3 0 33.5 20.5t51.5 37.5q64 54 81 54q10 0 38.5 -11t55.5 -28q19 -18 28 -37.5t9 -25.5l-1 -7l-1 -3q-31 -44 -61.5 -65t-86.5 -28h-38q-11 0 -76.5 -29.5t-85.5 -41.5l18 -21l44 -3q74 0 152 19l23 5q12 -6 35 -32.5
t23 -33.5q-4 -22 -22.5 -48t-35.5 -32q-6 -3 -30.5 -11.5t-76 -25.5t-57.5 -18l-73 -39l-50 -15q-26 -7 -34 -14.5t-8 -31.5q0 -18 2 -25t16 -22q34 -24 57.5 -31.5t83.5 -7.5l78 4q14 0 65 18q51 17 66 17q58 29 93 56t71 73l7 1l9 1q41 0 41 -49q0 -62 -79 -116.5
t-218 -94.5l-20 -13q-72 -46 -72 -65l2 -15q-29 -135 -37 -237q0 -20 -51 -20l-41 1q-9 0 -28 69.5t-27 133.5q0 38 -19 85t-36 61q-127 79 -127 94q-4 4 -20.5 38.5t-16.5 43.5z" />
    <glyph glyph-name="quotesingle" unicode="'" horiz-adv-x="303" 
d="M313 1288l-2 -41q-41 -151 -78 -334l-38 -186q-26 -18 -52 -18q-32 0 -32 18q0 158 14 312l8 96q-25 3 -35 18t-10 64q0 40 8 56t37 40.5t59 38.5t56 14q24 0 37 -6q28 -17 28 -72z" />
    <glyph glyph-name="parenleft" unicode="(" horiz-adv-x="604" 
d="M594 1509q113 -42 113 -84v-110q-282 -206 -365 -617q-27 -200 -55 -252q0 -654 501 -1089l27 -57l-27 -82h-26q-269 0 -365 336q0 23 -194 333q-56 468 -56 617q280 1005 447 1005z" />
    <glyph glyph-name="parenright" unicode=")" horiz-adv-x="621" 
d="M469 702q-5 -24 -12.5 -50.5t-7.5 -57.5q0 -35 12 -81l12 -60q-4 -97 -15 -187t-33 -192.5t-55 -213.5t-105 -303t-81 -212l-55 -25q-82 5 -82 29l2 57q6 145 154 356l-8 58q13 55 20.5 82.5t24.5 27.5l-7 56v28q23 17 37.5 99.5t40.5 230.5q4 62 4 145q0 613 -245 736
l-90 139l-13 115q10 51 105 51q35 0 123 -23q24 -102 151 -352q87 -169 123 -453z" />
    <glyph glyph-name="asterisk" unicode="*" horiz-adv-x="952" 
d="M528 1505q21 0 37 -16q8 -18 8 -37q0 -29 -10.5 -63t-15.5 -66v-76q29 25 56 58.5t54 64t55 52.5t60 26q51 -6 51 -49q0 -121 -100 -127q-51 -34 -51 -51q0 -7 12 -7q15 0 39 9l40 8q100 20 136 20q74 0 74 -77q0 -76 -326 -76q-47 -3 -47 -11q0 -11 47 -14
q150 -18 150 -76q0 -24 -4 -42t-21 -35q-20 0 -93 26q-74 25 -108 25v-51q0 -82 25 -224q-38 -102 -76 -102q-35 0 -50 25t-15 102l2 110v31q-20 0 -38 -45t-24 -96q-36 -23 -71 -23q-33 0 -56 23q0 22 11 39l64 115q77 135 77 147h-25q-176 0 -176 -76q-151 0 -151 127
q33 54 51 68l229 -4q-8 13 -52 43q-43 29 -52 43q-6 18 -6 37l6 63q9 51 51 51l30 -25q77 -75 95 -75q10 0 10 18q0 104 8 155.5t33 51.5z" />
    <glyph glyph-name="plus" unicode="+" horiz-adv-x="905" 
d="M426 811h49q49 -6 49 -49l-6 -127q0 -32 6 -66q228 49 289 49l2 -2q6 -11 14.5 -22.5t8.5 -24.5q0 -12 -4.5 -24.5t-4.5 -26.5q-159 -29 -232 -50t-73 -44q25 -208 25 -264l-25 -17q-12 -10 -24 -10l-51 -6q-14 0 -23 6q-25 21 -25 80v186q-4 7 -16 7q-18 0 -129 -25
t-145 -25l-27 20q-25 16 -25 48l4 49q11 47 50 47q74 0 120 -22q47 10 168 49q-1 22 -12 59q-12 38 -12 60v96q6 49 49 49z" />
    <glyph glyph-name="comma" unicode="," horiz-adv-x="479" 
d="M186 303q87 0 130.5 -49.5t43.5 -140.5l-4 -30q-4 -17 -4 -34q0 -127 -68 -238.5t-184 -179.5q-26 -12 -51 -12q-23 0 -35 17.5t-12 37.5q0 29 12 41l31 6q51 4 97.5 99.5t68.5 245.5q-8 12 -31 15t-55 5q-34 4 -55 34t-21 75q8 23 36 52.5t65 49.5z" />
    <glyph glyph-name="hyphen" unicode="-" horiz-adv-x="623" 
d="M446 539q41 0 77 -24t36 -46q0 -27 -12 -43t-42 -26l-30 -11q-59 6 -194 6q-17 0 -37 -7t-37 -7q-48 0 -123 14q-8 11 -14.5 29.5t-6.5 32.5q0 26 21 32l104 15q214 35 258 35z" />
    <glyph glyph-name="period" unicode="." horiz-adv-x="430" 
d="M217 303q21 0 31 -4q25 -5 35.5 -17t15.5 -32q4 -34 4 -68l-4 -57q-6 -29 -46 -46.5t-128 -31.5q-78 104 -78 154l125 98z" />
    <glyph glyph-name="slash" unicode="/" horiz-adv-x="803" 
d="M784 1509q168 -15 168 -84q-621 -1055 -1005 -1787h-58q-55 0 -55 55v26q83 59 504 895q291 399 446 895z" />
    <glyph glyph-name="zero" unicode="0" horiz-adv-x="915" 
d="M541 979h112q197 -323 197 -391v-113q-132 -475 -477 -475q-307 55 -307 307v84q0 410 475 588zM193 420v-29q0 -278 237 -278q293 144 293 417v58q-96 194 -266 194q-264 -132 -264 -362z" />
    <glyph glyph-name="one" unicode="1" horiz-adv-x="375" 
d="M190 940h27q84 0 84 -113q-55 -246 -55 -362v-55q0 -58 55 -281l-111 -84q-84 28 -84 168v55q0 177 27 420q-27 114 -27 197z" />
    <glyph glyph-name="two" unicode="2" horiz-adv-x="903" 
d="M594 997q132 0 166 -278q0 -42 -124.5 -187t-311.5 -325l186 37q143 0 334 55q28 -31 28 -74q0 -54 -22.5 -88.5t-61.5 -34.5l-110 7q-217 -11 -343.5 -33t-250.5 -64q-40 0 -84 84v29q12 23 42 44t74 48.5t101 67t125 98.5l221 250l31 115l-25 65l-88 16
q-123 0 -278 -110q-58 0 -58 55q0 131 449 223z" />
    <glyph glyph-name="three" unicode="3" horiz-adv-x="1262" 
d="M838 936l30 -45q31 -44 42.5 -69t11.5 -46q-126 -252 -197 -252l-47 -35q145 -2 265 -28.5t188.5 -69.5t68.5 -90q0 -152 -177 -272.5t-544 -223.5l-229 -14q-94 0 -169 20.5t-111 55t-36 98.5q0 32 9 58q9 55 57 55q125 -168 279 -168q434 0 753 307v29q0 110 -336 110
h-110q-118 0 -207 -73q-68 14 -98.5 44.5t-30.5 86.5q0 5 61 27q173 62 259 112.5t120.5 104t34.5 118.5v21q-33 20 -147 20q-77 -69 -131.5 -94t-143.5 -25q-15 0 -28.5 9.5t-32.5 30.5l-21 16q0 87 23.5 124t89.5 37q259 21 370.5 21h133.5z" />
    <glyph glyph-name="four" unicode="4" horiz-adv-x="950" 
d="M559 1008q42 0 82.5 -22t65.5 -60q-22 -84 -31.5 -146.5t-9.5 -132.5q0 -130 28 -244l125 17l76 -4q45 -12 45 -49v-5q-29 -47 -54.5 -64t-60.5 -17l-6 3q-28 15 -57 15t-45.5 -9t-30.5 -9q35 -408 35 -547q0 -42 -2 -53q-86 -41 -121 -41h-6q-33 74 -33 178l2 45l-3 105
q-1 21 -3 207q0 39 4 87l-47 4h-10q-48 0 -151.5 -29t-276.5 -85q-21 0 -42.5 25t-21.5 50l441 592q26 39 32 123q6 66 76 66zM256 342l61 14q74 30 228 60q-25 154 -25 229l2 21q-29 0 -93.5 -75.5t-158.5 -230.5z" />
    <glyph glyph-name="five" unicode="5" horiz-adv-x="963" 
d="M844 944q26 -45 26 -102q0 -35 -77 -76q-146 25 -201 25q-99 0 -152 -51t-53 -150q381 -164 381 -281v-76q0 -271 -457 -458h-75q-202 0 -306 180q0 49 76 49q152 -102 230 -102h24q356 106 356 307v74q-126 153 -254 153l-153 -26q-25 54 -25 77q74 188 111 329
q11 45 23.5 65.5t38.5 37.5t71 17q24 0 61 -7q45 -8 76 -11q93 26 279 26z" />
    <glyph glyph-name="six" unicode="6" horiz-adv-x="836" 
d="M500 1239h53q27 -4 49.5 -29t22.5 -55q0 -26 -5.5 -41.5t-13.5 -38.5q-378 -223 -387 -669l4 -103q238 232 357 232q169 0 190 -242q-166 -303 -414 -303q-33 0 -69 6q-221 79 -221 350v27q0 384 434 866zM299 178q46 -49 92 -49q244 44 244 215l-55 29q-142 0 -281 -195
z" />
    <glyph glyph-name="seven" unicode="7" horiz-adv-x="780" 
d="M666 975h55q55 -10 55 -57v-27q-391 -979 -391 -1147q0 -195 -55 -195h-58q-55 0 -55 56v28q0 219 307 977l58 197h-29q-300 -84 -447 -84l-57 84v27q0 57 223 57l61 3l52 -3q218 84 281 84z" />
    <glyph glyph-name="eight" unicode="8" horiz-adv-x="705" 
d="M469 1264h86q6 0 36.5 -39.5t57.5 -86t41.5 -85.5t14.5 -68q-121 -183 -186 -269.5t-105 -121.5q196 -259 196 -365v-26q0 -146 -151 -226h-17q-161 0 -248.5 84t-87.5 230q26 125 109 208l33 38q-197 235 -197 326l6 102q100 154 200.5 226.5t211.5 72.5zM356 1098
q-54 -27 -90 -67t-56 -84.5t-20 -74.5q38 -97 92 -147l37 -37l4 -2q13 0 48 44t164 239l-13 47h-10q-31 0 -54 13t-41 28t-32.5 28t-28.5 13zM330 453q-82 -143 -82 -246q10 -30 60 -69l22 -19l78 -12q30 0 48.5 35.5t18.5 80.5q0 24 -6 33q-92 197 -139 197z" />
    <glyph glyph-name="nine" unicode="9" horiz-adv-x="805" 
d="M485 1006q92 -28 113 -111l41 20q127 -27 127 -188q-104 0 -254 -1063v-223q0 -38 -84 -84h-27q-57 0 -57 55q22 238 168 1063q-176 -84 -250 -84q-196 37 -196 197q0 255 419 418zM207 559l55 -29h29q166 0 254 146q-87 48 -87 155l1 21q-252 -114 -252 -293z" />
    <glyph glyph-name="colon" unicode=":" horiz-adv-x="430" 
d="M219 756q65 0 90 -17.5t25 -64.5q0 -22 -2 -33q-18 -22 -22.5 -42.5t-8 -36t-13.5 -25t-40 -9.5q-146 0 -168 84q69 130 113 142q18 2 26 2zM227 336h20q36 0 68.5 -37t32.5 -78q0 -42 -110 -110l-27 -5q-71 0 -94 23.5t-23 75.5q0 78 14 103.5t46 25.5z" />
    <glyph glyph-name="semicolon" unicode=";" horiz-adv-x="451" 
d="M197 758q60 -9 120 -31q5 -30 5 -61q0 -15 -3.5 -42t-27 -46.5t-119.5 -67.5q-48 14 -72 51.5t-24 110.5q0 37 71 84zM252 307q62 -37 86 -82.5t24 -120.5q0 -60 -55 -160t-162 -225q-61 0 -82 29q0 21 12 41t32 47t45.5 66t52.5 98l4 45l-4 39q-38 0 -59.5 8.5
t-32.5 29.5t-11 38v20l4 43q25 84 146 84z" />
    <glyph glyph-name="less" unicode="&#x3c;" horiz-adv-x="905" 
d="M666 809q39 0 84 -86q0 -12 -48 -44.5t-131 -81.5q-201 -119 -295 -206l185 -4q52 0 65 -10l58 2l79 -19q158 -37 158 -75l2 -39q0 -22 -17.5 -41t-53.5 -19q-34 0 -66 9q-15 2 -25 12q-41 36 -87 48.5t-160 12.5l-56 -4l-30 -2q-34 0 -89 10q-56 9 -83 9q-28 0 -60 -7
q-11 0 -17.5 10.5t-8.5 24t-3 28.5t-1 23q0 63 30 82q79 24 161 75t208 153l172 137z" />
    <glyph glyph-name="equal" unicode="=" horiz-adv-x="905" 
d="M766 672l43 20q43 -9 43 -43v-22q-15 -32 -188 -72q-33 -9 -170 -19l-106 -8q-195 -15 -195 -53l-17 -16q35 -22 77 -36.5t73 -14.5h86q114 0 374 22q21 -33 23 -45l2 -18q0 -31 -20 -50q-15 -8 -35 -8l-80 8q-17 0 -38 -6t-40 -6h-49q-41 0 -92 -8q-118 0 -330 -21
q-43 55 -43 86l53 89q-15 0 -36 16.5t-40 48.5v45q0 17 22 35.5t67 44.5h65q46 0 121 5t143 5q45 0 153 21l38 4l53 -4h43z" />
    <glyph glyph-name="greater" unicode="&#x3e;" horiz-adv-x="905" 
d="M141 803l56 -4q32 -39 131 -65.5t350 -57.5q19 8 59 8q72 0 72 -106q0 -37 -4 -58q-152 -106 -309 -210q-158 -104 -310 -210q-14 -21 -28.5 -24.5t-28.5 -3.5q-27 0 -43 23.5t-16 54.5l4 26q8 20 33 38.5t185 108.5l193 113l32 27q85 64 85 78q0 2 -6 6q-41 15 -98 27.5
t-198 37.5q-104 18 -161 41t-57 62l2 33q10 55 57 55z" />
    <glyph glyph-name="question" unicode="?" horiz-adv-x="688" 
d="M582 1458q190 0 225 -139q0 -86 -89 -196t-304 -289q-22 -29 -56 -101q0 -45 11 -87.5t16 -80.5q-40 -112 -82 -112q-24 0 -53.5 53t-48.5 143q11 80 79.5 186.5t184.5 206.5q102 90 174 195q10 23 10 45q0 20 -10 37q-241 0 -533 -252q-26 0 -26 29q0 224 502 362z
M242 217q18 0 82 -14q63 -9 63 -62l-2 -61q0 -31 -41.5 -61.5t-81.5 -30.5q-61 0 -61 61q0 25 -8.5 54.5t-8.5 54.5q0 30 16.5 44.5t41.5 14.5z" />
    <glyph glyph-name="at" unicode="@" horiz-adv-x="1329" 
d="M854 1350h82q225 0 393 -410q-36 -228 -101 -395.5t-147.5 -253.5t-171.5 -86l-49 -4q-24 0 -40 18.5t-29 56.5l-21 -16q-110 -84 -168 -84q-113 28 -113 168q45 238 131.5 356.5t204.5 118.5h29q22 -14 46.5 -24t45 -19t34 -18.5t13.5 -22.5q0 -26 -28 -26q0 -14 9 -25
t9 -25q0 -25 -32 -132q-33 -107 -33 -140q0 -22 12 -22l59 26q31 14 58 69t76 211l65 206q-79 222 -195 307h-168q-585 -341 -585 -895v-139q91 -252 305 -252q319 0 643 278q0 9 7.5 17t18.5 8q10 0 20.5 -7t10.5 -18q0 -195 -420 -362q-224 -56 -364 -56q-308 0 -363 531
q0 639 756 1061zM629 373l18 -33l29 4l76 55l34 62l45 119l-12 45l-41 12q-34 0 -77 -78t-72 -186z" />
    <glyph glyph-name="A" unicode="A" horiz-adv-x="889" 
d="M582 1303q24 0 38.5 -22.5t14.5 -57.5q-23 -74 -23 -109l6 -74v-75q0 -89 5.5 -157t17 -114.5t28 -69t50.5 -22.5q35 0 102 16q53 -6 53 -63q0 -25 -45 -50.5t-137 -31.5q92 -495 187 -520q18 -8 41 -8q20 0 36 8q16 47 52 47q17 0 31 -13t14 -36q0 -22 -27.5 -61
t-66.5 -65t-80 -26q-103 0 -177.5 148.5t-134.5 488.5q-153 -33 -222 -67t-102.5 -85t-35.5 -130q-17 -122 -43 -175t-68 -53q-39 0 -65.5 22.5t-26.5 51.5q0 35 39 104q44 78 57 134q-4 24 -4 53q0 45 7 71.5t24 57.5q34 66 81 208.5t91 338.5q0 18 19 47t44 64t50 74.5
t37 78.5q0 72 133 72zM287 487q0 -8 8 -8q4 0 244 80q-25 204 -38.5 317.5t-13.5 139.5q0 28 -6 28q-8 0 -20 -28q-91 -223 -132.5 -357t-41.5 -172z" />
    <glyph glyph-name="B" unicode="B" horiz-adv-x="1204" 
d="M670 1249q38 0 57 -8q23 -6 49.5 -33.5t75.5 -97.5q2 -39 2 -51q0 -70 -30 -125.5t-85 -106.5q-28 -28 -28 -39q0 -6 6 -6l12 2q45 15 100 15q230 0 308 -193q6 -24 6 -53q0 -76 -6 -113q-24 -202 -197.5 -331t-544.5 -220q-101 -18 -188 -18q-74 0 -221 18
q-35 5 -52 36.5t-24 101.5q0 34 30 58t72 24q16 0 22 -11.5t11.5 -26t13.5 -27.5t29 -17q62 -13 133 -13q72 0 148 13q279 0 447 139t192 385q-24 52 -91 84.5t-145 32.5q-77 0 -164 -18t-163.5 -48t-100.5 -51v-55q0 -149 25 -412q-39 -31 -72 -31q-32 0 -55 9.5t-29 29.5
t-6 60l2 44q8 127 8 195q0 76 -2 105q-51 69 -51 110q51 88 51 166l-4 201l-21 -10q-40 -25 -67 -25q-66 0 -66 86q0 29 6 51q42 67 148 92l83 13q183 26 304 61q32 8 72 8zM344 745q24 0 64 -14h18q25 0 79.5 30t106 84t90.5 120q9 25 9 57q0 35 -19.5 60.5t-66.5 25.5
q-233 0 -256 -86q-25 -109 -25 -223v-54z" />
    <glyph glyph-name="C" unicode="C" horiz-adv-x="1016" 
d="M637 1270q154 0 225.5 -111t71.5 -344q-25 -75 -60.5 -114t-72.5 -39q-40 0 -65.5 17t-45.5 50q17 41 39.5 79.5t36.5 76.5l2 28l-2 23l-27 123q-3 12 -18 12l-33 -6q-182 -71 -412 -465q-29 -70 -51 -178l-2 -29l2 -49q0 -102 53.5 -155.5t159.5 -53.5l45 4
q617 151 617 283q0 41 51 41t51 -41q0 -268 -796 -436q-35 -9 -66 -9q-25 0 -39 9q-229 131 -229 385q199 634 487 796q40 103 78 103z" />
    <glyph glyph-name="D" unicode="D" horiz-adv-x="1589" 
d="M555 1343q84 0 84 -139q400 0 610.5 -80t282.5 -254q8 -22 8 -69q0 -141 -51.5 -248.5t-163 -214.5t-295.5 -223q-55 -18 -118 -46.5t-125.5 -55.5t-120 -46.5t-101.5 -19.5h-10q-320 -111 -559 -111q-28 13 -45 51.5t-17 79.5q0 45 25 68.5t66 23.5q55 0 55 -84
q469 58 475 140q-20 9 -37.5 33.5t-17.5 50.5l6 530q0 138 -6 336q-109 0 -488 -107q-28 22 -41.5 49.5t-13.5 79.5q0 45 75.5 70t196.5 25l242 -6q27 167 84 167zM610 1065q0 -168 29 -449q0 -51 22 -124q21 -73 21 -127q0 -63 -5.5 -125t-8.5 -125q753 242 753 643
q-73 163 -211 237t-383 74z" />
    <glyph glyph-name="E" unicode="E" horiz-adv-x="997" 
d="M135 53q0 62 15.5 271.5t15.5 212.5l24 112q25 118 25 277l-2 82v8q0 51 31 84t84 33q7 -5 24 -5q18 0 90 25q70 21 165 41t294 51q57 0 76.5 -10.5t19.5 -44.5q0 -31 -20.5 -57.5t-48.5 -26.5l-47 2q-179 -11 -266 -39t-179 -90q-32 -32 -59 -120.5t-27 -151.5l2 -58
q65 8 171 50l59 22l46 6q119 18 138 18q41 0 55.5 -9t14.5 -40q0 -40 -27 -47q-38 -27 -70 -39t-77 -14q-90 -7 -195 -59l-23 -11q-90 -39 -111 -58t-28.5 -48.5t-7.5 -112.5q0 -75 9 -108t44 -33q11 0 50.5 9.5t66.5 19.5q50 5 174 25q111 18 145 18q8 0 31.5 -6t36.5 -13
q30 -8 40.5 -17.5t10.5 -39.5q0 -37 -17 -51l-7 -11l-81 -6q-212 -15 -259 -25.5t-166 -58.5q-39 -12 -99 -42q-54 -27 -71 -27q-32 0 -51 32t-19 80z" />
    <glyph glyph-name="F" unicode="F" horiz-adv-x="1012" 
d="M160 410v43l22 201l19 169q0 53 -9 107q-10 54 -10 82q0 24 19.5 54.5t83.5 88.5q68 -2 100 -2q92 0 159.5 8.5t172.5 32.5q158 66 303 66l47 -3q6 0 24.5 -25t18.5 -38q0 -14 -12.5 -26.5t-18.5 -12.5h-45l-20 -8l-29 -14q-31 0 -118.5 -22.5t-190.5 -61.5
q-102 -18 -166 -61l-25 -15q-10 -33 -59 -62q-29 -18 -67.5 -80t-55.5 -153l10 -117l88 -6q33 0 199 44l76 17q13 13 42 21t80 14l44 8q43 0 53 -9.5t10 -33.5t-24 -61q-144 -37 -305 -94t-168 -70q-13 -23 -62 -54q-45 -29 -45 -40q0 -18 10 -28t22 -20.5t22 -25t10 -39.5
v-10q0 -73 -13 -127t-35 -83.5t-47 -29.5q-34 0 -51.5 5t-17.5 20q-17 95 -23 206.5t-18 244.5z" />
    <glyph glyph-name="G" unicode="G" horiz-adv-x="1294" 
d="M938 1319q46 0 113 -113q8 -19 8 -53q0 -29 -4 -56.5t-4 -56.5q0 -40 -84 -84q-58 0 -58 56q0 43 29 55q-29 60 -29 84q-156 -32 -339.5 -222t-315.5 -450q-16 -42 -22 -146l-5 -44q0 -50 28.5 -100t75 -71.5t124.5 -21.5q218 24 349 74.5t192 132.5t61 182q0 32 -6 47
q-3 5 -15 5h-14q-87 -5 -151.5 -26t-118.5 -44q-91 -41 -150 -41q-20 0 -33 25t-22 104q0 69 112 84q26 0 84 -29q173 35 249 62t118 63l13 2q37 0 42 -2q80 -25 80 -141q-29 -50 -45 -98t-39 -99q2 -41 2 -53q0 -67 -14 -100q-98 -196 -98 -518q0 -75 84 -195
q0 -57 -58 -57q-168 144 -168 280l8 60q36 194 48 274q-86 -18 -156.5 -38t-138.5 -36.5t-139.5 -27.5t-159.5 -11l-21 2q-250 44 -250 224q-12 6 -20 16t-8 39q0 159 95 346.5t279 379.5t381 308q47 29 111 29z" />
    <glyph glyph-name="H" unicode="H" horiz-adv-x="1016" 
d="M811 1366q39 0 75 -32t46 -74q-57 -76 -84 -644q168 0 168 -55q-43 -112 -84 -112q-48 28 -92 28l-11 -55l-10 -197q0 -332 45 -500.5t123 -168.5h29l82 55l28 -10q0 -83 -37.5 -135t-101.5 -52q-307 0 -307 756v84q0 31 2 58.5t16 52.5q-14 29 -14 88q-75 -12 -222 -47
q-128 -31 -202 -39v-142q55 -67 55 -110q-45 -142 -168 -142q-20 0 -37.5 28t-17.5 56l139 1008q40 14 66 14q45 0 73.5 -32t28.5 -95q-110 -253 -110 -391q5 -13 25.5 -21t33.5 -8h25q134 0 334 58l28 391l-20 250q23 40 47 119q19 16 49 16z" />
    <glyph glyph-name="I" unicode="I" horiz-adv-x="420" 
d="M139 133l5 82q18 314 18 477q0 202 -18 342l-9 80q0 52 32 91.5t73 39.5q2 -6 9 -8q35 -13 48 -33t20 -53.5t7 -83.5q0 -66 -31 -205q-2 0 -10.5 -53t-8.5 -82v-100q0 -141 15 -353q37 -28 48 -67.5t11 -112.5q-10 -49 -28 -72.5t-64 -50.5l-28 8q-30 6 -45 14.5
t-25 24.5q-13 36 -19 115z" />
    <glyph glyph-name="J" unicode="J" horiz-adv-x="1157" 
d="M666 1386q84 0 84 -167q282 14 558 30t560 27q6 -17 16 -34t10 -46q0 -27 -14.5 -42t-67.5 -20.5t-133 -5.5q-105 0 -213.5 6.5t-232.5 6.5q-122 0 -176 -6q-72 -7 -142 -11.5t-139 -15.5q281 -816 281 -1034q0 -224 -252 -224q-80 0 -185 43t-403 209q-65 0 -101 39
t-36 105q0 11 16 24t56 34l38 22q16 6 27 6q23 0 29 -6q0 -137 524 -336h21q65 0 104 33q11 17 12.5 36.5t1.5 42.5q0 201 -250 951q-14 20 -30 30.5t-47 10.5q-210 -18 -405.5 -52t-321.5 -73q0 -49 -33.5 -81t-77.5 -32q-81 0 -128.5 46.5t-47.5 131.5q64 29 170 53.5
t473 83.5l119 7q94 3 151.5 26t81.5 74q0 32 8 60t37 42z" />
    <glyph glyph-name="K" unicode="K" horiz-adv-x="1141" 
d="M135 1178q0 44 32 74t71 30q52 0 87 -51.5t35 -134.5q0 -20 -32 -57l-6 -11q-27 -51 -27 -154v-118q0 -90 3.5 -154.5t8.5 -64.5q38 5 243 242.5t255 361.5q20 34 38 41.5t52 7.5q38 0 59 -10t33 -39q0 -98 -15.5 -127.5t-64.5 -52.5q-81 -77 -203.5 -208.5
t-201.5 -228.5q-11 -7 -25 -26t-14 -35q0 -13 35 -38.5t102 -62t161 -81t154.5 -54t148.5 -12.5q57 -2 92 -19.5t52 -56.5q0 -36 -37.5 -63t-80.5 -27q-5 0 -62 5.5t-85 9t-36 6.5q-75 18 -134 39t-183 84l-91 45l-159 75q-3 0 -10.5 -15t-7.5 -22v-342q0 -7 -14.5 -16.5
t-30.5 -18.5l-17 -12q-22 0 -38.5 2.5t-22.5 22.5q-41 482 -41 1092q0 38 -11 104z" />
    <glyph glyph-name="L" unicode="L" horiz-adv-x="1004" 
d="M242 1186q29 0 60 -18t52 -40q-57 -269 -57 -811q0 -71 10.5 -103.5t32.5 -50.5t61 -18q15 0 35 5q202 54 300 68.5t218 14.5q29 -25 29 -67q0 -29 -21 -50.5t-49 -21.5h-26q-110 0 -208 -12.5t-191.5 -36.5t-274.5 -90q-35 0 -59.5 23t-24.5 61q57 733 57 950
q-6 29 -19 57t-13 56q0 35 28.5 59.5t59.5 24.5z" />
    <glyph glyph-name="M" unicode="M" horiz-adv-x="1296" 
d="M1044 1397q79 0 114.5 -24t35.5 -56q0 -47 -11 -102q-6 -29 -26 -333t-20 -466q29 -274 76.5 -411t117.5 -148h29q97 48 129.5 77.5t32.5 75.5q3 23 37 23q18 0 35.5 -16t17.5 -54q-60 -136 -129 -194t-178 -58l-58 4q-250 197 -250 727v113q0 154 27 430q0 35 -10 35
q-8 0 -23 -45q-96 -352 -170 -528.5t-184 -340.5q-21 -32 -78 -32q-37 0 -37 32q-79 281 -141 654q-2 20 -2.5 37.5t-5.5 17.5t-7.5 -12t-13.5 -43l-18 -86q-21 -101 -57 -340q-28 -189 -48.5 -256t-40.5 -89t-47 -22q-68 0 -84 113q112 390 197 921q0 78 18.5 130.5
t53.5 64.5q44 25 82 25q39 0 62.5 -23.5t23.5 -56.5v-27q0 -409 104 -756q9 -32 18 -32t27 32q78 170 305 859l19 62q17 65 34.5 91.5t42.5 26.5z" />
    <glyph glyph-name="N" unicode="N" horiz-adv-x="1087" 
d="M961 1315q26 -5 45.5 -22t19.5 -42q-6 -30 -21.5 -63.5t-34 -73t-36 -86t-27.5 -102.5q19 -50 19 -86q-4 -13 -4 -28v-38q0 -92 18.5 -264t54.5 -377q-13 -45 -50 -89t-68 -44q-26 0 -48 45q-206 241 -310 380t-189 292l-22 44l-21 38l6 -99l2 -77l6 -343l6 -233
q-23 -32 -55.5 -54t-63.5 -22q-57 0 -57 60q0 78 13 153q22 135 22 254q0 254 -64 492q-24 16 -24 51q0 26 12 29q34 12 53 29.5t34 34t32 28.5t47 12q36 0 61 -37t45 -137q40 -98 119 -225.5t157 -230t200 -228.5q6 0 6 6l-4 23l-15 160q-26 216 -32.5 281t-6.5 105l1 26
q6 63 6 119q0 74 26.5 156.5t65.5 132.5t76 50z" />
    <glyph glyph-name="O" unicode="O" horiz-adv-x="1094" 
d="M1047 545q-163 -559 -670 -559q-118 0 -191 105.5t-108 334.5l18 119q197 612 336 612q29 39 67 62.5t74 23.5q52 0 93 -45q168 -186 274.5 -369t106.5 -284zM221 483q27 -205 76.5 -291t136.5 -86q125 0 381 189q72 158 72 321q0 190 -332 385q-35 23 -84 23l-33 -4
q-142 -235 -217 -537z" />
    <glyph glyph-name="P" unicode="P" horiz-adv-x="1319" 
d="M313 950q0 29 -22 45.5t-51 16.5q-31 0 -61 -8.5t-62 -16.5l-41 -2q-50 0 -76.5 19t-26.5 55q0 11 8 39.5t35 56.5q29 19 51 24t54 5h74l118 -2l27 16q53 33 72 33q14 0 41 -7.5t39 -17.5l40 -51q19 -7 98 -18l23 -4q24 -10 166 -37l45 -9l6 -2l129 -30q12 0 64 -19
l18 -6q85 -29 141 -75.5t56 -92.5q0 -9 -19.5 -52.5t-41.5 -66.5l-21 -51q0 -12 -58.5 -56t-148.5 -101l-57 -37q-43 -22 -127 -40q-114 -25 -152 -36l-21 -3q-72 -20 -126 -20q-23 0 -35 -7.5t-12 -41.5q0 -71 14 -110l37 -82q6 -28 6 -66q0 -44 -6 -80q0 -15 -21.5 -32
t-53 -31.5t-42.5 -14.5q-31 0 -47 27t-16 90l6 146q0 57 -11 126l-12 76l4 277l-4 252v22zM440 713l4 -97q0 -29 42.5 -47t105.5 -18q128 0 203.5 21.5t179.5 93.5q23 16 75 71.5t52 65.5q0 18 -16.5 37t-69.5 51q-287 102 -414 102q-80 0 -117 -26q-24 -29 -34.5 -78.5
t-10.5 -145.5v-30z" />
    <glyph glyph-name="Q" unicode="Q" horiz-adv-x="1120" 
d="M918 1257q117 -2 173 -57.5t56 -165.5q0 -145 -84 -337.5t-213 -339t-289 -236.5q12 -18 12 -43q0 -35 -6 -63.5t-8 -57.5l2 -55q38 -225 123 -339.5t260 -176.5q17 -2 104 -4q17 0 37 4q257 0 531 501q20 9 41 9q17 0 30 -10.5t13 -24.5q0 -282 -539 -584
q-21 -14 -73.5 -23.5t-114.5 -9.5q-210 0 -355 195t-251 629q-130 0 -209.5 90.5t-79.5 232.5q0 421 586 807l61 16q124 37 193 43zM213 373q16 -72 50 -117t79 -45q187 0 361.5 192t291.5 529q6 21 6 49q0 59 -19 86.5t-69 54.5q-27 0 -47.5 -10t-54.5 -42
q-56 -52 -139 -52q-47 -22 -98 -68q-63 -59 -111 -88q-83 -46 -127.5 -104.5t-73.5 -149t-49 -235.5z" />
    <glyph glyph-name="R" unicode="R" horiz-adv-x="1153" 
d="M418 403q-28 0 -32.5 -29.5t-4.5 -94.5v-56q0 -18 15 -61q14 -44 14 -58l-1 -7q-1 -8 -2.5 -22.5t-4 -30t-5.5 -24.5q-47 -47 -69 -61t-49 -14q-44 0 -61 19.5t-17 86.5q0 46 18 147q17 100 17 154q0 50 -21 184l-4 27l4 18q18 60 18 105v14q0 216 -22 263q-18 6 -35 6
q-36 0 -82 -24q-46 -25 -55 -25q-53 0 -82 26.5t-29 77.5q0 26 21 59t53 47l35 -2q138 0 149 2q7 0 34 14l32 13l55 -8h131q83 5 195 19q100 12 178 12q114 0 238 -19q73 -27 73 -147q0 -106 -57 -154q-146 -136 -186 -147q0 -12 -39 -36.5t-74 -37.5q-23 -18 -55 -36
t-61 -35.5t-49.5 -33.5t-20.5 -30q0 -19 12 -29.5t28 -18.5t31.5 -15.5t22.5 -20.5q13 -9 92 -108q77 -96 90 -105q31 -19 68 -47.5t37 -42.5q44 -38 94 -47q20 -5 49 -22.5t39 -32.5t10 -52l-17 -47q-7 -24 -18 -31.5t-53 -7.5l-61 4q-15 0 -38 20t-49 47.5t-53 57.5
t-51 51l-94 97l-16 15q-75 69 -78 69q-10 4 -72 62q-59 52 -70 54l-15 12q-37 37 -50 37zM741 1051l-137 -9q-35 0 -114.5 -21t-81.5 -30q-22 -43 -35 -117t-13 -153q0 -59 7 -113q0 -14 24 -14q32 0 88 23t137 81l37 23q32 5 72.5 29t134.5 92q46 34 74.5 73t28.5 66
q0 33 -61.5 51.5t-160.5 18.5z" />
    <glyph glyph-name="S" unicode="S" horiz-adv-x="1180" 
d="M993 1262q45 0 64.5 -25.5t19.5 -85.5q-10 -53 -89.5 -89.5t-301.5 -78.5l-160 -105q-112 -71 -158 -109t-46 -58q2 -10 41.5 -27t187.5 -68l121 -47q202 -78 310 -131t134 -96q4 -8 9 -24.5t5 -22.5q0 -16 -8 -29q-148 -289 -659 -289q-215 0 -341.5 29.5t-137.5 81.5
l-4 30v27q9 58 63 58q15 0 20 -2l70 -39q131 -74 293 -74h33q229 0 342.5 50t152.5 171q-98 58 -195 98.5t-191 74.5t-183.5 66t-173.5 73q-57 66 -57 129q0 49 28 65q105 51 210 113.5t208 124t202 117t191 92.5z" />
    <glyph glyph-name="T" unicode="T" horiz-adv-x="1100" 
d="M1274 1343q29 -11 51 -13q41 -4 41 -36q0 -15 -8 -34q0 -31 -175.5 -65t-527.5 -58q-22 -128 -22 -163v-79q0 -210 11.5 -499t27.5 -478q0 -24 -28 -41.5t-62 -17.5q-68 0 -72 63q-2 96 -2 131q0 63 8 185q8 121 8 196q0 185 -32 461l2 149q0 37 -2 48q-400 -56 -560 -56
q-43 0 -63.5 20t-20.5 64q0 69 113 84q84 -27 84 -55q200 0 420 80l35 15q41 23 61 30.5t39 7.5q17 0 22.5 -16t10.5 -33l158 29q336 64 483 81z" />
    <glyph glyph-name="U" unicode="U" horiz-adv-x="1036" 
d="M698 360q-13 0 -91 -123l-34 -51q-15 -15 -23 -32t-18 -35q-77 -97 -112 -120.5t-90 -23.5q-83 0 -92 31q-16 16 -50 180.5t-34 219.5l20 221q0 53 6 83q12 58 14.5 90.5t2.5 88.5l-2 133q0 25 -11 68q-12 42 -12 57q0 38 20.5 79.5t40.5 41.5q60 0 97 -28.5t37 -78.5
l-5 -51l-11 -91q-22 -178 -32 -239l-18 -276l18 -221q0 -28 19 -69.5t33 -41.5q20 0 80 61.5t102 126.5l6 15q36 67 80.5 162t54.5 131q0 15 7 45q34 156 34 209q0 26 -2 34l-2 39v56q0 57 20.5 81.5t84.5 24.5q32 0 51.5 -21t19.5 -81l-2 -76q-12 -94 -27 -171
q-32 -164 -32 -256v-169q0 -49 20 -116t45 -103q12 0 57 19l15 3q9 0 31 -27t22 -40q-29 -86 -67.5 -133t-79.5 -47q-58 0 -82.5 21.5t-42 81.5t-36.5 177q-17 102 -30 141z" />
    <glyph glyph-name="V" unicode="V" horiz-adv-x="825" 
d="M934 1389q78 0 78 -80q0 -24 -2 -35q-138 -179 -268.5 -410.5t-210.5 -443.5t-80 -320q20 -42 20 -86q-32 -32 -69 -57t-91 -25q-52 0 -84 336l-31 146q-64 285 -90 444.5t-47 333.5l-3 10q0 14 23.5 24.5t53.5 10.5q56 0 68 -45q19 -97 55 -379q27 -216 55.5 -372
t34.5 -156q8 0 24.5 37.5t40.5 98.5q72 183 124 294l146 292q99 201 149.5 290t66.5 89z" />
    <glyph glyph-name="W" unicode="W" horiz-adv-x="1292" 
d="M1511 1565q62 -17 62 -70q0 -19 -6 -43q-482 -583 -559 -1407q-15 -10 -29.5 -28.5t-33 -37t-43.5 -32t-60 -13.5q-150 0 -168 930v84q-152 -285 -252 -762q16 -34 16 -82q-22 -46 -77.5 -79t-106.5 -33q-55 0 -55 53q0 35 7.5 51t18.5 33q-23 70 -37.5 171t-27 220
t-26 248.5t-34.5 257.5q-12 9 -23 33t-11 39q14 45 40.5 75.5t63.5 30.5q47 0 74.5 -32.5t27.5 -81.5l-3 -49q-15 -128 -15 -148q0 -120 27 -363t41 -243q4 0 16 39q156 618 362 903h11q47 0 63.5 -23.5t16.5 -70.5q0 -26 -4.5 -52t-4.5 -55q0 -44 18 -159l3 -48
q0 -34 -19 -67q40 -280 60 -500q3 -70 18 -70t33 58q252 1075 616 1323z" />
    <glyph glyph-name="X" unicode="X" horiz-adv-x="969" 
d="M563 653q105 -214 237 -419q42 -66 59.5 -107t17.5 -82q0 -28 -33.5 -62t-69.5 -34q-12 0 -33 16q0 27 -70 185.5t-177 381.5q-16 27 -25 27q-11 0 -29 -27l-75 -105q-156 -224 -293 -361q-219 -335 -219 -457v-6q32 -122 36 -150q-16 -16 -55 -16q-43 14 -69.5 59
t-26.5 119q0 280 661 1034q4 4 4 13l-4 16q-44 85 -84.5 154t-71.5 127.5t-50 108t-19 95.5l4 37q23 29 55 29q68 -24 111 -117q48 -153 77.5 -224.5t63.5 -129.5q140 158 244 332t152 325q19 19 63 19q66 0 95.5 -25t29.5 -76q0 -71 -37 -92q-54 -35 -131.5 -127
t-204.5 -274z" />
    <glyph glyph-name="Y" unicode="Y" horiz-adv-x="942" 
d="M301 -307q0 28 51 69h6q13 0 55 -12l44 -12h65q9 0 61 -23q66 -29 111 -45l23 45l4 123v31q0 131 -23 338.5t-53 345.5l-101 -101q-60 -60 -106.5 -84t-128.5 -34q-30 3 -42.5 13t-21.5 22.5t-21.5 24.5t-41.5 18q-17 3 -26 32t-9 105v14l11 108q16 132 19 182t3 108
q0 45 -4 79t-4 60q0 53 29 82l86 14q8 0 21.5 -15.5t13.5 -27.5v-10q0 -73 -20 -200q-21 -128 -21 -179l4 -95q4 -112 12 -126q8 -17 25 -31t28 -14q30 0 69 19.5t91.5 69t91.5 115.5q47 64 47 205v228q0 68 5.5 92t19.5 40t43 29q36 0 56 -16.5t29 -44.5t9 -98l-2 -117
l-25 -207q0 -156 4.5 -245.5t20.5 -233.5q0 -21 7 -72q38 -277 38 -409l25 -220q0 -67 -31 -107t-84 -40q-21 0 -85 32q-125 62 -162.5 75.5t-63 21t-33.5 8.5q-49 0 -84 20t-35 50z" />
    <glyph glyph-name="Z" unicode="Z" horiz-adv-x="1108" 
d="M1034 1249q20 0 36.5 -9t16.5 -28q0 -80 -221 -372t-573 -678q-12 -15 -12 -23q0 -10 106 -10q52 0 244 20q191 19 305 19q107 0 156 -39q16 -16 16 -53q0 -43 -18 -76q-56 2 -122 13t-145 16q-326 -5 -766 -78q-19 0 -38 27.5t-19 56.5q4 57 55 101.5t152 84.5l77 109
q134 190 228 288l72 77q106 111 174.5 212.5t68.5 124.5q0 12 -18 12h-29q-29 0 -219.5 -28t-425.5 -70q-23 0 -39 26t-16 62q0 42 16 72.5t39 30.5q31 0 60.5 -11t52.5 -16l101 12q273 29 406 54t200 54q45 19 79 19z" />
    <glyph glyph-name="bracketleft" unicode="[" horiz-adv-x="709" 
d="M690 1501q15 -18 20.5 -29.5t7.5 -30.5l3 -28v-27q0 -56 -279 -83q-84 -104 -84 -195v-643l-3 -19q-8 -19 -8 -33q0 -15 11 -32v-139q0 -133 -24 -226q7 -183 37.5 -303.5t70.5 -120.5h168l40 26q46 30 100 30q57 -9 57 -56q0 -139 -57 -139q-135 0 -234.5 -18.5
t-232.5 -59.5q-45 0 -82 33.5t-37 71.5q55 314 55 1153l6 57q0 15 -6 27v223q0 124 29 279q-19 68 -24 103t-5 79q28 48 144 69.5t327 30.5z" />
    <glyph glyph-name="backslash" unicode="\" horiz-adv-x="647" 
d="M164 1440l26 -6q62 -14 62 -271q0 -120 -8 -221q191 -820 422 -1126q59 -35 59 -121q0 -26 -6 -60l-49 -18l-68 12q-396 680 -536 1745q9 38 98 66z" />
    <glyph glyph-name="bracketright" unicode="]" horiz-adv-x="709" 
d="M438 1536q84 -108 84 -250l-12 -73l-16 -95q0 -32 6 -58.5t6 -53.5q0 -35 -12 -56q0 -36 10 -102l10 -76q-20 -280 -20 -381q4 -319 6 -480.5t26 -434.5q-28 -28 -116.5 -54t-243.5 -40q0 -56 -139 -56q-20 0 -31.5 11t-20 27.5t-15.5 34.5t-17 32q39 112 84 112
q27 0 47 -9.5t37 -18.5q47 15 91.5 29t79.5 37t56.5 60t21.5 99q0 22 -14 72t-14 75q0 48 10 93.5t18 93.5q0 40 -22 67q39 250 39 401.5v213.5l-2 36q-13 97 -13 121q0 42 15 66q-10 18 -10 55l3 48q15 132 15 145q0 29 -21 54q-31 35 -40 54q-29 -29 -361 -57l-24 29
q-31 35 -31 61q0 38 27 65.5t94 57.5q50 0 75 -14q63 0 168 25q118 28 166 34z" />
    <glyph glyph-name="asciicircum" unicode="^" horiz-adv-x="872" 
d="M190 618q-43 0 -65.5 16.5t-22.5 39.5v28q61 56 106.5 121t84 130t74.5 126t79 109l56 18q38 -44 75.5 -103t97.5 -163q44 -78 72 -109.5t54 -33.5q10 -28 10 -54q0 -34 -17 -64t-42 -30l-88 64q-30 45 -107 185q-53 95 -72 95q-23 -6 -54.5 -49.5t-77.5 -128.5
q-94 -171 -163 -197z" />
    <glyph glyph-name="underscore" unicode="_" horiz-adv-x="944" 
d="M684 -16h154q32 0 65 -82v-27q0 -37 -65 -84h-23q0 84 -43 84h-22q-388 0 -619 -111h-47q-43 0 -43 56l10 82q6 57 43 57q53 0 88 -31z" />
    <glyph glyph-name="grave" unicode="`" horiz-adv-x="496" 
d="M150 1384l73 -4q98 -87 139 -221l23 -72l8 -77q0 -49 -51 -49l-39 14q-23 167 -192 297l-9 65q6 47 48 47z" />
    <glyph glyph-name="a" unicode="a" 
d="M551 860q53 0 101.5 -41.5t56.5 -97.5q-45 -89 -75 -173t-30 -133q0 -71 2 -85q0 -72 58 -168q17 5 29 13.5t26 14.5q24 0 39.5 -17t15.5 -38q0 -44 -110 -112q-27 -11 -41 -11q-18 0 -43 11q-56 20 -79.5 78t-31.5 145q-213 -223 -336 -223q-14 0 -28.5 -4.5t-28.5 -4.5
q-18 0 -27 9q-11 17 -20 50t-9 68v21q136 426 504 698h27zM162 162q307 156 307 475q-307 -249 -307 -475z" />
    <glyph glyph-name="b" unicode="b" horiz-adv-x="774" 
d="M207 1497h80l26 -133v-27q-52 -155 -80 -721l-6 -102l23 76q127 293 332 293h24q135 -68 135 -240q-159 -668 -614 -668h-12q-38 0 -80 80q92 288 92 750v319l27 133v187q9 53 53 53zM238 135q344 132 344 535v55q-270 0 -344 -590z" />
    <glyph glyph-name="c" unicode="c" horiz-adv-x="733" 
d="M479 858h56q42 0 110 -110v-111q0 -57 -55 -57h-55l-111 112h-29q-194 -176 -194 -336v-84q15 -69 141 -114q29 -5 58 -5q39 0 79 9q238 84 320 84l14 -51q-46 -100 -446 -175h-56q-211 0 -252 281q0 416 420 557z" />
    <glyph glyph-name="d" unicode="d" horiz-adv-x="821" 
d="M516 1745h27q70 0 100 -205v-24q-25 -312 -25 -433v-432q0 -56 -24 -102q55 -408 176 -408q9 52 51 52q51 -10 51 -52v-24q-39 -103 -178 -103q-35 0 -202 230q0 -210 -306 -281q-153 85 -153 154q0 378 254 737l51 27h51q58 0 76 -129h27v204q0 165 24 330
q-51 267 -51 434zM160 141q52 -24 76 -24q127 0 229 381v51q-103 0 -103 129h-24q-178 -196 -178 -537z" />
    <glyph glyph-name="e" unicode="e" horiz-adv-x="750" 
d="M526 862q33 0 60 -8q37 0 78 -78q0 -14 6 -30.5t6 -28.5q0 -273 -453 -338q-10 -38 -10 -84t10 -84q0 -19 27 -47.5t96 -79.5q50 -10 82 -10q40 0 86 10q63 0 147.5 35t176.5 121h28v-29q-92 -252 -559 -252q-252 96 -252 307q0 309 420 588q22 8 51 8zM297 516l50 -2
q10 0 63 33t83.5 63t36.5 47q7 15 7 29q0 19 -7 29h-26q-102 -63 -152 -108t-55 -91z" />
    <glyph glyph-name="f" unicode="f" horiz-adv-x="678" 
d="M698 1614q281 -68 281 -336q0 -57 -57 -57q-29 0 -140 252h-57q-273 0 -381 -644q101 31 205 35l100 -2q15 -9 28 -32t13 -48q0 -18 -12 -30l-346 -62q-4 -70 -4 -135q0 -301 96 -473v-113q0 -40 -84 -84h-29q-62 0 -84 140v57q0 28 9 53q-24 26 -24 238q0 117 7 291
l-164 -21l-55 76v84q9 55 55 55h29l149 -29q102 785 465 785z" />
    <glyph glyph-name="g" unicode="g" horiz-adv-x="725" 
d="M467 895q223 -88 223 -141l15 -76q-70 -199 -99 -342l49 -506q-107 -588 -446 -588h-141q-418 49 -418 309l55 27h55q0 -194 308 -194h84q283 0 315 268q47 89 47 207l-20 350v84l-27 -41q-138 -252 -336 -252q-113 27 -113 139q0 230 449 756zM160 195l12 -37l43 10
q162 112 279 336v194h-27q-271 -286 -307 -503z" />
    <glyph glyph-name="h" unicode="h" horiz-adv-x="733" 
d="M127 1550h29q40 0 84 -84q-20 -446 -56 -446l29 -55v-111q0 -66 -6 -109l-2 -39q0 -48 8 -133l2 -90q73 185 270 398q113 -40 113 -84v-365q0 -171 84 -389q29 0 55.5 6.5t57.5 11.5q10 -47 10 -96q0 -29 -31 -49t-92 -35q-198 0 -223 737v62l-29 -33
q-94 -152 -132 -259.5t-38 -205.5v-112q0 -41 -84 -84q-23 0 -46 27.5t-58 84.5l28 168q0 147 -28 531v223q0 26 28 84q-28 156 -28 252v139q9 55 55 55z" />
    <glyph glyph-name="i" unicode="i" horiz-adv-x="375" 
d="M209 1343l55 -83v-56q0 -41 -84 -84h-28q-44 0 -111 113q27 110 168 110zM168 840h84q0 -29 29 -82l-58 -365q0 -78 84 -278q-26 -52 -26 -84h-142l-26 139v391l-58 197z" />
    <glyph glyph-name="j" unicode="j" horiz-adv-x="362" 
d="M193 1456q11 0 18.5 -14.5t7.5 -36.5q0 -29 -9 -59.5t-9 -59.5q0 -55 -84 -55q-111 39 -111 84q15 137 166 137zM145 922q67 -23 78 -50l6 -61q0 -211 56 -1257q-50 -281 -250 -281q-252 117 -252 252h55q119 -113 223 -113q64 76 111 226q-71 1118 -166 1118v26
q47 140 139 140z" />
    <glyph glyph-name="k" unicode="k" horiz-adv-x="891" 
d="M215 1458h55q58 -9 58 -55q-57 -330 -82 -860l131 162l174 194h55q56 -6 56 -55v-29l-334 -362q232 -154 391 -154q77 7 143 31q29 0 29 -43q0 -35 -33 -54q-64 -73 -168 -73q-156 0 -463 153v-26l17 -281q-43 -112 -84 -112q-42 0 -84 83q84 1108 84 1231v195
q9 55 55 55z" />
    <glyph glyph-name="l" unicode="l" horiz-adv-x="348" 
d="M174 1481h84q55 -9 55 -56q-95 -816 -95 -1217l1 -73l57 -110q0 -42 -83 -84h-29q-57 0 -84 165l94 1151l-29 140q29 56 29 84z" />
    <glyph glyph-name="m" unicode="m" horiz-adv-x="1014" 
d="M209 848q82 0 82 -84l55 29l37 -11l66 -407q45 -189 94 -199q212 637 252 643h55l55 -26l-55 -365q27 -223 223 -223v-55q0 -56 -88 -68l-90 29q-109 21 -162 268l-22 -62q-93 -362 -168 -362h-78q-35 18 -146 418q-26 72 -40 104q-69 -495 -211 -495q-22 11 -35 29
t-13 38q0 16 9 33q80 201 108 516l-28 166q52 84 100 84z" />
    <glyph glyph-name="n" unicode="n" horiz-adv-x="811" 
d="M180 897h27l80 -53l-27 -135v-187l-14 -53l-8 -55q57 169 290 430h82l27 -135v-322q0 -144 117 -199h55q82 0 172 72q55 -9 55 -53v-29q-48 -92 -213 -139q-348 0 -348 510l-2 24q-182 -277 -293 -643h-53q-64 0 -82 136q27 132 45 165q19 41 23 125l14 140v213l-29 135z
" />
    <glyph glyph-name="o" unicode="o" horiz-adv-x="834" 
d="M774 387q-18 -120 -182 -301q-114 -61 -197 -78h-8q-52 -10 -96 -10q-42 0 -64 10q-168 102 -168 340q0 87 58.5 185t197.5 245l-2 15q0 24 29.5 42.5t71.5 18.5q39 0 81.5 -28.5t122.5 -130.5q24 -31 54 -62q32 -35 45.5 -69t13.5 -48q25 -35 31.5 -66.5t11.5 -62.5z
M201 319q0 -115 139 -198q278 94 278 311q-79 182 -198 182q-103 -18 -161 -94.5t-58 -200.5z" />
    <glyph glyph-name="p" unicode="p" horiz-adv-x="758" 
d="M610 885q127 -47 127 -142q0 -167 -120.5 -347.5t-376.5 -391.5v-246l22 -84v-28l6 -95v-10q0 -24 12 -52q11 -28 11 -40q0 -84 -127 -84q-28 0 -40.5 25.5t-12.5 152.5q0 72 10 92l-21 353v49q0 51 7 145q6 94 6 131v199q-103 0 -103 84v84q0 40 127 84q0 84 51 84h76
v-84q102 65 179 93t167 28zM240 567v-254q0 -102 28 -102q21 0 47 20q142 131 206.5 234.5t64.5 193.5v58q-51 0 -51 26q-157 -51 -226 -91t-69 -85z" />
    <glyph glyph-name="q" unicode="q" horiz-adv-x="745" 
d="M477 895h84q78 0 113 -281q-56 -263 -56 -417v-643l27 -197l-84 -55h-84q0 32 -26 84l55 530q-29 155 -29 307q-114 -112 -278 -139q-168 58 -168 113v26q0 152 446 672zM393 614q-194 -280 -194 -362q26 0 26 -29q226 74 226 252v84q0 55 -58 55z" />
    <glyph glyph-name="r" unicode="r" horiz-adv-x="643" 
d="M561 877q48 -27 78 -27v-82q0 -33 -205 -111q-139 -126 -178 -223v-82l25 -276l-101 -82q-90 40 -90 82q0 119 25 223q0 8 -19 131.5t-57 364.5l39 28h102q27 -106 27 -194q191 179 354 248z" />
    <glyph glyph-name="s" unicode="s" horiz-adv-x="780" 
d="M584 891q108 -44 108 -82v-55q0 -80 -301 -111q-108 -77 -108 -108q438 -105 438 -330q-185 -219 -412 -219h-110q-201 0 -219 82v82q9 55 55 55h55q12 -111 82 -111h82q301 43 301 111v55q0 70 -436 193l-29 55v53q0 23 494 330z" />
    <glyph glyph-name="t" unicode="t" horiz-adv-x="725" 
d="M389 1266h27q38 0 76 -78q-53 -122 -103 -389h258q37 0 78 -78q-24 -78 -51 -78q-46 0 -156 51q-156 0 -156 -102q-25 -204 -38 -252q14 -45 14 -111l12 -98l39 -6q51 0 109.5 35.5t169.5 140.5q21 0 32 -12t11 -53q0 -73 -82.5 -139t-239.5 -128h-78q-102 38 -102 234
v51q0 135 33 401l-215 -12l-27 129q59 53 140 53h12q38 -26 81 -26h52q0 99 53 338q-27 44 -27 75z" />
    <glyph glyph-name="u" unicode="u" horiz-adv-x="799" 
d="M174 854q150 0 168 -139q-113 -162 -113 -307v-84l29 -140h29q45 0 96 68.5t103 196.5t108 350q0 28 27 28h57q20 0 35.5 -27.5t38.5 -84.5q-57 -167 -80 -271.5t-23 -146.5q15 -202 174 -223q8 -3 8 -21q0 -22 -9.5 -47t-20.5 -31l-68 -14q-194 0 -205 281
q-39 -33 -108 -118q-63 -77 -107 -108q-19 -8 -43 -8q-18 0 -33.5 4t-33.5 4q-46 0 -113 113v55q0 208 29 420q-29 96 -29 195z" />
    <glyph glyph-name="v" unicode="v" horiz-adv-x="590" 
d="M537 934h55q54 -9 57 -62l-248 -643q-36 -218 -149 -252h-29q-23 0 -40 49t-38 168l-40 219q-26 124 -39 218q-47 0 -56 194l84 56h29q38 0 84 -84v-111l61 -420l49 103q164 488 220 565z" />
    <glyph glyph-name="w" unicode="w" horiz-adv-x="934" 
d="M1026 1225l55 -84v-84q-101 0 -333 -1008l-58 -26h-26q-65 9 -197 417h-29q-15 -224 -53 -227l8 -57l-8 -86q-27 -103 -86 -103h-1q-66 0 -278 754q40 110 84 110h84q16 -199 101 -542l10 41q95 446 139 446h103q24 -210 137 -506l12 31q197 860 281 924h55z" />
    <glyph glyph-name="x" unicode="x" horiz-adv-x="719" 
d="M651 944q9 -55 58 -55q0 -200 -310 -420q96 -336 252 -336q58 -9 58 -55v-29q0 -84 -113 -84q-139 0 -279 336q-140 -87 -225 -278q-80 -41 -223 -420h-29q-53 0 -53 84q0 163 446 753q-83 209 -83 365l55 26h112q0 -64 27 -110q-27 -50 -27 -113v-26h27q130 100 223 333
q56 29 84 29z" />
    <glyph glyph-name="y" unicode="y" horiz-adv-x="739" 
d="M588 877q55 -10 55 -54v-4l-16 -223q-4 -46 -4 -102q0 -119 7 -246l1 -41q0 -133 -8 -253q-9 -121 -9 -167v-336l-34 -176l-76 -20q-84 31 -84 167q82 119 82 392l-19 57l21 168v381l-29 -76q-13 -161 -194 -305l-29 -4l-29 4q-62 4 -95 177.5t-44 520.5q10 40 33 61
t47 21h43q57 -6 57 -53q-18 -111 -18 -260l6 -273l14 -38l41 38q28 73 55.5 144t51 145t42 154t29.5 172q54 29 103 29z" />
    <glyph glyph-name="z" unicode="z" horiz-adv-x="745" 
d="M655 868q47 0 47 -86q-101 -233 -395 -616q254 59 336 59q92 -42 92 -86q0 -35 -5 -58t-28 -52q-31 0 -153 45q-142 0 -479 -92q-24 0 -42 33t-18 71q142 89 254.5 221.5t237.5 364.5q-193 -64 -340 -81l-76 -11l-47 79v29l47 76l115 -29q223 50 300.5 74.5t153.5 58.5z
" />
    <glyph glyph-name="braceleft" unicode="{" 
d="M645 1509q78 -6 78 -57q0 -26 -15.5 -48t-41 -40.5t-101.5 -55.5q-70 -33 -88 -51q0 -28 -23 -143q-25 -122 -30 -248q29 -114 29 -194q0 -66 -80 -197q-8 -9 -21.5 -19t-13.5 -18q63 -35 93 -93t30 -114q0 -37 -7.5 -73t-7.5 -74l7 -252q0 -61 -29 -113
q55 -174 129 -194h53q16 0 48 26q33 26 48 27h21q32 0 53 -18.5t21 -48.5q0 -28 -15 -70q-96 -47 -168 -76t-118 -29q-51 0 -117.5 60.5t-95.5 161.5q-7 20 -7 59v47q0 40 -6 83t-6 97q0 60 20 166q19 105 19 187q-13 54 -34.5 77.5t-49.5 32.5t-61 12t-70 17q-27 15 -27 59
q0 47 27 80q21 18 72 32q59 16 84.5 47t38.5 89l2 113q0 26 -7 57.5t-10 52.5q0 283 91.5 439.5t285.5 203.5z" />
    <glyph glyph-name="bar" unicode="|" horiz-adv-x="410" 
d="M188 1452h56l55 -37q-27 -408 -27 -604v-168l13 -102l2 -25q0 -29 -15 -70q0 -454 84 -1034l-84 -55h-47q-25 0 -45 18t-20 37l28 281v139l-28 139v840l-29 336l-6 108l6 142q9 55 57 55z" />
    <glyph glyph-name="braceright" unicode="}" horiz-adv-x="750" 
d="M330 1513q124 0 239 -167l2 -62q-26 -206 -71 -405l-8 -43v-111l10 -104q3 -18 23 -30.5t71 -31.5q84 -32 84 -110q0 -25 -17.5 -42.5t-63.5 -37.5q-42 -18 -61.5 -39t-19.5 -51q0 -154 25.5 -267t81.5 -209q0 -170 -58.5 -269t-183.5 -148q0 -28 -40 -54t-122 -55
q-51 0 -80 29q0 129 215 219q0 21 35 41q40 23 47 37q0 142 -18 250.5t-68 240.5l-22 103q-11 24 -11 43q0 65 81 171l26 38q-16 20 -35.5 36t-37 35t-29 45.5t-11.5 67.5q0 86 34 262q48 255 63 360q-78 80 -256 111l-13 29q20 69 66 93.5t123 24.5z" />
    <glyph glyph-name="asciitilde" unicode="~" horiz-adv-x="952" 
d="M743 637q45 0 77.5 -37t60.5 -123q0 -87 -152 -178q-12 -5 -23.5 -14t-25.5 -9q-29 0 -52.5 5.5t-52.5 5.5t-78.5 58t-84.5 132q-59 0 -70 21q-116 0 -158 -215q-11 0 -23.5 -6.5t-25.5 -6.5q-23 0 -38.5 32.5t-30.5 133.5q0 33 54 87t128 89l147 6q60 -13 109.5 -50.5
t95.5 -114.5q13 -18 45 -23q22 5 43 17.5t29 29.5q-3 11 -10 21q-17 25 -17 42l6 33l2 19q6 45 45 45z" />
    <glyph glyph-name="uni00A0" unicode="&#xa0;" horiz-adv-x="600" 
 />
    <glyph glyph-name="exclamdown" unicode="&#xa1;" horiz-adv-x="465" 
d="M293 680q23 0 37 -25.5t14 -68.5q-5 -43 -41.5 -78t-83.5 -35q-49 24 -49 100q0 39 21 68t42 29zM254 307q21 0 29.5 -9.5t13.5 -45.5q0 -47 -37 -176q-42 -147 -53 -244q3 -106 14 -243q10 -124 10 -169l-4 -34q-22 -41 -36.5 -54.5t-35.5 -21.5t-51 -8q-23 0 -40 26
t-17 58q0 208 57 585q8 135 52.5 235.5t97.5 100.5z" />
    <glyph glyph-name="cent" unicode="&#xa2;" horiz-adv-x="942" 
d="M457 1118h112q56 -9 56 -55v-252q139 0 139 -55v-84h-111l27 -58v-168h141q56 -9 56 -55q0 -55 -168 -55l84 -336l-56 -29h-28q-86 0 -113 365h-111l27 -197v-223q0 -55 -55 -55h-84l28 194q0 336 -194 336q-141 0 -141 84v113q114 0 251 168v139l-55 84q28 111 111 111
h84v28zM457 979v-197q55 0 55 56l-27 141h-28zM457 672v-226h112v29l-28 197h-84zM233 559v-55q64 0 111 -29v113h-27q-55 -29 -84 -29z" />
    <glyph glyph-name="sterling" unicode="&#xa3;" horiz-adv-x="936" 
d="M614 1409q168 0 168 -362q-55 -177 -55 -226h-84q0 31 -29 84q0 30 29 84q-29 118 -29 197h-26q-114 0 -142 -531q336 -71 336 -112v-56h-327q-72 -15 -140 -251q580 -35 580 -140q0 -84 -113 -84q-144 84 -278 84q-222 0 -336 -84h-111q-57 0 -57 56v110
q225 166 225 309q-85 23 -112 111q0 45 168 139q109 672 333 672z" />
    <glyph glyph-name="currency" unicode="&#xa4;" horiz-adv-x="1243" 
d="M209 1022h29q11 0 58.5 -56.5t135.5 -168.5l141 84h140l84 -56h28q341 113 418 113v-84q-77 0 -336 -168l29 -139l-84 -141v-56l223 -168v-26q-26 -52 -26 -84h-84l-308 194q-292 0 -532 -362h-27q-57 0 -57 55l225 336l-57 194l113 197q-147 139 -197 139v29
q18 168 84 168zM377 518v-84q104 0 168 -55q218 71 252 168q-50 97 -168 139q-115 0 -252 -168z" />
    <glyph glyph-name="yen" unicode="&#xa5;" horiz-adv-x="1010" 
d="M956 1292h113v-168q-296 -235 -414 -549q72 5 126 5q149 0 149 -41v-29q0 -46 -301 -100q-21 -59 -21 -123q264 0 264 -58q0 -55 -55 -55h-223v-278q0 -58 -57 -58h-84v307l-308 -82q-55 0 -55 56v110q293 58 363 58v110l-56 -26h-110q-29 0 -29 26l-55 -26
q-142 33 -142 84q47 139 142 139q91 -55 168 -55h55v26q-99 426 -281 559q43 113 84 113h29q279 -308 279 -588q47 38 335 559z" />
    <glyph glyph-name="brokenbar" unicode="&#xa6;" horiz-adv-x="410" 
d="M178 41q-10 24 -24 67.5t-14 55.5l-1 7q0 12 1 15l1 7q38 67 54 75q6 6 47 6q47 0 47 -6q6 -2 11.5 -16t8.5 -21q23 -37 23 -88l-1 -15l-1 -11q-2 -2 -21 -58l2 -49q0 -19 -2 -24l-16 -156v-76q0 -38 16 -246l21 -38l1 -8l1 -13q0 -17 -13 -44.5t-26 -29.5l-41 -2l-37 2
q-8 2 -22.5 16.5t-14.5 20.5v629zM139 717q0 115 12 301q11 185 11 299v67q12 38 32 59t42 21l20 -2q47 -23 57 -39q0 -1 2.5 -7.5t5.5 -15.5t5.5 -18.5t3.5 -15.5v-16l-35 -117q-4 -9 -9.5 -44t-11.5 -87.5t-18 -263.5v-19l18 -172v-10q0 -29 -29 -56.5t-57 -27.5h-10
q-16 16 -16 20q-7 7 -15 38t-8 106z" />
    <glyph glyph-name="section" unicode="&#xa7;" horiz-adv-x="788" 
d="M406 1327q89 0 169 -147v-43q0 -43 -43 -43h-43l-63 43h-64q-48 0 -63 -107q3 -40 383 -426q0 -27 20 -63q0 -21 -20 -21l20 -106v-43l-63 -84q69 -104 84 -236q0 -157 -297 -233q-276 0 -276 190v86q9 43 43 43h43q21 -170 63 -170h127q111 0 129 64v43q-21 64 -213 147
q-276 240 -276 320q21 319 127 319l-64 234q108 233 277 233zM201 590q166 -238 344 -238h22v47q0 137 -254 330q-68 -15 -112 -139z" />
    <glyph glyph-name="dieresis" unicode="&#xa8;" horiz-adv-x="758" 
d="M551 1303h27q35 0 77 -80v-80q0 -80 -104 -80q-26 14 -44.5 23.5t-31.5 21.5l-4 115q0 34 80 80zM178 1270h27q30 -5 58 -24.5t28 -37.5v-24q0 -50 -30.5 -89t-82.5 -53q-35 0 -76 76v76q0 19 19.5 36.5t56.5 39.5z" />
    <glyph glyph-name="copyright" unicode="&#xa9;" horiz-adv-x="1606" 
d="M854 1118h29q272 0 643 -530v-226q-141 -270 -727 -417q-269 -58 -307 -58q-420 120 -420 365q0 62 -27 110q143 443 418 588q213 168 391 168zM213 223q120 -194 362 -194q783 132 783 333q28 0 28 29v84q0 267 -419 420h-113l-139 -29v56q-241 0 -502 -502v-197z
M772 782q45 -26 111 -26v-58l-336 -223v-84h112q161 0 308 113l26 -142q-157 -110 -446 -110q-130 84 -168 84q0 305 393 446z" />
    <glyph glyph-name="ordfeminine" unicode="&#xaa;" horiz-adv-x="655" 
d="M59 829l2 21q0 19 56 135q10 22 10 31l12 24q23 64 56 93q65 72 112.5 112.5t87.5 40.5q20 0 37.5 -11t30.5 -36.5t23 -61t10 -44.5l-2 -132q0 -46 16.5 -82t42.5 -36l41 18l72 4v-14q0 -57 -10 -73.5t-36 -33t-60 -26.5t-60 -10q-8 0 -12 1l-9 1q-25 13 -46 29t-56 52
l-18 -19l-80 -81l-46 -18l-47 -15l-73 33q-16 10 -35 49t-19 49zM334 1100l-30 -29q-32 -28 -45.5 -49t-18.5 -49l-5 -8l-24 -35l-4 -70q7 0 19 2t14 4q60 42 90 83t30 98q0 9 -8 27t-18 26z" />
    <glyph glyph-name="guillemotleft" unicode="&#xab;" horiz-adv-x="967" 
d="M438 795q62 0 97 -35q0 -60 -48 -116t-147 -118l-33 -61q-20 -34 -20 -55q27 -60 64.5 -119.5t72.5 -111t59.5 -91.5t24.5 -61q-20 -11 -36 -19t-36 -8l-26 2q-29 7 -54 37.5t-64 107.5l-36 64q-82 48 -133 83.5t-51 59.5q0 46 194 246q156 195 172 195zM819 772
q76 0 76 -76q-4 -43 -211 -209q-11 -17 -23 -34.5t-12 -34.5q0 -13 10 -29q25 -26 42.5 -59.5t36.5 -67.5t42.5 -65.5t59.5 -53.5q20 -9 20 -59q0 -20 -43 -37q-46 7 -86.5 35.5t-88.5 88.5q-67 81 -106 117t-83 62q-15 14 -15 31q0 3 6 18l153 171q131 149 157 173.5
t43 26.5z" />
    <glyph glyph-name="logicalnot" unicode="&#xac;" horiz-adv-x="887" 
d="M778 655q20 0 33 -19t29 -65l-64 -165l10 -46v-221h-71q-74 17 -74 195v16l14 160h-61q-79 0 -488 -123q-49 0 -49 49q0 146 416 146q0 11 79.5 29t225.5 44z" />
    <glyph glyph-name="uni00AD" unicode="&#xad;" horiz-adv-x="623" 
d="M446 539q41 0 77 -24t36 -46q0 -27 -12 -43t-42 -26l-30 -11q-59 6 -194 6q-17 0 -37 -7t-37 -7q-48 0 -123 14q-8 11 -14.5 29.5t-6.5 32.5q0 26 21 32l104 15q214 35 258 35z" />
    <glyph glyph-name="registered" unicode="&#xae;" horiz-adv-x="1829" 
d="M1036 1202q476 -114 559 -252q147 -154 168 -362q0 -571 -1118 -727h-84q-502 77 -502 475q0 540 838 838q93 0 139 28zM199 307q0 -271 446 -336q708 0 979 533v110q0 168 -223 336l-84 -55q-95 0 -197 84h-28q-105 0 -306 -141h-57v57l139 139h-26q-643 -258 -643 -727
zM532 811h113q588 -77 588 -197q-105 -194 -225 -194v-29q419 0 419 -84l-26 -55q-281 27 -420 27h-195v-166h-112q-58 0 -58 55v29q0 58 29 110q-47 262 -139 365q26 43 26 139zM758 614v-168h28q208 74 222 142v26h-250z" />
    <glyph glyph-name="macron" unicode="&#xaf;" horiz-adv-x="762" 
d="M215 1069q-39 0 -76 24t-37 46q0 27 12 43t42 26l30 11q58 -7 145 -7h111q17 0 37 7.5t37 7.5q54 0 123 -15q20 -27 20 -61q0 -27 -20 -33q-49 -6 -113.5 -14.5t-127 -16t-112.5 -13t-71 -5.5z" />
    <glyph glyph-name="degree" unicode="&#xb0;" horiz-adv-x="727" 
d="M289 1378q169 0 418 -362v-29q0 -212 -390 -252q-148 0 -251 168v113q0 149 223 362zM176 961l113 -84h139q71 55 139 55v55q-30 85 -196 197h-54q-74 0 -141 -223z" />
    <glyph glyph-name="plusminus" unicode="&#xb1;" horiz-adv-x="905" 
d="M453 981q40 0 84 -84v-197h251q56 -9 56 -55v-29q0 -55 -56 -55l-251 29q0 -29 -27 -29l84 -307l-57 -29h-140l-28 281v55q-180 -55 -250 -55h-58l-26 139q55 0 55 55l197 -26h82l28 139l-28 55q42 113 84 113zM174 156l113 -29q377 29 585 29v-142l-194 29l-559 -84
q-58 0 -58 55v58q0 26 113 84z" />
    <glyph glyph-name="uni00B2" unicode="&#xb2;" horiz-adv-x="668" 
d="M53 629q0 8 7.5 22t17.5 28t18 25.5t10 14.5l117 127l72 88l18 37l11 13q45 50 45 85q0 45 -62 45q-59 0 -146 -48q-17 -9 -26 -9q-13 0 -38 32.5t-25 53.5q0 31 31 51t83 20q26 26 92.5 46t92.5 20q42 0 71 -15t29 -44l19 -24q20 -25 20 -38q0 -63 -15 -107t-57 -118
l-48 -63l-122 -152v0q0 -6 -15 -19l-15 -16l118 14l125 13q50 0 85.5 -12t43.5 -33q0 -28 -13.5 -48t-39.5 -26l-168 -18l-156 -19q-101 0 -140.5 19t-39.5 55z" />
    <glyph glyph-name="uni00B3" unicode="&#xb3;" horiz-adv-x="535" 
d="M41 633q35 0 127 -21l29 -4q65 0 116 39l13 21q41 56 41 67q-13 51 -43.5 78t-92.5 41l-32 -4l-41 -4q-31 0 -43 16.5t-17 36.5l-1 13q0 92 104 92q44 0 64.5 9.5t33.5 33.5l23 40q11 11 11 51l-1 13q-40 0 -74 -14t-61 -31t-47.5 -31t-34.5 -14q-12 0 -39 20t-33 33
q0 19 4 32t11.5 23t39.5 35l54 19l108 53q13 6 61.5 12t75.5 6q39 0 62.5 -35t23.5 -96q0 -33 -12 -61.5t-51 -77.5l-12 -13q-57 -62 -58 -67q0 -11 23 -25l18 -11q10 -6 52.5 -50t50.5 -86v-43t-1.5 -23t-5 -17t-12.5 -23q-24 -42 -50.5 -68.5t-74.5 -58.5q-10 0 -26 -6
q-83 -31 -101 -31q-105 0 -143.5 32.5t-38.5 98.5z" />
    <glyph glyph-name="acute" unicode="&#xb4;" horiz-adv-x="586" 
d="M446 1391l27 -19q10 -8 10 -29q0 -27 -18 -45q-38 0 -96 -77.5t-113 -198.5q0 -55 -111 -55l-43 77v29q118 153 203.5 235.5t140.5 82.5z" />
    <glyph glyph-name="uni00B5" unicode="&#xb5;" horiz-adv-x="803" 
d="M240 852q43 -41 43 -92q0 -29 -7 -57q-16 -66 -16 -132l8 -157q0 -72 9 -126t24.5 -83t30.5 -29q89 92 137.5 215.5t48.5 247.5q-16 112 -16 168q24 30 69 60l27 20q43 0 75 -25.5t32 -58.5q-18 -115 -48 -359q0 -154 46.5 -230.5t158.5 -76.5v-55q0 -41 -84 -84h-28
q-90 0 -146.5 82.5t-56.5 218.5q-67 -143 -133 -236.5t-90 -93.5q-35 0 -72 78q-22 45 -33 61.5t-20 16.5l-9 -424q0 -129 5 -174l7 -32q31 -103 31 -152q0 -67 -40 -107h-21q-42 0 -58.5 12.5t-27 47.5t-33.5 231v12l6 84q0 22 -6 43q58 406 58 862q0 133 -9 234
q-2 47 -2 61q53 29 140 29z" />
    <glyph glyph-name="paragraph" unicode="&#xb6;" horiz-adv-x="1067" 
d="M932 1147l39 -39l-10 -102q-84 0 -84 -140v-110l84 55h26q57 0 57 -84q0 -40 -167 -168v-84q51 -146 84 -672l-140 -26q-28 54 -28 84q0 256 -56 698h-57l-27 -139v-252q0 -32 5.5 -59.5t5.5 -55.5q0 -29 -5.5 -47.5t-5.5 -34.5l27 -55q-27 -139 -111 -139q-53 26 -84 26
q14 180 24.5 236.5t25.5 69.5l-11 141q14 75 15.5 139t1.5 115l-195 -29h-84q-196 0 -196 197v84q101 177 419 307q0 84 447 84zM680 950q0 -272 -27 -291l56 13h28v223q0 55 -57 55zM178 698q29 -110 168 -110l195 26v29l-8 111q0 9 8 57q-29 47 -29 111q-160 0 -334 -224z
" />
    <glyph glyph-name="periodcentered" unicode="&#xb7;" horiz-adv-x="430" 
d="M256 594q21 0 31 -4q25 -5 35.5 -17t15.5 -32q4 -34 4 -68l-4 -57q-6 -29 -46 -46.5t-128 -31.5q-78 104 -78 154l125 98z" />
    <glyph glyph-name="cedilla" unicode="&#xb8;" horiz-adv-x="664" 
d="M561 -53l-3 -27q-18 -82 -19 -104q-90 -90 -159 -121t-157 -31q-47 0 -84 26t-37 62q0 29 22.5 48.5t55.5 19.5q23 0 62 -19q45 -23 63 -26q41 15 58 29t30 41l21 42q0 66 -20.5 89.5t-102.5 48.5q-29 6 -29 16q0 9 31.5 33t52.5 24q6 0 12 -4.5t13 -7.5q6 3 12 7.5
t12 4.5q69 -6 98.5 -23.5t48.5 -56.5t19 -71z" />
    <glyph glyph-name="uni00B9" unicode="&#xb9;" horiz-adv-x="371" 
d="M109 610l2 41q1 4 3 14.5t5 22t5.5 21.5t4.5 14v467q0 2 6.5 15.5t11.5 19.5q0 7 17 18l37 19h16l37 -19q16 -16 16 -18l6 -14q13 -33 13 -42q0 -7 -16 -53l-19 -53l-2 -164v-25q2 -167 2 -169l16 -72v-19q0 -5 -6.5 -18.5t-9.5 -15.5q-2 -4 -7.5 -10t-11.5 -12
t-11.5 -10t-6.5 -5l-35 -2q-15 0 -21 1l-14 1q-6 2 -21.5 17t-15.5 32q-1 15 -1 18z" />
    <glyph glyph-name="ordmasculine" unicode="&#xba;" horiz-adv-x="571" 
d="M68 983q0 33 18 82q3 16 45 143q52 59 79 77t48 18t55 -23q9 -8 28.5 -24.5t41 -36t41 -37.5t27.5 -27q20 -9 37.5 -98.5t17.5 -130.5q0 -88 -66 -158t-143 -70q-44 0 -97.5 29.5t-95.5 81.5q-14 44 -25 96.5t-11 77.5zM209 973q0 -70 16 -100.5t62 -30.5l35 4
q7 4 40 37.5t33 42.5l-18 84q-8 34 -50.5 72t-58.5 38q-2 0 -8.5 -7t-9.5 -13q-31 -43 -36 -61.5t-5 -65.5z" />
    <glyph glyph-name="guillemotright" unicode="&#xbb;" horiz-adv-x="985" 
d="M913 489q0 -18 -18.5 -40t-49 -50.5t-71 -64t-84.5 -80.5q-32 -45 -79 -95q-52 -55 -81 -96q-86 0 -86 58q0 25 7 49l104 117q76 84 105.5 129t29.5 78q-11 32 -53 70.5t-115 89.5q-29 19 -37 40.5t-8 50.5q0 32 24 50t60 18l23 -2q39 -31 72.5 -66t66.5 -66.5t67 -56
t74 -34.5q21 0 35 -33t14 -66zM178 750l53 -5l35 -40q44 -55 104 -102t122 -71q8 -13 8 -26q0 -44 -39 -100t-136 -161l-161 -179q-48 0 -70 20t-22 49q0 19 6 37l39 41q129 129 161.5 170.5t32.5 73.5q-10 19 -35 41.5t-86 70.5q-92 71 -92 123q2 20 29.5 39t50.5 19z" />
    <glyph glyph-name="onequarter" unicode="&#xbc;" horiz-adv-x="1225" 
d="M815 336l-92 -37l-64 -29q-50 -23 -65 -26l-37 -2l-37 2q-9 4 -22.5 18t-14.5 19l-2 24l2 31q1 5 16 33.5t21 38.5l148 147l37 74l36 37q28 38 37 55l19 72q25 64 44.5 87t26.5 23l37 2l37 -2q12 -2 29.5 -16t17.5 -21v-348l31 5q89 14 125 14h18q10 -10 19 -37l2 -27
l-2 -29q0 -5 -12 -26t-25 -29q-45 -18 -55 -18l-30 14l-7 4h-19l-37 -18l-18 -72l-18 -111l18 -129l2 -63l-1 -26l-1 -19q-2 -8 -22 -28t-33 -27l-7 -1q-10 -1 -12 -1l-18 2q-7 2 -22 17t-15 19v385q0 8 -19 19h-16zM227 115l37 184l74 182l18 37l37 111l37 55l19 53l34 92
l19 56l37 73l18 74l37 109q9 9 37 18l28 2l17 -1l10 -1q4 -2 27.5 -24t27.5 -31l4 -27l-4 -26l-27 -39l-28 -35l-129 -256l-108 -258l-37 -92l-19 -54l-18 -73l-19 -166l-19 -18q-11 -11 -17 -18.5t-37 -18.5h-19l-18 18l-19 37v37zM836 600q-5 -3 -17 -20l-18 -37l-39 -39
q-10 -6 -21 -39l-4 -25q33 0 43 4q49 16 56 21q6 2 13 8.5t7 9.5l2 49l-1 29q0 23 -7.5 31t-13.5 8zM199 1143l28 -2q19 -13 19 -19l1 -7l1 -9q0 -32 -21 -74v-311l5 -11q16 -38 16 -73q0 -43 -21 -64q-5 -10 -56 -43l-17 -12l-4 -1l-5 -1l-6 1l-4 1l-18 19
q-8 15 -13.5 33.5t-5.5 21.5v477q0 6 27.5 33t46.5 39l10 1z" />
    <glyph glyph-name="onehalf" unicode="&#xbd;" horiz-adv-x="1290" 
d="M295 -39l2 29l18 55l56 201l55 166l35 127l112 331l4 19l15 90v55l18 56l17 18l55 18l55 -18l19 -18q16 -48 18 -56l2 -20l-1 -9l-1 -8l-59 -118l-15 -27q-13 -28 -50.5 -118t-39.5 -103l-131 -385l-37 -164v-37l-16 -92l-37 -37l-37 -18l-20 -2q-7 0 -10 1l-7 1
q-7 4 -18 36zM664 119q35 31 122 118t99 101l55 74q18 36 18 37q0 6 -18 18l-29 2l-15 -1l-11 -1l-39 -18l-53 -37q-28 -19 -37 -19l-7 -1q-10 -1 -12 -1l-11 1l-7 1l-37 19q-5 3 -11.5 9.5t-6.5 8.5t-2 27l2 28l36 72l19 18h18l109 19l131 18h16l79 -15q15 -3 23.5 -10.5
t8.5 -11.5l2 -57l-2 -51q-2 -7 -15.5 -34.5t-21.5 -39.5l-55 -74l-127 -147q-19 -32 -19 -35q9 -4 44.5 -11t68.5 -7.5t134 -1.5l157 2l18 -19l1 -8l1 -10l-2 -19q-2 -8 -9 -21t-9 -15l-10 -1h-18l-30 1l-81 -9q-232 -30 -353 -30l-34 1q-43 0 -62 19l-18 74v37zM113 504
l4 26l14 119v74l21 182v19l-21 55v111q0 1 15 16t24 20l37 19l20 2l8 -1l7 -1q20 -17 46 -44t27 -30l1 -12l1 -21l-2 -41l-18 -36l-18 -56v-35l-7 -30l-30 -135v-130l18 -71q0 -9 -7 -29t-11 -26q-2 -5 -12 -16.5t-25.5 -26t-24.5 -14.5l-5 -1q-13 0 -16 1l-7 1q-2 0 -10 7
t-11 12q-3 3 -10.5 18t-7.5 19v55z" />
    <glyph glyph-name="threequarters" unicode="&#xbe;" horiz-adv-x="1278" 
d="M944 268h-16h-17q-3 -1 -14.5 -3.5t-25 -5.5t-26 -5t-16.5 -2q-2 0 -11.5 -0.5t-22 -0.5t-24.5 -0.5t-19 -0.5t-19 0.5t-23.5 0.5t-20 0.5t-9.5 0.5q-6 0 -18.5 6.5t-12.5 9.5q-2 6 -3 21.5t-1 21.5q0 3 0.5 10t1 13.5t1 12t1.5 5.5q0 2 5.5 11t13.5 19.5t15.5 20.5
t12.5 15q4 4 17 16.5t30 29.5t36 36.5t36 36.5t29 30t16 17q1 1 6 7t10.5 14.5t11 16t7.5 11.5t7.5 14t10.5 21t9.5 20.5t5.5 13.5q1 3 6 17.5t10.5 31t10.5 31t6 17.5q2 3 9 8t15 10.5t15.5 10t11.5 6.5q2 0 15.5 1t23.5 1q4 0 10.5 -0.5t14.5 -0.5q8 -1 18 -1q3 0 15.5 -7
t18.5 -10l8.5 -8.5t8.5 -9.5q0 -3 0.5 -11t0.5 -17.5t0.5 -18.5t0.5 -13q0 -5 -0.5 -14t-0.5 -18t-0.5 -15.5t-0.5 -7.5q-1 -3 -6 -15.5t-11 -26.5t-11 -26.5t-5 -15.5q-2 -5 -4.5 -18.5t-5.5 -29t-5 -30t-3 -20.5q0 -5 0.5 -18t1.5 -28t1.5 -27.5t0.5 -16.5q5 0 18.5 1
t28.5 2.5t28.5 2.5t18.5 0q3 0 9.5 -6.5t6.5 -10.5q0 -2 1 -11t1 -15q0 -3 -1 -12t-1 -11l-6 -8q-5 -7 -10 -10q-3 -2 -10 -7t-14.5 -10.5t-14 -10t-8.5 -5.5t-9.5 -3t-16 -5t-16 -5t-9.5 -3q-2 -2 -8.5 -8t-8.5 -9q0 -5 -0.5 -19t-0.5 -30t-0.5 -30t-0.5 -19
q0 -11 0.5 -27.5t0.5 -32t0.5 -27.5t0.5 -13q0 -2 2 -8t5 -13.5t5.5 -15.5t4.5 -13q1 -1 4 -5.5t6 -10.5t5.5 -10.5t2.5 -5.5v-35v-33q0 -2 -6.5 -7.5t-11.5 -8.5q-4 -2 -14 -7.5t-20.5 -10.5t-19.5 -9.5t-12 -5.5h-10h-6q-2 2 -9.5 7.5t-7.5 8.5q-3 5 -9.5 17.5t-6.5 15.5
q0 1 -2 21t-5 46.5t-6 54t-5 44.5q-1 10 -3.5 36t-5.5 55t-5 54.5t-3 36.5zM379 178q0 2 1 12t1 13q5 7 15.5 22.5t23.5 35t27.5 41.5t27.5 41.5t23.5 35t15.5 22.5q1 3 8.5 15.5t16 26.5t15.5 26t9 16q1 1 6.5 8.5t11 15.5t10 15.5t5.5 10.5q8 12 21.5 33.5l27 43
t23.5 37.5t12 17q4 10 20 41.5t34.5 68.5t36 71.5t26.5 49.5q1 4 5.5 15t9.5 24.5t10 26t7 18.5q4 9 9.5 24t10 31t8 28.5t3.5 16.5v33q1 2 6 7.5t10.5 10.5t11 9.5t7.5 5.5q5 3 15.5 6l21 6t19 4.5t10.5 1.5q2 -1 7 -7.5t10.5 -14.5t10 -16.5t6.5 -12.5v-27v-22
q-5 -8 -17 -29t-25.5 -45.5t-25 -46.5t-16.5 -31q-3 -5 -10.5 -19.5t-17.5 -34.5t-21 -43t-21 -43.5t-18 -35.5t-10 -20q-3 -6 -12 -22t-21.5 -38t-27 -47.5t-28.5 -49.5t-25.5 -44t-18.5 -31q-2 -2 -7 -9.5t-10 -16t-9.5 -16t-4.5 -9.5q-3 -5 -13 -21.5t-21.5 -36
t-21.5 -36.5t-13 -23q-1 -1 -5.5 -8t-10 -15l-11 -16t-6.5 -10q-3 -3 -9 -16t-8 -16q-1 -3 -3.5 -10t-5.5 -15t-5 -15t-2 -10q-3 -5 -8.5 -17t-7.5 -15q-5 -8 -17.5 -19.5t-15.5 -13.5q-2 0 -15 -2t-18 -2q-9 0 -21 2t-14 2q-2 2 -8 13.5t-8 19.5q0 2 -1 10.5t-1 13.5z
M981 555q-2 0 -10 -2t-10 -4t-8.5 -8t-15 -14t-16 -15t-10.5 -10q-2 -2 -8 -10.5t-14.5 -19t-16.5 -21.5t-12 -17q-1 -2 -5 -9t-9 -15t-9.5 -15t-7.5 -10h25h25q4 1 14 3t20.5 4.5t19.5 4.5t11 4q3 2 10 8t7 9q1 3 4 14t6 24.5t5 26.5t3 19q0 2 0.5 9.5t0.5 16t0.5 16.5
t0.5 11zM84 469q-2 1 -4 7.5t-4.5 14.5t-4.5 15.5t-3 11.5v10v7q2 8 8 20t8 12h29h37q2 0 9.5 -3t15.5 -6t15 -6t9 -3q1 0 9.5 -0.5t18.5 -0.5t20.5 -0.5t16.5 -0.5q7 0 18.5 0.5t22.5 0.5t19 0.5t10 0.5q1 0 6.5 2t13 5l15 6l12.5 5q3 1 8.5 3.5l11 5t10 5t5.5 3.5
q2 2 8 14t8 18l2 9q0 2 -0.5 2.5t-0.5 2.5q-1 1 -1 3q-2 3 -7 8l-10.5 10.5t-10.5 9.5t-7 5q-2 2 -9 5t-15.5 6t-15.5 5t-9 2h-198l-33 18q-2 0 -5 12.5t-3 20.5q0 4 1 11t2.5 14.5t2.5 13.5t2 8t7 9t14 15t15.5 16t12.5 12q1 1 6 4t10.5 5.5t10 4.5t6.5 2q2 1 12 0.5
t21 -0.5t20.5 -0.5t11.5 0.5q5 0 18.5 5.5t16.5 10.5q1 1 6 5.5t10.5 10t11 9.5t7.5 6q2 5 7 13.5t10.5 16.5t9.5 14t4 7t-4 6t-9.5 10.5t-10.5 10t-7 6.5q-4 0 -8 1q-3 0 -5.5 0.5t-3.5 0.5q-3 0 -9.5 -1t-8.5 -1q-4 -1 -13 -5.5t-19.5 -9.5t-20.5 -10.5t-15 -7.5
q-2 -1 -6.5 -5.5t-9.5 -10.5t-10 -11.5t-6 -7.5q-3 -2 -16.5 -8t-16.5 -8q-6 -1 -10 -1q-5 -1 -9 -1h-6q-5 0 -13.5 1t-10.5 1q-6 2 -18.5 8t-14.5 8q-1 7 -1 13q-1 5 -1 10.5v9.5v8t1 12q0 7 1 15q1 6 3 16.5t4.5 21.5t4.5 19.5t4 10.5q1 1 7 5t14.5 9t16.5 10t12 8
q4 1 11.5 4t15.5 6t14 5t8 2q1 0 13.5 0.5t28 0.5t32 0.5t26.5 0.5q6 0 20 -0.5t29.5 -0.5t29.5 -0.5t19 -0.5q5 -2 17.5 -8t17.5 -9l7 -7t10 -10.5t9.5 -9.5t6.5 -5q1 -1 3 -7.5t4.5 -14.5t4.5 -16.5t4 -13.5v-6v-10q-1 -2 -3 -9t-4.5 -15t-5 -15t-3.5 -10q-3 -7 -10 -23.5
t-15 -34.5t-15 -34.5t-9 -22.5q3 -3 12.5 -10t20 -15.5t20 -15.5t12.5 -10q7 -6 18 -17l21.5 -21.5l18 -18t8.5 -7.5q0 -1 0.5 -6.5t0.5 -12.5t0.5 -14.5t0.5 -11.5q0 -5 -0.5 -14t-0.5 -18t-0.5 -16.5t-0.5 -8.5q-1 -3 -3.5 -10t-5 -15.5t-5 -15.5t-3.5 -10q-1 -1 -5 -4.5
t-9 -8.5l-10 -10l-8 -8q-6 -5 -16.5 -13l-21 -16t-19 -14t-9.5 -6q-6 -3 -22.5 -8.5t-35 -10.5t-35 -10t-22.5 -6q-2 0 -9 -0.5t-16.5 -0.5t-19 -0.5t-14.5 -0.5t-14.5 0.5t-19 0.5t-17 0.5t-8.5 0.5q-7 1 -23.5 6t-35 10t-34.5 10.5t-22 8.5z" />
    <glyph glyph-name="questiondown" unicode="&#xbf;" horiz-adv-x="688" 
d="M383 686h14q48 0 73.5 -22t25.5 -62v-37q0 -34 -19 -55.5t-65 -46.5q-45 0 -113 110q0 36 8 51.5t27 31t49 30.5zM328 324q127 -56 139 -113l3 -38l3 -32l-6 -41q0 -41 -28 -94.5t-73 -117t-102 -136t-114 -153.5q-8 -17 -18.5 -37.5t-10.5 -38.5q0 -23 22 -44.5
t43 -21.5q114 0 186.5 52.5t168.5 201.5q0 25 32 25q29 0 47.5 -21t18.5 -59q0 -41 -14 -55q-84 -108 -151.5 -169t-131.5 -87.5t-156 -26.5l-82 4q-16 1 -39.5 25t-82.5 112q-15 32 -15 60q0 27 15 53q171 211 261.5 361t90.5 221q0 16 -6 28q-46 0 -65 16t-19 68
q0 58 84 58z" />
    <glyph glyph-name="Agrave" unicode="&#xc0;" horiz-adv-x="889" 
d="M582 1303q24 0 38.5 -22.5t14.5 -57.5q-23 -74 -23 -109l6 -74v-75q0 -89 5.5 -157t17 -114.5t28 -69t50.5 -22.5q35 0 102 16q53 -6 53 -63q0 -25 -45 -50.5t-137 -31.5q92 -495 187 -520q18 -8 41 -8q20 0 36 8q16 47 52 47q17 0 31 -13t14 -36q0 -22 -27.5 -61
t-66.5 -65t-80 -26q-103 0 -177.5 148.5t-134.5 488.5q-153 -33 -222 -67t-102.5 -85t-35.5 -130q-17 -122 -43 -175t-68 -53q-39 0 -65.5 22.5t-26.5 51.5q0 35 39 104q44 78 57 134q-4 24 -4 53q0 45 7 71.5t24 57.5q34 66 81 208.5t91 338.5q0 18 19 47t44 64t50 74.5
t37 78.5q0 72 133 72zM287 487q0 -8 8 -8q4 0 244 80q-25 204 -38.5 317.5t-13.5 139.5q0 28 -6 28q-8 0 -20 -28q-91 -223 -132.5 -357t-41.5 -172zM367 1767l73 -4q98 -87 139 -221l23 -72l8 -77q0 -49 -51 -49l-39 14q-23 167 -192 297l-9 65q6 47 48 47z" />
    <glyph glyph-name="Aacute" unicode="&#xc1;" horiz-adv-x="889" 
d="M582 1303q24 0 38.5 -22.5t14.5 -57.5q-23 -74 -23 -109l6 -74v-75q0 -89 5.5 -157t17 -114.5t28 -69t50.5 -22.5q35 0 102 16q53 -6 53 -63q0 -25 -45 -50.5t-137 -31.5q92 -495 187 -520q18 -8 41 -8q20 0 36 8q16 47 52 47q17 0 31 -13t14 -36q0 -22 -27.5 -61
t-66.5 -65t-80 -26q-103 0 -177.5 148.5t-134.5 488.5q-153 -33 -222 -67t-102.5 -85t-35.5 -130q-17 -122 -43 -175t-68 -53q-39 0 -65.5 22.5t-26.5 51.5q0 35 39 104q44 78 57 134q-4 24 -4 53q0 45 7 71.5t24 57.5q34 66 81 208.5t91 338.5q0 18 19 47t44 64t50 74.5
t37 78.5q0 72 133 72zM287 487q0 -8 8 -8q4 0 244 80q-25 204 -38.5 317.5t-13.5 139.5q0 28 -6 28q-8 0 -20 -28q-91 -223 -132.5 -357t-41.5 -172zM761 1774l27 -19q10 -8 10 -29q0 -27 -18 -45q-38 0 -96 -77.5t-113 -198.5q0 -55 -111 -55l-43 77v29
q118 153 203.5 235.5t140.5 82.5z" />
    <glyph glyph-name="Acircumflex" unicode="&#xc2;" horiz-adv-x="889" 
d="M582 1303q24 0 38.5 -22.5t14.5 -57.5q-23 -74 -23 -109l6 -74v-75q0 -89 5.5 -157t17 -114.5t28 -69t50.5 -22.5q35 0 102 16q53 -6 53 -63q0 -25 -45 -50.5t-137 -31.5q92 -495 187 -520q18 -8 41 -8q20 0 36 8q16 47 52 47q17 0 31 -13t14 -36q0 -22 -27.5 -61
t-66.5 -65t-80 -26q-103 0 -177.5 148.5t-134.5 488.5q-153 -33 -222 -67t-102.5 -85t-35.5 -130q-17 -122 -43 -175t-68 -53q-39 0 -65.5 22.5t-26.5 51.5q0 35 39 104q44 78 57 134q-4 24 -4 53q0 45 7 71.5t24 57.5q34 66 81 208.5t91 338.5q0 18 19 47t44 64t50 74.5
t37 78.5q0 72 133 72zM287 487q0 -8 8 -8q4 0 244 80q-25 204 -38.5 317.5t-13.5 139.5q0 28 -6 28q-8 0 -20 -28q-91 -223 -132.5 -357t-41.5 -172zM506 1783q39 0 91.5 -68.5t111.5 -222.5q14 0 37.5 -16.5t39 -42t15.5 -55.5q0 -21 -21 -37t-52 -16t-107 102
q-80 108 -104 119q-77 -113 -118.5 -163t-68.5 -50q-44 0 -61 15.5t-17 43.5q0 32 13 45q96 101 135 170t53 144q16 16 53 32z" />
    <glyph glyph-name="Atilde" unicode="&#xc3;" horiz-adv-x="889" 
d="M582 1303q24 0 38.5 -22.5t14.5 -57.5q-23 -74 -23 -109l6 -74v-75q0 -89 5.5 -157t17 -114.5t28 -69t50.5 -22.5q35 0 102 16q53 -6 53 -63q0 -25 -45 -50.5t-137 -31.5q92 -495 187 -520q18 -8 41 -8q20 0 36 8q16 47 52 47q17 0 31 -13t14 -36q0 -22 -27.5 -61
t-66.5 -65t-80 -26q-103 0 -177.5 148.5t-134.5 488.5q-153 -33 -222 -67t-102.5 -85t-35.5 -130q-17 -122 -43 -175t-68 -53q-39 0 -65.5 22.5t-26.5 51.5q0 35 39 104q44 78 57 134q-4 24 -4 53q0 45 7 71.5t24 57.5q34 66 81 208.5t91 338.5q0 18 19 47t44 64t50 74.5
t37 78.5q0 72 133 72zM287 487q0 -8 8 -8q4 0 244 80q-25 204 -38.5 317.5t-13.5 139.5q0 28 -6 28q-8 0 -20 -28q-91 -223 -132.5 -357t-41.5 -172zM823 1788q28 0 49 -22.5t21 -51.5q0 -15 -6 -24l-3 -15q-22 -109 -81.5 -182.5t-141.5 -95.5q-15 -2 -20 -2l-39 2
q-25 0 -90 46t-84 46h-6q-23 -12 -38.5 -37t-28 -49.5t-22.5 -43t-22 -18.5q-70 0 -70 76q0 71 30.5 114.5t131.5 100.5q18 10 43 10q11 0 68 -10q33 -8 85 -58l27 -24l29 -6q72 0 117 201q0 20 16 31.5t35 11.5z" />
    <glyph glyph-name="Adieresis" unicode="&#xc4;" horiz-adv-x="889" 
d="M582 1303q24 0 38.5 -22.5t14.5 -57.5q-23 -74 -23 -109l6 -74v-75q0 -89 5.5 -157t17 -114.5t28 -69t50.5 -22.5q35 0 102 16q53 -6 53 -63q0 -25 -45 -50.5t-137 -31.5q92 -495 187 -520q18 -8 41 -8q20 0 36 8q16 47 52 47q17 0 31 -13t14 -36q0 -22 -27.5 -61
t-66.5 -65t-80 -26q-103 0 -177.5 148.5t-134.5 488.5q-153 -33 -222 -67t-102.5 -85t-35.5 -130q-17 -122 -43 -175t-68 -53q-39 0 -65.5 22.5t-26.5 51.5q0 35 39 104q44 78 57 134q-4 24 -4 53q0 45 7 71.5t24 57.5q34 66 81 208.5t91 338.5q0 18 19 47t44 64t50 74.5
t37 78.5q0 72 133 72zM287 487q0 -8 8 -8q4 0 244 80q-25 204 -38.5 317.5t-13.5 139.5q0 28 -6 28q-8 0 -20 -28q-91 -223 -132.5 -357t-41.5 -172zM733 1676h27q35 0 77 -80v-80q0 -80 -104 -80q-26 14 -44.5 23.5t-31.5 21.5l-4 115q0 34 80 80zM360 1643h27
q30 -5 58 -24.5t28 -37.5v-24q0 -50 -30.5 -89t-82.5 -53q-35 0 -76 76v76q0 19 19.5 36.5t56.5 39.5z" />
    <glyph glyph-name="Aring" unicode="&#xc5;" horiz-adv-x="889" 
d="M561 1634q223 -52 223 -112v-29q0 -84 -37.5 -142t-113.5 -102q2 -20 2 -26q-23 -74 -23 -109l6 -74v-75q0 -89 5.5 -157t17 -114.5t28 -69t50.5 -22.5q35 0 102 16q53 -6 53 -63q0 -25 -45 -50.5t-137 -31.5q92 -495 187 -520q18 -8 41 -8q20 0 36 8q16 47 52 47
q17 0 31 -13t14 -36q0 -22 -27.5 -61t-66.5 -65t-80 -26q-103 0 -177.5 148.5t-134.5 488.5q-153 -33 -222 -67t-102.5 -85t-35.5 -130q-17 -122 -43 -175t-68 -53q-39 0 -65.5 22.5t-26.5 51.5q0 35 39 104q44 78 57 134q-4 24 -4 53q0 45 7 71.5t24 57.5q34 66 81 208.5
t91 338.5q0 15 20 47t62 91l39 60l-27 -6q-145 0 -168 84q57 179 99.5 251.5t97.5 106t139 33.5zM287 487q0 -8 8 -8q4 0 244 80q-25 204 -38.5 317.5t-13.5 139.5q0 28 -6 28q-8 0 -20 -28q-91 -223 -132.5 -357t-41.5 -172zM393 1327v-57q29 0 93.5 31t158.5 108v29
q0 55 -55 55h-84q-113 -83 -113 -146v-20z" />
    <glyph glyph-name="AE" unicode="&#xc6;" horiz-adv-x="1126" 
d="M512 1204q53 0 96 -12q94 2 293 27l60 4q23 0 30 -4q21 -12 39 -56l10 -20q0 -53 -49 -53q-29 0 -78 24q-43 -2 -85 -12.5t-126 -41.5l-69 -22q0 -81 -4 -155t-4 -150q0 -91 8 -158q83 54 155 54q131 0 177 -101q0 -34 -13 -43.5t-39 -9.5q-56 0 -102 27
q-79 -17 -128.5 -47.5t-49.5 -57.5q56 -215 129 -225l12 -2q31 0 37 2q274 78 332 78q17 0 20.5 -15t3.5 -38q0 -49 -280 -152q-31 -31 -81.5 -53.5t-94.5 -22.5q-56 0 -105 107t-98 321h-27q-232 0 -354 -428h-100q-27 46 -27 103v24q77 97 354 936q12 14 15 48
q2 31 8.5 44.5t17.5 25t26 22t36.5 21.5t54.5 11zM328 549q0 -24 6 -45l8 -2q13 0 45 12l45 14q24 2 50 15t26 30q0 32 -6 66t-6 66q0 89 12 151q0 26 -7.5 38.5t-17.5 12.5q-14 0 -26 -24l-32 -59q-97 -171 -97 -275z" />
    <glyph glyph-name="Ccedilla" unicode="&#xc7;" horiz-adv-x="1016" 
d="M750 -104q0 -18 -10 -56q-12 -46 -13 -76q-88 -88 -156.5 -119.5t-158.5 -31.5q-49 0 -85 26.5t-36 61.5q0 29 22.5 48.5t55.5 19.5q24 0 62 -19q42 -23 63 -26q41 15 58 29t29 41l21 42q0 68 -22 92t-101 45q-28 6 -28 17l2 6l-47 -10q-35 -9 -66 -9q-25 0 -39 9
q-229 131 -229 385q199 634 487 796q40 103 78 103q154 0 225.5 -111t71.5 -344q-25 -75 -60.5 -114t-72.5 -39q-40 0 -65.5 17t-45.5 50q17 41 39.5 79.5t36.5 76.5l2 28l-2 23l-27 123q-3 12 -18 12l-33 -6q-182 -71 -412 -465q-29 -70 -51 -178l-2 -29l2 -49
q0 -102 53.5 -155.5t159.5 -53.5l45 4q617 151 617 283q0 41 51 41t51 -41q0 -227 -571 -383q63 -12 91 -59t28 -84z" />
    <glyph glyph-name="Egrave" unicode="&#xc8;" horiz-adv-x="997" 
d="M135 53q0 62 15.5 271.5t15.5 212.5l24 112q25 118 25 277l-2 82v8q0 51 31 84t84 33q7 -5 24 -5q18 0 90 25q70 21 165 41t294 51q57 0 76.5 -10.5t19.5 -44.5q0 -31 -20.5 -57.5t-48.5 -26.5l-47 2q-179 -11 -266 -39t-179 -90q-32 -32 -59 -120.5t-27 -151.5l2 -58
q65 8 171 50l59 22l46 6q119 18 138 18q41 0 55.5 -9t14.5 -40q0 -40 -27 -47q-38 -27 -70 -39t-77 -14q-90 -7 -195 -59l-23 -11q-90 -39 -111 -58t-28.5 -48.5t-7.5 -112.5q0 -75 9 -108t44 -33q11 0 50.5 9.5t66.5 19.5q50 5 174 25q111 18 145 18q8 0 31.5 -6t36.5 -13
q30 -8 40.5 -17.5t10.5 -39.5q0 -37 -17 -51l-7 -11l-81 -6q-212 -15 -259 -25.5t-166 -58.5q-39 -12 -99 -42q-54 -27 -71 -27q-32 0 -51 32t-19 80zM400 1706l73 -4q98 -87 139 -221l23 -72l8 -77q0 -49 -51 -49l-39 14q-23 167 -192 297l-9 65q6 47 48 47z" />
    <glyph glyph-name="Eacute" unicode="&#xc9;" horiz-adv-x="997" 
d="M135 53q0 62 15.5 271.5t15.5 212.5l24 112q25 118 25 277l-2 82v8q0 51 31 84t84 33q7 -5 24 -5q18 0 90 25q70 21 165 41t294 51q57 0 76.5 -10.5t19.5 -44.5q0 -31 -20.5 -57.5t-48.5 -26.5l-47 2q-179 -11 -266 -39t-179 -90q-32 -32 -59 -120.5t-27 -151.5l2 -58
q65 8 171 50l59 22l46 6q119 18 138 18q41 0 55.5 -9t14.5 -40q0 -40 -27 -47q-38 -27 -70 -39t-77 -14q-90 -7 -195 -59l-23 -11q-90 -39 -111 -58t-28.5 -48.5t-7.5 -112.5q0 -75 9 -108t44 -33q11 0 50.5 9.5t66.5 19.5q50 5 174 25q111 18 145 18q8 0 31.5 -6t36.5 -13
q30 -8 40.5 -17.5t10.5 -39.5q0 -37 -17 -51l-7 -11l-81 -6q-212 -15 -259 -25.5t-166 -58.5q-39 -12 -99 -42q-54 -27 -71 -27q-32 0 -51 32t-19 80zM829 1713l27 -19q10 -8 10 -29q0 -27 -18 -45q-38 0 -96 -77.5t-113 -198.5q0 -55 -111 -55l-43 77v29
q118 153 203.5 235.5t140.5 82.5z" />
    <glyph glyph-name="Ecircumflex" unicode="&#xca;" horiz-adv-x="997" 
d="M135 53q0 62 15.5 271.5t15.5 212.5l24 112q25 118 25 277l-2 82v8q0 51 31 84t84 33q7 -5 24 -5q18 0 90 25q70 21 165 41t294 51q57 0 76.5 -10.5t19.5 -44.5q0 -31 -20.5 -57.5t-48.5 -26.5l-47 2q-179 -11 -266 -39t-179 -90q-32 -32 -59 -120.5t-27 -151.5l2 -58
q65 8 171 50l59 22l46 6q119 18 138 18q41 0 55.5 -9t14.5 -40q0 -40 -27 -47q-38 -27 -70 -39t-77 -14q-90 -7 -195 -59l-23 -11q-90 -39 -111 -58t-28.5 -48.5t-7.5 -112.5q0 -75 9 -108t44 -33q11 0 50.5 9.5t66.5 19.5q50 5 174 25q111 18 145 18q8 0 31.5 -6t36.5 -13
q30 -8 40.5 -17.5t10.5 -39.5q0 -37 -17 -51l-7 -11l-81 -6q-212 -15 -259 -25.5t-166 -58.5q-39 -12 -99 -42q-54 -27 -71 -27q-32 0 -51 32t-19 80zM557 1753q39 0 91.5 -68.5t111.5 -222.5q14 0 37.5 -16.5t39 -42t15.5 -55.5q0 -21 -21 -37t-52 -16t-107 102
q-80 108 -104 119q-77 -113 -118.5 -163t-68.5 -50q-44 0 -61 15.5t-17 43.5q0 32 13 45q96 101 135 170t53 144q16 16 53 32z" />
    <glyph glyph-name="Edieresis" unicode="&#xcb;" horiz-adv-x="997" 
d="M135 53q0 62 15.5 271.5t15.5 212.5l24 112q25 118 25 277l-2 82v8q0 51 31 84t84 33q7 -5 24 -5q18 0 90 25q70 21 165 41t294 51q57 0 76.5 -10.5t19.5 -44.5q0 -31 -20.5 -57.5t-48.5 -26.5l-47 2q-179 -11 -266 -39t-179 -90q-32 -32 -59 -120.5t-27 -151.5l2 -58
q65 8 171 50l59 22l46 6q119 18 138 18q41 0 55.5 -9t14.5 -40q0 -40 -27 -47q-38 -27 -70 -39t-77 -14q-90 -7 -195 -59l-23 -11q-90 -39 -111 -58t-28.5 -48.5t-7.5 -112.5q0 -75 9 -108t44 -33q11 0 50.5 9.5t66.5 19.5q50 5 174 25q111 18 145 18q8 0 31.5 -6t36.5 -13
q30 -8 40.5 -17.5t10.5 -39.5q0 -37 -17 -51l-7 -11l-81 -6q-212 -15 -259 -25.5t-166 -58.5q-39 -12 -99 -42q-54 -27 -71 -27q-32 0 -51 32t-19 80zM760 1582h27q35 0 77 -80v-80q0 -80 -104 -80q-26 14 -44.5 23.5t-31.5 21.5l-4 115q0 34 80 80zM387 1549h27
q30 -5 58 -24.5t28 -37.5v-24q0 -50 -30.5 -89t-82.5 -53q-35 0 -76 76v76q0 19 19.5 36.5t56.5 39.5z" />
    <glyph glyph-name="Igrave" unicode="&#xcc;" horiz-adv-x="420" 
d="M139 133l5 82q18 314 18 477q0 202 -18 342l-9 80q0 52 32 91.5t73 39.5q2 -6 9 -8q35 -13 48 -33t20 -53.5t7 -83.5q0 -66 -31 -205q-2 0 -10.5 -53t-8.5 -82v-100q0 -141 15 -353q37 -28 48 -67.5t11 -112.5q-10 -49 -28 -72.5t-64 -50.5l-28 8q-30 6 -45 14.5
t-25 24.5q-13 36 -19 115zM72 1767l73 -4q98 -87 139 -221l23 -72l8 -77q0 -49 -51 -49l-39 14q-23 167 -192 297l-9 65q6 47 48 47z" />
    <glyph glyph-name="Iacute" unicode="&#xcd;" horiz-adv-x="420" 
d="M139 133l5 82q18 314 18 477q0 202 -18 342l-9 80q0 52 32 91.5t73 39.5q2 -6 9 -8q35 -13 48 -33t20 -53.5t7 -83.5q0 -66 -31 -205q-2 0 -10.5 -53t-8.5 -82v-100q0 -141 15 -353q37 -28 48 -67.5t11 -112.5q-10 -49 -28 -72.5t-64 -50.5l-28 8q-30 6 -45 14.5
t-25 24.5q-13 36 -19 115zM446 1774l27 -19q10 -8 10 -29q0 -27 -18 -45q-38 0 -96 -77.5t-113 -198.5q0 -55 -111 -55l-43 77v29q118 153 203.5 235.5t140.5 82.5z" />
    <glyph glyph-name="Icircumflex" unicode="&#xce;" horiz-adv-x="420" 
d="M139 133l5 82q18 314 18 477q0 202 -18 342l-9 80q0 52 32 91.5t73 39.5q2 -6 9 -8q35 -13 48 -33t20 -53.5t7 -83.5q0 -66 -31 -205q-2 0 -10.5 -53t-8.5 -82v-100q0 -141 15 -353q37 -28 48 -67.5t11 -112.5q-10 -49 -28 -72.5t-64 -50.5l-28 8q-30 6 -45 14.5
t-25 24.5q-13 36 -19 115zM211 1804q39 0 91.5 -68.5t111.5 -222.5q14 0 37.5 -16.5t39 -42t15.5 -55.5q0 -21 -21 -37t-52 -16t-107 102q-80 108 -104 119q-77 -113 -118.5 -163t-68.5 -50q-44 0 -61 15.5t-17 43.5q0 32 13 45q96 101 135 170t53 144q16 16 53 32z" />
    <glyph glyph-name="Idieresis" unicode="&#xcf;" horiz-adv-x="420" 
d="M139 133l5 82q18 314 18 477q0 202 -18 342l-9 80q0 52 32 91.5t73 39.5q2 -6 9 -8q35 -13 48 -33t20 -53.5t7 -83.5q0 -66 -31 -205q-2 0 -10.5 -53t-8.5 -82v-100q0 -141 15 -353q37 -28 48 -67.5t11 -112.5q-10 -49 -28 -72.5t-64 -50.5l-28 8q-30 6 -45 14.5
t-25 24.5q-13 36 -19 115zM403 1604h27q35 0 77 -80v-80q0 -80 -104 -80q-26 14 -44.5 23.5t-31.5 21.5l-4 115q0 34 80 80zM30 1571h27q30 -5 58 -24.5t28 -37.5v-24q0 -50 -30.5 -89t-82.5 -53q-35 0 -76 76v76q0 19 19.5 36.5t56.5 39.5z" />
    <glyph glyph-name="Eth" unicode="&#xd0;" horiz-adv-x="1532" 
d="M561 1247q54 -1 104 -21t95.5 -43.5t86.5 -43t77 -19.5q121 -24 246 -126t307 -337q6 -10 6 -30q0 -18 -6 -25q-51 -95 -169 -204t-255 -187.5t-291 -128.5q-16 0 -44 -19.5t-69 -55.5q-87 -75 -133 -75q-21 0 -39 15q-195 -56 -336 -56q-55 0 -55 56l10 27l10 44
q6 27 48 27q23 0 50 -7t50 -7q250 0 250 252l6 141q0 30 -9 47.5t-48 17.5q-43 0 -145 -16q-103 -16 -122 -16q-14 0 -29.5 16t-15.5 33q0 18 -5 35t-5 32q0 36 51 49t61.5 13h18.5q34 0 65.5 -8.5t65.5 -8.5h56q19 0 32.5 20.5t36.5 61.5q-6 184 -20 274.5t-49 90.5
q-49 0 -117.5 -9.5t-290.5 -54.5q-29 17 -55.5 53.5t-26.5 69.5q0 36 45 76.5t96 40.5q42 0 50 -33l10 -32q42 4 71.5 6.5t54.5 5.5t50 6.5t57 9.5q21 2 29 2l55 -2q22 14 40.5 28.5t43.5 14.5zM645 674q0 -21 37 -21l37 4q102 17 121 17q37 0 84 -84q0 -31 -26.5 -49.5
t-74.5 -18.5q-35 0 -74 6.5t-77 6.5q-28 -5 -36.5 -21t-8.5 -39q0 -63 -5.5 -124t-5.5 -124q10 -55 56 -55q84 48 169.5 87t168 84t159.5 103.5t144 147.5q-42 116 -85 175.5t-115 103.5t-161 83t-161 59.5t-117 20.5q-29 0 -29 -12v-350z" />
    <glyph glyph-name="Ntilde" unicode="&#xd1;" horiz-adv-x="1087" 
d="M961 1315q26 -5 45.5 -22t19.5 -42q-6 -30 -21.5 -63.5t-34 -73t-36 -86t-27.5 -102.5q19 -50 19 -86q-4 -13 -4 -28v-38q0 -92 18.5 -264t54.5 -377q-13 -45 -50 -89t-68 -44q-26 0 -48 45q-206 241 -310 380t-189 292l-22 44l-21 38l6 -99l2 -77l6 -343l6 -233
q-23 -32 -55.5 -54t-63.5 -22q-57 0 -57 60q0 78 13 153q22 135 22 254q0 254 -64 492q-24 16 -24 51q0 26 12 29q34 12 53 29.5t34 34t32 28.5t47 12q36 0 61 -37t45 -137q40 -98 119 -225.5t157 -230t200 -228.5q6 0 6 6l-4 23l-15 160q-26 216 -32.5 281t-6.5 105l1 26
q6 63 6 119q0 74 26.5 156.5t65.5 132.5t76 50zM799 1706q28 0 49 -22.5t21 -51.5q0 -15 -6 -24l-3 -15q-22 -109 -81.5 -182.5t-141.5 -95.5q-15 -2 -20 -2l-39 2q-25 0 -90 46t-84 46h-6q-23 -12 -38.5 -37t-28 -49.5t-22.5 -43t-22 -18.5q-70 0 -70 76q0 71 30.5 114.5
t131.5 100.5q18 10 43 10q11 0 68 -10q33 -8 85 -58l27 -24l29 -6q72 0 117 201q0 20 16 31.5t35 11.5z" />
    <glyph glyph-name="Ograve" unicode="&#xd2;" horiz-adv-x="1094" 
d="M1047 545q-163 -559 -670 -559q-118 0 -191 105.5t-108 334.5l18 119q197 612 336 612q29 39 67 62.5t74 23.5q52 0 93 -45q168 -186 274.5 -369t106.5 -284zM221 483q27 -205 76.5 -291t136.5 -86q125 0 381 189q72 158 72 321q0 190 -332 385q-35 23 -84 23l-33 -4
q-142 -235 -217 -537zM367 1746l73 -4q98 -87 139 -221l23 -72l8 -77q0 -49 -51 -49l-39 14q-23 167 -192 297l-9 65q6 47 48 47z" />
    <glyph glyph-name="Oacute" unicode="&#xd3;" horiz-adv-x="1094" 
d="M1047 545q-163 -559 -670 -559q-118 0 -191 105.5t-108 334.5l18 119q197 612 336 612q29 39 67 62.5t74 23.5q52 0 93 -45q168 -186 274.5 -369t106.5 -284zM221 483q27 -205 76.5 -291t136.5 -86q125 0 381 189q72 158 72 321q0 190 -332 385q-35 23 -84 23l-33 -4
q-142 -235 -217 -537zM823 1753l27 -19q10 -8 10 -29q0 -27 -18 -45q-38 0 -96 -77.5t-113 -198.5q0 -55 -111 -55l-43 77v29q118 153 203.5 235.5t140.5 82.5z" />
    <glyph glyph-name="Ocircumflex" unicode="&#xd4;" horiz-adv-x="1094" 
d="M1047 545q-163 -559 -670 -559q-118 0 -191 105.5t-108 334.5l18 119q197 612 336 612q29 39 67 62.5t74 23.5q52 0 93 -45q168 -186 274.5 -369t106.5 -284zM221 483q27 -205 76.5 -291t136.5 -86q125 0 381 189q72 158 72 321q0 190 -332 385q-35 23 -84 23l-33 -4
q-142 -235 -217 -537zM546 1759q39 0 91.5 -68.5t111.5 -222.5q14 0 37.5 -16.5t39 -42t15.5 -55.5q0 -21 -21 -37t-52 -16t-107 102q-80 108 -104 119q-77 -113 -118.5 -163t-68.5 -50q-44 0 -61 15.5t-17 43.5q0 32 13 45q96 101 135 170t53 144q16 16 53 32z" />
    <glyph glyph-name="Otilde" unicode="&#xd5;" horiz-adv-x="1094" 
d="M1047 545q-163 -559 -670 -559q-118 0 -191 105.5t-108 334.5l18 119q197 612 336 612q29 39 67 62.5t74 23.5q52 0 93 -45q168 -186 274.5 -369t106.5 -284zM221 483q27 -205 76.5 -291t136.5 -86q125 0 381 189q72 158 72 321q0 190 -332 385q-35 23 -84 23l-33 -4
q-142 -235 -217 -537zM834 1768q28 0 49 -22.5t21 -51.5q0 -15 -6 -24l-3 -15q-22 -109 -81.5 -182.5t-141.5 -95.5q-15 -2 -20 -2l-39 2q-25 0 -90 46t-84 46h-6q-23 -12 -38.5 -37t-28 -49.5t-22.5 -43t-22 -18.5q-70 0 -70 76q0 71 30.5 114.5t131.5 100.5q18 10 43 10
q11 0 68 -10q33 -8 85 -58l27 -24l29 -6q72 0 117 201q0 20 16 31.5t35 11.5z" />
    <glyph glyph-name="Odieresis" unicode="&#xd6;" horiz-adv-x="1094" 
d="M1047 545q-163 -559 -670 -559q-118 0 -191 105.5t-108 334.5l18 119q197 612 336 612q29 39 67 62.5t74 23.5q52 0 93 -45q168 -186 274.5 -369t106.5 -284zM221 483q27 -205 76.5 -291t136.5 -86q125 0 381 189q72 158 72 321q0 190 -332 385q-35 23 -84 23l-33 -4
q-142 -235 -217 -537zM739 1608h27q35 0 77 -80v-80q0 -80 -104 -80q-26 14 -44.5 23.5t-31.5 21.5l-4 115q0 34 80 80zM366 1575h27q30 -5 58 -24.5t28 -37.5v-24q0 -50 -30.5 -89t-82.5 -53q-35 0 -76 76v76q0 19 19.5 36.5t56.5 39.5z" />
    <glyph glyph-name="multiply" unicode="&#xd7;" horiz-adv-x="905" 
d="M131 66l18 45l21 47l35 71l18 19l16 22q72 101 91.5 136t19.5 45v34l-18 37l-19 19l-73 53l-37 18l-56 58q-2 1 -5 7t-8 18.5t-5 49.5l2 33q2 7 15.5 20.5t21.5 16.5l19 1l26 1l47 -2l33 -37l80 -114l34 -34q27 -27 33 -27l6 -1l4 1l5 1q21 21 77 119q10 13 31 76l6 16
q0 3 19 16l35 19l20 2l9 -1l7 -1q9 -3 31 -23.5t25 -31.5l4 -35l-4 -37l-116 -128q-48 -51 -57.5 -69.5t-9.5 -21.5q0 -4 7 -17.5t12 -19.5q87 -87 108 -111l76 -53l9 -7q35 -22 42 -32q7 -3 21 -35v-36q-2 -2 -6.5 -7t-10 -11t-11 -11t-9.5 -6l-4 -1l-6 -1l-5 1l-3 1
q-9 2 -37.5 15.5t-36.5 19.5q0 6 -19 20l-58 42l-124 101l-18 4l-19 -4l-34 -34l-37 -58q-6 -4 -30 -34.5t-26 -36.5l-92 -127q-6 -10 -27 -31t-26 -23l-10 -4l-6 2l-5 2l-7 13l-9 20v21z" />
    <glyph glyph-name="Oslash" unicode="&#xd8;" horiz-adv-x="1092" 
d="M1026 1409h59q56 0 56 -86q0 -34 -24 -66.5t-59.5 -65t-76 -65t-72.5 -65.5l-28 -57q7 -20 25.5 -44t42.5 -55t52 -71t54 -91v-143q-248 -606 -693 -606l-110 16q-127 -265 -196.5 -448t-82.5 -297q-31 0 -44 10t-13 18q0 169 58.5 341t183.5 386v86q-99 128 -99 263v57
q145 573 447 780q105 0 287 -114q102 159 159 238t74 79zM188 399q29 -176 86 -176l406 752h-31q-48 29 -114 29h-29q-318 -279 -318 -605zM332 137l59 -31q244 0 518 408q31 46 31 113v59q-102 172 -147 172q-146 -98 -461 -721z" />
    <glyph glyph-name="Ugrave" unicode="&#xd9;" horiz-adv-x="1036" 
d="M698 360q-13 0 -91 -123l-34 -51q-15 -15 -23 -32t-18 -35q-77 -97 -112 -120.5t-90 -23.5q-83 0 -92 31q-16 16 -50 180.5t-34 219.5l20 221q0 53 6 83q12 58 14.5 90.5t2.5 88.5l-2 133q0 25 -11 68q-12 42 -12 57q0 38 20.5 79.5t40.5 41.5q60 0 97 -28.5t37 -78.5
l-5 -51l-11 -91q-22 -178 -32 -239l-18 -276l18 -221q0 -28 19 -69.5t33 -41.5q20 0 80 61.5t102 126.5l6 15q36 67 80.5 162t54.5 131q0 15 7 45q34 156 34 209q0 26 -2 34l-2 39v56q0 57 20.5 81.5t84.5 24.5q32 0 51.5 -21t19.5 -81l-2 -76q-12 -94 -27 -171
q-32 -164 -32 -256v-169q0 -49 20 -116t45 -103q12 0 57 19l15 3q9 0 31 -27t22 -40q-29 -86 -67.5 -133t-79.5 -47q-58 0 -82.5 21.5t-42 81.5t-36.5 177q-17 102 -30 141zM377 1685l73 -4q98 -87 139 -221l23 -72l8 -77q0 -49 -51 -49l-39 14q-23 167 -192 297l-9 65
q6 47 48 47z" />
    <glyph glyph-name="Uacute" unicode="&#xda;" horiz-adv-x="1036" 
d="M698 360q-13 0 -91 -123l-34 -51q-15 -15 -23 -32t-18 -35q-77 -97 -112 -120.5t-90 -23.5q-83 0 -92 31q-16 16 -50 180.5t-34 219.5l20 221q0 53 6 83q12 58 14.5 90.5t2.5 88.5l-2 133q0 25 -11 68q-12 42 -12 57q0 38 20.5 79.5t40.5 41.5q60 0 97 -28.5t37 -78.5
l-5 -51l-11 -91q-22 -178 -32 -239l-18 -276l18 -221q0 -28 19 -69.5t33 -41.5q20 0 80 61.5t102 126.5l6 15q36 67 80.5 162t54.5 131q0 15 7 45q34 156 34 209q0 26 -2 34l-2 39v56q0 57 20.5 81.5t84.5 24.5q32 0 51.5 -21t19.5 -81l-2 -76q-12 -94 -27 -171
q-32 -164 -32 -256v-169q0 -49 20 -116t45 -103q12 0 57 19l15 3q9 0 31 -27t22 -40q-29 -86 -67.5 -133t-79.5 -47q-58 0 -82.5 21.5t-42 81.5t-36.5 177q-17 102 -30 141zM833 1692l27 -19q10 -8 10 -29q0 -27 -18 -45q-38 0 -96 -77.5t-113 -198.5q0 -55 -111 -55l-43 77
v29q118 153 203.5 235.5t140.5 82.5z" />
    <glyph glyph-name="Ucircumflex" unicode="&#xdb;" horiz-adv-x="1036" 
d="M698 360q-13 0 -91 -123l-34 -51q-15 -15 -23 -32t-18 -35q-77 -97 -112 -120.5t-90 -23.5q-83 0 -92 31q-16 16 -50 180.5t-34 219.5l20 221q0 53 6 83q12 58 14.5 90.5t2.5 88.5l-2 133q0 25 -11 68q-12 42 -12 57q0 38 20.5 79.5t40.5 41.5q60 0 97 -28.5t37 -78.5
l-5 -51l-11 -91q-22 -178 -32 -239l-18 -276l18 -221q0 -28 19 -69.5t33 -41.5q20 0 80 61.5t102 126.5l6 15q36 67 80.5 162t54.5 131q0 15 7 45q34 156 34 209q0 26 -2 34l-2 39v56q0 57 20.5 81.5t84.5 24.5q32 0 51.5 -21t19.5 -81l-2 -76q-12 -94 -27 -171
q-32 -164 -32 -256v-169q0 -49 20 -116t45 -103q12 0 57 19l15 3q9 0 31 -27t22 -40q-29 -86 -67.5 -133t-79.5 -47q-58 0 -82.5 21.5t-42 81.5t-36.5 177q-17 102 -30 141zM553 1763q39 0 91.5 -68.5t111.5 -222.5q14 0 37.5 -16.5t39 -42t15.5 -55.5q0 -21 -21 -37
t-52 -16t-107 102q-80 108 -104 119q-77 -113 -118.5 -163t-68.5 -50q-44 0 -61 15.5t-17 43.5q0 32 13 45q96 101 135 170t53 144q16 16 53 32z" />
    <glyph glyph-name="Udieresis" unicode="&#xdc;" horiz-adv-x="1036" 
d="M698 360q-13 0 -91 -123l-34 -51q-15 -15 -23 -32t-18 -35q-77 -97 -112 -120.5t-90 -23.5q-83 0 -92 31q-16 16 -50 180.5t-34 219.5l20 221q0 53 6 83q12 58 14.5 90.5t2.5 88.5l-2 133q0 25 -11 68q-12 42 -12 57q0 38 20.5 79.5t40.5 41.5q60 0 97 -28.5t37 -78.5
l-5 -51l-11 -91q-22 -178 -32 -239l-18 -276l18 -221q0 -28 19 -69.5t33 -41.5q20 0 80 61.5t102 126.5l6 15q36 67 80.5 162t54.5 131q0 15 7 45q34 156 34 209q0 26 -2 34l-2 39v56q0 57 20.5 81.5t84.5 24.5q32 0 51.5 -21t19.5 -81l-2 -76q-12 -94 -27 -171
q-32 -164 -32 -256v-169q0 -49 20 -116t45 -103q12 0 57 19l15 3q9 0 31 -27t22 -40q-29 -86 -67.5 -133t-79.5 -47q-58 0 -82.5 21.5t-42 81.5t-36.5 177q-17 102 -30 141zM748 1614h27q35 0 77 -80v-80q0 -80 -104 -80q-26 14 -44.5 23.5t-31.5 21.5l-4 115q0 34 80 80z
M375 1581h27q30 -5 58 -24.5t28 -37.5v-24q0 -50 -30.5 -89t-82.5 -53q-35 0 -76 76v76q0 19 19.5 36.5t56.5 39.5z" />
    <glyph glyph-name="Yacute" unicode="&#xdd;" horiz-adv-x="942" 
d="M301 -307q0 28 51 69h6q13 0 55 -12l44 -12h65q9 0 61 -23q66 -29 111 -45l23 45l4 123v31q0 131 -23 338.5t-53 345.5l-101 -101q-60 -60 -106.5 -84t-128.5 -34q-30 3 -42.5 13t-21.5 22.5t-21.5 24.5t-41.5 18q-17 3 -26 32t-9 105v14l11 108q16 132 19 182t3 108
q0 45 -4 79t-4 60q0 53 29 82l86 14q8 0 21.5 -15.5t13.5 -27.5v-10q0 -73 -20 -200q-21 -128 -21 -179l4 -95q4 -112 12 -126q8 -17 25 -31t28 -14q30 0 69 19.5t91.5 69t91.5 115.5q47 64 47 205v228q0 68 5.5 92t19.5 40t43 29q36 0 56 -16.5t29 -44.5t9 -98l-2 -117
l-25 -207q0 -156 4.5 -245.5t20.5 -233.5q0 -21 7 -72q38 -277 38 -409l25 -220q0 -67 -31 -107t-84 -40q-21 0 -85 32q-125 62 -162.5 75.5t-63 21t-33.5 8.5q-49 0 -84 20t-35 50zM720 1733l27 -19q10 -8 10 -29q0 -27 -18 -45q-38 0 -96 -77.5t-113 -198.5
q0 -55 -111 -55l-43 77v29q118 153 203.5 235.5t140.5 82.5z" />
    <glyph glyph-name="Thorn" unicode="&#xde;" horiz-adv-x="1055" 
d="M336 1382q55 0 55 -84l-2 -24l-9 -89q-15 -131 -15 -194q81 15 173.5 25t250.5 21l133 12q44 -16 68 -31.5t34 -32t10 -49.5q0 -252 -643 -504l-4 -67l-2 -78q0 -38 10.5 -80t42 -143.5t37.5 -118.5q0 -41 -15 -62.5t-59 -21.5q-50 0 -75.5 31t-40.5 105t-33 365
q-31 -15 -57 -32t-51 -31t-51 -23.5t-56 -9.5q-8 11 -8 29q0 146 194 194q22 13 29 56q-29 99 -29 278q-82 -26 -166 -26q-57 0 -57 55q0 51 26.5 73t85.5 25q55 2 83 31t28 94q-6 72 -17 130t-11 93q19 84 141 84zM362 692q0 -56 10 -87.5t48 -31.5q423 176 446 279
q0 31 -10 43t-18 12q-296 -17 -384.5 -36.5t-88.5 -53.5z" />
    <glyph glyph-name="germandbls" unicode="&#xdf;" horiz-adv-x="907" 
d="M627 1458q131 -72 188 -173t57 -238l7 -84q0 -43 -57 -140t-158 -213q49 -30 91 -69t69.5 -77.5t27.5 -55.5l2 -43q0 -14 -2 -19q-52 -183 -144 -259.5t-235 -76.5h-31q-32 0 -56 26.5t-24 65.5q15 57 31 74t58 31l39 -7q92 -22 133 -22q26 0 34 2q41 82 41 146
q0 57 -49 119.5t-110 62.5q-22 0 -31 -2q-53 -39 -96 -39t-43 45q0 47 29 85t111 81q72 37 97 57q150 150 150 277q-45 152 -96 227.5t-113 75.5q-324 -248 -324 -701q0 -373 88 -489q0 -78 -18.5 -109.5t-47.5 -54t-63 -22.5l-18 2q-43 5 -56.5 20t-13.5 47q0 27 17 74
q19 55 22 72q-31 430 -31 612q97 354 224.5 523t300.5 169z" />
    <glyph glyph-name="agrave" unicode="&#xe0;" 
d="M551 860q53 0 101.5 -41.5t56.5 -97.5q-45 -89 -75 -173t-30 -133q0 -71 2 -85q0 -72 58 -168q17 5 29 13.5t26 14.5q24 0 39.5 -17t15.5 -38q0 -44 -110 -112q-27 -11 -41 -11q-18 0 -43 11q-56 20 -79.5 78t-31.5 145q-213 -223 -336 -223q-14 0 -28.5 -4.5t-28.5 -4.5
q-18 0 -27 9q-11 17 -20 50t-9 68v21q136 426 504 698h27zM162 162q307 156 307 475q-307 -249 -307 -475zM320 1384l73 -4q98 -87 139 -221l23 -72l8 -77q0 -49 -51 -49l-39 14q-23 167 -192 297l-9 65q6 47 48 47z" />
    <glyph glyph-name="aacute" unicode="&#xe1;" 
d="M551 860q53 0 101.5 -41.5t56.5 -97.5q-45 -89 -75 -173t-30 -133q0 -71 2 -85q0 -72 58 -168q17 5 29 13.5t26 14.5q24 0 39.5 -17t15.5 -38q0 -44 -110 -112q-27 -11 -41 -11q-18 0 -43 11q-56 20 -79.5 78t-31.5 145q-213 -223 -336 -223q-14 0 -28.5 -4.5t-28.5 -4.5
q-18 0 -27 9q-11 17 -20 50t-9 68v21q136 426 504 698h27zM162 162q307 156 307 475q-307 -249 -307 -475zM718 1391l27 -19q10 -8 10 -29q0 -27 -18 -45q-38 0 -96 -77.5t-113 -198.5q0 -55 -111 -55l-43 77v29q118 153 203.5 235.5t140.5 82.5z" />
    <glyph glyph-name="acircumflex" unicode="&#xe2;" 
d="M551 860q53 0 101.5 -41.5t56.5 -97.5q-45 -89 -75 -173t-30 -133q0 -71 2 -85q0 -72 58 -168q17 5 29 13.5t26 14.5q24 0 39.5 -17t15.5 -38q0 -44 -110 -112q-27 -11 -41 -11q-18 0 -43 11q-56 20 -79.5 78t-31.5 145q-213 -223 -336 -223q-14 0 -28.5 -4.5t-28.5 -4.5
q-18 0 -27 9q-11 17 -20 50t-9 68v21q136 426 504 698h27zM162 162q307 156 307 475q-307 -249 -307 -475zM479 1403q39 0 91.5 -68.5t111.5 -222.5q14 0 37.5 -16.5t39 -42t15.5 -55.5q0 -21 -21 -37t-52 -16t-107 102q-80 108 -104 119q-77 -113 -118.5 -163t-68.5 -50
q-44 0 -61 15.5t-17 43.5q0 32 13 45q96 101 135 170t53 144q16 16 53 32z" />
    <glyph glyph-name="atilde" unicode="&#xe3;" 
d="M551 860q53 0 101.5 -41.5t56.5 -97.5q-45 -89 -75 -173t-30 -133q0 -71 2 -85q0 -72 58 -168q17 5 29 13.5t26 14.5q24 0 39.5 -17t15.5 -38q0 -44 -110 -112q-27 -11 -41 -11q-18 0 -43 11q-56 20 -79.5 78t-31.5 145q-213 -223 -336 -223q-14 0 -28.5 -4.5t-28.5 -4.5
q-18 0 -27 9q-11 17 -20 50t-9 68v21q136 426 504 698h27zM162 162q307 156 307 475q-307 -249 -307 -475zM737 1407q28 0 49 -22.5t21 -51.5q0 -15 -6 -24l-3 -15q-22 -109 -81.5 -182.5t-141.5 -95.5q-15 -2 -20 -2l-39 2q-25 0 -90 46t-84 46h-6q-23 -12 -38.5 -37
t-28 -49.5t-22.5 -43t-22 -18.5q-70 0 -70 76q0 71 30.5 114.5t131.5 100.5q18 10 43 10q11 0 68 -10q33 -8 85 -58l27 -24l29 -6q72 0 117 201q0 20 16 31.5t35 11.5z" />
    <glyph glyph-name="adieresis" unicode="&#xe4;" 
d="M551 860q53 0 101.5 -41.5t56.5 -97.5q-45 -89 -75 -173t-30 -133q0 -71 2 -85q0 -72 58 -168q17 5 29 13.5t26 14.5q24 0 39.5 -17t15.5 -38q0 -44 -110 -112q-27 -11 -41 -11q-18 0 -43 11q-56 20 -79.5 78t-31.5 145q-213 -223 -336 -223q-14 0 -28.5 -4.5t-28.5 -4.5
q-18 0 -27 9q-11 17 -20 50t-9 68v21q136 426 504 698h27zM162 162q307 156 307 475q-307 -249 -307 -475zM649 1303h27q35 0 77 -80v-80q0 -80 -104 -80q-26 14 -44.5 23.5t-31.5 21.5l-4 115q0 34 80 80zM276 1270h27q30 -5 58 -24.5t28 -37.5v-24q0 -50 -30.5 -89
t-82.5 -53q-35 0 -76 76v76q0 19 19.5 36.5t56.5 39.5z" />
    <glyph glyph-name="aring" unicode="&#xe5;" 
d="M551 860q53 0 101.5 -41.5t56.5 -97.5q-45 -89 -75 -173t-30 -133q0 -71 2 -85q0 -72 58 -168q17 5 29 13.5t26 14.5q24 0 39.5 -17t15.5 -38q0 -44 -110 -112q-27 -11 -41 -11q-18 0 -43 11q-56 20 -79.5 78t-31.5 145q-213 -223 -336 -223q-14 0 -28.5 -4.5t-28.5 -4.5
q-18 0 -27 9q-11 17 -20 50t-9 68v21q136 426 504 698h27zM162 162q307 156 307 475q-307 -249 -307 -475zM532 1417q224 -52 224 -112v-29q0 -125 -92 -202.5t-300 -131.5q-145 0 -168 84q57 179 99.5 251.5t97.5 106t139 33.5zM364 1110v-57q29 0 93.5 31t158.5 108v29
q0 55 -55 55h-84q-113 -83 -113 -146v-20z" />
    <glyph glyph-name="ae" unicode="&#xe6;" horiz-adv-x="1061" 
d="M506 885l29 -4q31 -12 43 -39t12 -74q3 -26 6.5 -37.5t11.5 -11.5q9 0 25 13q87 73 182 93l27 2l26 -2q26 -4 74.5 -33.5t83.5 -65.5t35 -54v-7q0 -20 -84.5 -125.5t-182 -151.5t-233.5 -46q-4 -16 -4 -33l4 -69q0 -36 4 -69t27 -55t65 -22q25 0 43 4l84 58q36 22 64 22
q20 0 20 -18v-4q-49 -109 -116 -153t-191 -44q-64 33 -100.5 93.5t-36.5 129.5q-115 -101 -175 -134.5t-106 -33.5q-30 0 -62 25.5t-50 58.5q-6 25 -6 47l6 95q230 465 448 641q12 4 27 4zM580 508q35 0 94 -31q65 0 111 23t72 59t26 70v20q-7 17 -30.5 27t-51.5 10
q-71 -20 -120.5 -50t-75 -64t-25.5 -64zM172 182q8 -10 27 -10q33 0 89 51t105 127q21 40 29 83t12.5 82t9 72t19.5 54l-12 16q-279 -269 -279 -475z" />
    <glyph glyph-name="ccedilla" unicode="&#xe7;" horiz-adv-x="733" 
d="M596 -53l-3 -27q-18 -82 -20 -104q-91 -91 -158.5 -121.5t-156.5 -30.5q-47 0 -84 26t-37 62q0 29 22.5 48.5t55.5 19.5q23 0 62 -19q45 -23 63 -26q41 15 58 29t30 41l21 42q0 62 -18.5 86.5t-90.5 46.5h-29q-211 0 -252 281q0 416 420 557h56q42 0 110 -110v-111
q0 -57 -55 -57h-55l-111 112h-29q-194 -176 -194 -336v-84q15 -69 141 -114q29 -5 58 -5q39 0 79 9q238 84 320 84l14 -51q-34 -77 -268 -136q23 -23 37 -53.5t14 -58.5z" />
    <glyph glyph-name="egrave" unicode="&#xe8;" horiz-adv-x="750" 
d="M526 862q33 0 60 -8q37 0 78 -78q0 -14 6 -30.5t6 -28.5q0 -273 -453 -338q-10 -38 -10 -84t10 -84q0 -19 27 -47.5t96 -79.5q50 -10 82 -10q40 0 86 10q63 0 147.5 35t176.5 121h28v-29q-92 -252 -559 -252q-252 96 -252 307q0 309 420 588q22 8 51 8zM297 516l50 -2
q10 0 63 33t83.5 63t36.5 47q7 15 7 29q0 19 -7 29h-26q-102 -63 -152 -108t-55 -91zM277 1384l73 -4q98 -87 139 -221l23 -72l8 -77q0 -49 -51 -49l-39 14q-23 167 -192 297l-9 65q6 47 48 47z" />
    <glyph glyph-name="eacute" unicode="&#xe9;" horiz-adv-x="750" 
d="M526 862q33 0 60 -8q37 0 78 -78q0 -14 6 -30.5t6 -28.5q0 -273 -453 -338q-10 -38 -10 -84t10 -84q0 -19 27 -47.5t96 -79.5q50 -10 82 -10q40 0 86 10q63 0 147.5 35t176.5 121h28v-29q-92 -252 -559 -252q-252 96 -252 307q0 309 420 588q22 8 51 8zM297 516l50 -2
q10 0 63 33t83.5 63t36.5 47q7 15 7 29q0 19 -7 29h-26q-102 -63 -152 -108t-55 -91zM682 1391l27 -19q10 -8 10 -29q0 -27 -18 -45q-38 0 -96 -77.5t-113 -198.5q0 -55 -111 -55l-43 77v29q118 153 203.5 235.5t140.5 82.5z" />
    <glyph glyph-name="ecircumflex" unicode="&#xea;" horiz-adv-x="750" 
d="M526 862q33 0 60 -8q37 0 78 -78q0 -14 6 -30.5t6 -28.5q0 -273 -453 -338q-10 -38 -10 -84t10 -84q0 -19 27 -47.5t96 -79.5q50 -10 82 -10q40 0 86 10q63 0 147.5 35t176.5 121h28v-29q-92 -252 -559 -252q-252 96 -252 307q0 309 420 588q22 8 51 8zM297 516l50 -2
q10 0 63 33t83.5 63t36.5 47q7 15 7 29q0 19 -7 29h-26q-102 -63 -152 -108t-55 -91zM415 1421q39 0 91.5 -68.5t111.5 -222.5q14 0 37.5 -16.5t39 -42t15.5 -55.5q0 -21 -21 -37t-52 -16t-107 102q-80 108 -104 119q-77 -113 -118.5 -163t-68.5 -50q-44 0 -61 15.5
t-17 43.5q0 32 13 45q96 101 135 170t53 144q16 16 53 32z" />
    <glyph glyph-name="edieresis" unicode="&#xeb;" horiz-adv-x="750" 
d="M526 862q33 0 60 -8q37 0 78 -78q0 -14 6 -30.5t6 -28.5q0 -273 -453 -338q-10 -38 -10 -84t10 -84q0 -19 27 -47.5t96 -79.5q50 -10 82 -10q40 0 86 10q63 0 147.5 35t176.5 121h28v-29q-92 -252 -559 -252q-252 96 -252 307q0 309 420 588q22 8 51 8zM297 516l50 -2
q10 0 63 33t83.5 63t36.5 47q7 15 7 29q0 19 -7 29h-26q-102 -63 -152 -108t-55 -91zM614 1303h27q35 0 77 -80v-80q0 -80 -104 -80q-26 14 -44.5 23.5t-31.5 21.5l-4 115q0 34 80 80zM241 1270h27q30 -5 58 -24.5t28 -37.5v-24q0 -50 -30.5 -89t-82.5 -53q-35 0 -76 76v76
q0 19 19.5 36.5t56.5 39.5z" />
    <glyph glyph-name="igrave" unicode="&#xec;" horiz-adv-x="375" 
d="M227 829q35 -17 35 -53q0 -29 -22 -57q14 -35 14 -82l-3 -55q-18 -145 -18 -209l21 -101q14 -69 45 -110q0 -69 -11 -104.5t-36 -50.5t-82 -15q-35 21 -55 57q0 28 28 82q-12 45 -14 113q-9 219 -15.5 281.5t-18 111.5t-27.5 86q27 56 64.5 81t94.5 25zM9 1384l73 -4
q98 -87 139 -221l23 -72l8 -77q0 -49 -51 -49l-39 14q-23 167 -192 297l-9 65q6 47 48 47z" />
    <glyph glyph-name="iacute" unicode="&#xed;" horiz-adv-x="375" 
d="M227 829q35 -17 35 -53q0 -29 -22 -57q14 -35 14 -82l-3 -55q-18 -145 -18 -209l21 -101q14 -69 45 -110q0 -69 -11 -104.5t-36 -50.5t-82 -15q-35 21 -55 57q0 28 28 82q-12 45 -14 113q-9 219 -15.5 281.5t-18 111.5t-27.5 86q27 56 64.5 81t94.5 25zM382 1391l27 -19
q10 -8 10 -29q0 -27 -18 -45q-38 0 -96 -77.5t-113 -198.5q0 -55 -111 -55l-43 77v29q118 153 203.5 235.5t140.5 82.5z" />
    <glyph glyph-name="icircumflex" unicode="&#xee;" horiz-adv-x="375" 
d="M227 829q35 -17 35 -53q0 -29 -22 -57q14 -35 14 -82l-3 -55q-18 -145 -18 -209l21 -101q14 -69 45 -110q0 -69 -11 -104.5t-36 -50.5t-82 -15q-35 21 -55 57q0 28 28 82q-12 45 -14 113q-9 219 -15.5 281.5t-18 111.5t-27.5 86q27 56 64.5 81t94.5 25zM155 1421
q39 0 91.5 -68.5t111.5 -222.5q14 0 37.5 -16.5t39 -42t15.5 -55.5q0 -21 -21 -37t-52 -16t-107 102q-80 108 -104 119q-77 -113 -118.5 -163t-68.5 -50q-44 0 -61 15.5t-17 43.5q0 32 13 45q96 101 135 170t53 144q16 16 53 32z" />
    <glyph glyph-name="idieresis" unicode="&#xef;" horiz-adv-x="375" 
d="M227 829q35 -17 35 -53q0 -29 -22 -57q14 -35 14 -82l-3 -55q-18 -145 -18 -209l21 -101q14 -69 45 -110q0 -69 -11 -104.5t-36 -50.5t-82 -15q-35 21 -55 57q0 28 28 82q-12 45 -14 113q-9 219 -15.5 281.5t-18 111.5t-27.5 86q27 56 64.5 81t94.5 25zM340 1303h27
q35 0 77 -80v-80q0 -80 -104 -80q-26 14 -44.5 23.5t-31.5 21.5l-4 115q0 34 80 80zM-33 1270h27q30 -5 58 -24.5t28 -37.5v-24q0 -50 -30.5 -89t-82.5 -53q-35 0 -76 76v76q0 19 19.5 36.5t56.5 39.5z" />
    <glyph glyph-name="eth" unicode="&#xf0;" horiz-adv-x="811" 
d="M264 1470q207 -99 352 -264q75 22 146.5 41t146.5 47q58 -9 58 -57q-75 -45 -148.5 -87t-144.5 -91v-27q0 -34 13 -68.5t54 -97.5l11 -18v-6q4 -32 4 -70q0 -63 -23 -63q6 -32 6 -74q0 -99 -57.5 -276t-140 -270t-179.5 -93q-21 0 -34 4t-35 4q-234 0 -234 236
q207 555 557 555v61q-57 93 -57 145q-9 19 -22 19q-18 0 -39 -19q-108 -88 -205 -88q-39 0 -39 39q0 20 5 42.5t5 37.5q22 14 52.5 28t58.5 28t47.5 27.5t19.5 25.5q0 36 -266 241v31q0 57 88 57zM205 240q28 -52 28 -88q24 -9 86 -9q275 0 297 506q-7 13 -20 13
q-14 0 -37 -13q-22 -37 -51 -58.5t-68 -37.5q-112 -49 -173.5 -131.5t-61.5 -181.5z" />
    <glyph glyph-name="ntilde" unicode="&#xf1;" horiz-adv-x="811" 
d="M180 897h27l80 -53l-27 -135v-187l-14 -53l-8 -55q57 169 290 430h82l27 -135v-322q0 -144 117 -199h55q82 0 172 72q55 -9 55 -53v-29q-48 -92 -213 -139q-348 0 -348 510l-2 24q-182 -277 -293 -643h-53q-64 0 -82 136q27 132 45 165q19 41 23 125l14 140v213l-29 135z
M682 1446q28 0 49 -22.5t21 -51.5q0 -15 -6 -24l-3 -15q-22 -109 -81.5 -182.5t-141.5 -95.5q-15 -2 -20 -2l-39 2q-25 0 -90 46t-84 46h-6q-23 -12 -38.5 -37t-28 -49.5t-22.5 -43t-22 -18.5q-70 0 -70 76q0 71 30.5 114.5t131.5 100.5q18 10 43 10q11 0 68 -10
q33 -8 85 -58l27 -24l29 -6q72 0 117 201q0 20 16 31.5t35 11.5z" />
    <glyph glyph-name="ograve" unicode="&#xf2;" horiz-adv-x="834" 
d="M774 387q-18 -120 -182 -301q-114 -61 -197 -78h-8q-52 -10 -96 -10q-42 0 -64 10q-168 102 -168 340q0 87 58.5 185t197.5 245l-2 15q0 24 29.5 42.5t71.5 18.5q39 0 81.5 -28.5t122.5 -130.5q24 -31 54 -62q32 -35 45.5 -69t13.5 -48q25 -35 31.5 -66.5t11.5 -62.5z
M201 319q0 -115 139 -198q278 94 278 311q-79 182 -198 182q-103 -18 -161 -94.5t-58 -200.5zM236 1384l73 -4q98 -87 139 -221l23 -72l8 -77q0 -49 -51 -49l-39 14q-23 167 -192 297l-9 65q6 47 48 47z" />
    <glyph glyph-name="oacute" unicode="&#xf3;" horiz-adv-x="834" 
d="M774 387q-18 -120 -182 -301q-114 -61 -197 -78h-8q-52 -10 -96 -10q-42 0 -64 10q-168 102 -168 340q0 87 58.5 185t197.5 245l-2 15q0 24 29.5 42.5t71.5 18.5q39 0 81.5 -28.5t122.5 -130.5q24 -31 54 -62q32 -35 45.5 -69t13.5 -48q25 -35 31.5 -66.5t11.5 -62.5z
M201 319q0 -115 139 -198q278 94 278 311q-79 182 -198 182q-103 -18 -161 -94.5t-58 -200.5zM651 1391l27 -19q10 -8 10 -29q0 -27 -18 -45q-38 0 -96 -77.5t-113 -198.5q0 -55 -111 -55l-43 77v29q118 153 203.5 235.5t140.5 82.5z" />
    <glyph glyph-name="ocircumflex" unicode="&#xf4;" horiz-adv-x="834" 
d="M774 387q-18 -120 -182 -301q-114 -61 -197 -78h-8q-52 -10 -96 -10q-42 0 -64 10q-168 102 -168 340q0 87 58.5 185t197.5 245l-2 15q0 24 29.5 42.5t71.5 18.5q39 0 81.5 -28.5t122.5 -130.5q24 -31 54 -62q32 -35 45.5 -69t13.5 -48q25 -35 31.5 -66.5t11.5 -62.5z
M201 319q0 -115 139 -198q278 94 278 311q-79 182 -198 182q-103 -18 -161 -94.5t-58 -200.5zM395 1421q39 0 91.5 -68.5t111.5 -222.5q14 0 37.5 -16.5t39 -42t15.5 -55.5q0 -21 -21 -37t-52 -16t-107 102q-80 108 -104 119q-77 -113 -118.5 -163t-68.5 -50q-44 0 -61 15.5
t-17 43.5q0 32 13 45q96 101 135 170t53 144q16 16 53 32z" />
    <glyph glyph-name="otilde" unicode="&#xf5;" horiz-adv-x="834" 
d="M774 387q-18 -120 -182 -301q-114 -61 -197 -78h-8q-52 -10 -96 -10q-42 0 -64 10q-168 102 -168 340q0 87 58.5 185t197.5 245l-2 15q0 24 29.5 42.5t71.5 18.5q39 0 81.5 -28.5t122.5 -130.5q24 -31 54 -62q32 -35 45.5 -69t13.5 -48q25 -35 31.5 -66.5t11.5 -62.5z
M201 319q0 -115 139 -198q278 94 278 311q-79 182 -198 182q-103 -18 -161 -94.5t-58 -200.5zM694 1407q28 0 49 -22.5t21 -51.5q0 -15 -6 -24l-3 -15q-22 -109 -81.5 -182.5t-141.5 -95.5q-15 -2 -20 -2l-39 2q-25 0 -90 46t-84 46h-6q-23 -12 -38.5 -37t-28 -49.5
t-22.5 -43t-22 -18.5q-70 0 -70 76q0 71 30.5 114.5t131.5 100.5q18 10 43 10q11 0 68 -10q33 -8 85 -58l27 -24l29 -6q72 0 117 201q0 20 16 31.5t35 11.5z" />
    <glyph glyph-name="odieresis" unicode="&#xf6;" horiz-adv-x="834" 
d="M774 387q-18 -120 -182 -301q-114 -61 -197 -78h-8q-52 -10 -96 -10q-42 0 -64 10q-168 102 -168 340q0 87 58.5 185t197.5 245l-2 15q0 24 29.5 42.5t71.5 18.5q39 0 81.5 -28.5t122.5 -130.5q24 -31 54 -62q32 -35 45.5 -69t13.5 -48q25 -35 31.5 -66.5t11.5 -62.5z
M201 319q0 -115 139 -198q278 94 278 311q-79 182 -198 182q-103 -18 -161 -94.5t-58 -200.5zM584 1303h27q35 0 77 -80v-80q0 -80 -104 -80q-26 14 -44.5 23.5t-31.5 21.5l-4 115q0 34 80 80zM211 1270h27q30 -5 58 -24.5t28 -37.5v-24q0 -50 -30.5 -89t-82.5 -53
q-35 0 -76 76v76q0 19 19.5 36.5t56.5 39.5z" />
    <glyph glyph-name="divide" unicode="&#xf7;" horiz-adv-x="905" 
d="M365 195q0 45 13.5 65.5t45.5 26.5q42 0 74 -20.5t32 -51.5q0 -75 -53 -111h-53q-37 16 -48 33t-11 58zM53 451q0 35 24.5 71.5t47.5 36.5l22 -6q80 -31 103 -31q11 0 106.5 8t128.5 15l107 18l51 19q76 20 148 20q21 0 32 -11.5t17 -47.5q-6 -31 -33 -44t-63 -19
t-73.5 -11t-62.5 -18l-309 -35l-119 -39l-43 -19q-30 0 -57 31t-27 62zM336 768q0 28 40.5 65t65.5 37q16 0 26.5 -8.5t27.5 -30.5l18 -36v-17q0 -20 -9 -48t-25 -45t-38 -17q-31 0 -61.5 25t-44.5 67v8z" />
    <glyph glyph-name="oslash" unicode="&#xf8;" horiz-adv-x="885" 
d="M964 1282q35 0 59 -25.5t24 -62.5l-41 -44q-81 -77 -125 -151q-97 -112 -170 -280q112 -46 112 -195v-57q0 -265 -446 -447q-139 -260 -139 -417q0 -21 5.5 -44.5t8.5 -42t3 -31.5q0 -64 -59 -64q-25 0 -67 14l-4 55q0 202 113 504h-29q-73 0 -168 168q0 351 530 696
l23 2q36 0 61 -29q232 438 279 447zM182 246q40 -113 82 -113q77 0 197 391l1 15q0 47 -35 47q-32 0 -79 -35q-123 -144 -166 -305zM444 178q121 60 194 136.5t73 152.5q-2 34 -24.5 75t-38.5 41l-48 -32q-72 -211 -139 -305z" />
    <glyph glyph-name="ugrave" unicode="&#xf9;" horiz-adv-x="799" 
d="M174 854q150 0 168 -139q-113 -162 -113 -307v-84l29 -140h29q45 0 96 68.5t103 196.5t108 350q0 28 27 28h57q20 0 35.5 -27.5t38.5 -84.5q-57 -167 -80 -271.5t-23 -146.5q15 -202 174 -223q8 -3 8 -21q0 -22 -9.5 -47t-20.5 -31l-68 -14q-194 0 -205 281
q-39 -33 -108 -118q-63 -77 -107 -108q-19 -8 -43 -8q-18 0 -33.5 4t-33.5 4q-46 0 -113 113v55q0 208 29 420q-29 96 -29 195zM261 1384l73 -4q98 -87 139 -221l23 -72l8 -77q0 -49 -51 -49l-39 14q-23 167 -192 297l-9 65q6 47 48 47z" />
    <glyph glyph-name="uacute" unicode="&#xfa;" horiz-adv-x="799" 
d="M174 854q150 0 168 -139q-113 -162 -113 -307v-84l29 -140h29q45 0 96 68.5t103 196.5t108 350q0 28 27 28h57q20 0 35.5 -27.5t38.5 -84.5q-57 -167 -80 -271.5t-23 -146.5q15 -202 174 -223q8 -3 8 -21q0 -22 -9.5 -47t-20.5 -31l-68 -14q-194 0 -205 281
q-39 -33 -108 -118q-63 -77 -107 -108q-19 -8 -43 -8q-18 0 -33.5 4t-33.5 4q-46 0 -113 113v55q0 208 29 420q-29 96 -29 195zM696 1391l27 -19q10 -8 10 -29q0 -27 -18 -45q-38 0 -96 -77.5t-113 -198.5q0 -55 -111 -55l-43 77v29q118 153 203.5 235.5t140.5 82.5z" />
    <glyph glyph-name="ucircumflex" unicode="&#xfb;" horiz-adv-x="799" 
d="M174 854q150 0 168 -139q-113 -162 -113 -307v-84l29 -140h29q45 0 96 68.5t103 196.5t108 350q0 28 27 28h57q20 0 35.5 -27.5t38.5 -84.5q-57 -167 -80 -271.5t-23 -146.5q15 -202 174 -223q8 -3 8 -21q0 -22 -9.5 -47t-20.5 -31l-68 -14q-194 0 -205 281
q-39 -33 -108 -118q-63 -77 -107 -108q-19 -8 -43 -8q-18 0 -33.5 4t-33.5 4q-46 0 -113 113v55q0 208 29 420q-29 96 -29 195zM424 1421q39 0 91.5 -68.5t111.5 -222.5q14 0 37.5 -16.5t39 -42t15.5 -55.5q0 -21 -21 -37t-52 -16t-107 102q-80 108 -104 119
q-77 -113 -118.5 -163t-68.5 -50q-44 0 -61 15.5t-17 43.5q0 32 13 45q96 101 135 170t53 144q16 16 53 32z" />
    <glyph glyph-name="udieresis" unicode="&#xfc;" horiz-adv-x="799" 
d="M174 854q150 0 168 -139q-113 -162 -113 -307v-84l29 -140h29q45 0 96 68.5t103 196.5t108 350q0 28 27 28h57q20 0 35.5 -27.5t38.5 -84.5q-57 -167 -80 -271.5t-23 -146.5q15 -202 174 -223q8 -3 8 -21q0 -22 -9.5 -47t-20.5 -31l-68 -14q-194 0 -205 281
q-39 -33 -108 -118q-63 -77 -107 -108q-19 -8 -43 -8q-18 0 -33.5 4t-33.5 4q-46 0 -113 113v55q0 208 29 420q-29 96 -29 195zM612 1303h27q35 0 77 -80v-80q0 -80 -104 -80q-26 14 -44.5 23.5t-31.5 21.5l-4 115q0 34 80 80zM239 1270h27q30 -5 58 -24.5t28 -37.5v-24
q0 -50 -30.5 -89t-82.5 -53q-35 0 -76 76v76q0 19 19.5 36.5t56.5 39.5z" />
    <glyph glyph-name="yacute" unicode="&#xfd;" horiz-adv-x="739" 
d="M588 877q55 -10 55 -54v-4l-16 -223q-4 -46 -4 -102q0 -119 7 -246l1 -41q0 -133 -8 -253q-9 -121 -9 -167v-336l-34 -176l-76 -20q-84 31 -84 167q82 119 82 392l-19 57l21 168v381l-29 -76q-13 -161 -194 -305l-29 -4l-29 4q-62 4 -95 177.5t-44 520.5q10 40 33 61
t47 21h43q57 -6 57 -53q-18 -111 -18 -260l6 -273l14 -38l41 38q28 73 55.5 144t51 145t42 154t29.5 172q54 29 103 29zM602 1391l27 -19q10 -8 10 -29q0 -27 -18 -45q-38 0 -96 -77.5t-113 -198.5q0 -55 -111 -55l-43 77v29q118 153 203.5 235.5t140.5 82.5z" />
    <glyph glyph-name="thorn" unicode="&#xfe;" horiz-adv-x="762" 
d="M197 1516l41 -12q46 -13 61.5 -27t15.5 -47q0 -36 -17 -86t-36 -78q17 -18 17 -41q0 -20 -11 -61q-13 -43 -14 -64q8 -40 8 -96q0 -50 -4 -100t-4 -101q0 -15 10 -15q7 0 19 7q32 13 63.5 32t63 37t64 30.5t67.5 12.5q200 0 200 -166q-85 -374 -212.5 -551.5
t-313.5 -177.5l-4 -129l4 -59q0 -60 8.5 -115.5t18 -106.5t18 -97.5t8.5 -88.5q0 -23 -14 -57q-22 -12 -41.5 -20.5t-44.5 -8.5q-86 0 -86 443q57 1038 57 1521v27q-6 28 -18 55.5t-12 53.5q0 22 12 38.5t52 35.5zM227 246q25 -13 38.5 -30.5t13.5 -55.5q161 107 240 242.5
t79 310.5q-54 28 -86 28q-51 0 -82.5 -18t-55 -45t-45.5 -57.5t-55 -55.5q-23 0 -35 -83t-12 -216v-20z" />
    <glyph glyph-name="ydieresis" unicode="&#xff;" horiz-adv-x="739" 
d="M588 877q55 -10 55 -54v-4l-16 -223q-4 -46 -4 -102q0 -119 7 -246l1 -41q0 -133 -8 -253q-9 -121 -9 -167v-336l-34 -176l-76 -20q-84 31 -84 167q82 119 82 392l-19 57l21 168v381l-29 -76q-13 -161 -194 -305l-29 -4l-29 4q-62 4 -95 177.5t-44 520.5q10 40 33 61
t47 21h43q57 -6 57 -53q-18 -111 -18 -260l6 -273l14 -38l41 38q28 73 55.5 144t51 145t42 154t29.5 172q54 29 103 29zM545 1303h27q35 0 77 -80v-80q0 -80 -104 -80q-26 14 -44.5 23.5t-31.5 21.5l-4 115q0 34 80 80zM172 1270h27q30 -5 58 -24.5t28 -37.5v-24
q0 -50 -30.5 -89t-82.5 -53q-35 0 -76 76v76q0 19 19.5 36.5t56.5 39.5z" />
    <glyph glyph-name="Amacron" unicode="&#x100;" horiz-adv-x="889" 
d="M582 1303q24 0 38.5 -22.5t14.5 -57.5q-23 -74 -23 -109l6 -74v-75q0 -89 5.5 -157t17 -114.5t28 -69t50.5 -22.5q35 0 102 16q53 -6 53 -63q0 -25 -45 -50.5t-137 -31.5q92 -495 187 -520q18 -8 41 -8q20 0 36 8q16 47 52 47q17 0 31 -13t14 -36q0 -22 -27.5 -61
t-66.5 -65t-80 -26q-103 0 -177.5 148.5t-134.5 488.5q-153 -33 -222 -67t-102.5 -85t-35.5 -130q-17 -122 -43 -175t-68 -53q-39 0 -65.5 22.5t-26.5 51.5q0 35 39 104q44 78 57 134q-4 24 -4 53q0 45 7 71.5t24 57.5q34 66 81 208.5t91 338.5q0 18 19 47t44 64t50 74.5
t37 78.5q0 72 133 72zM287 487q0 -8 8 -8q4 0 244 80q-25 204 -38.5 317.5t-13.5 139.5q0 28 -6 28q-8 0 -20 -28q-91 -223 -132.5 -357t-41.5 -172zM383 1452q-39 0 -76 24t-37 46q0 27 12 43t42 26l30 11q58 -7 145 -7h111q17 0 37 7.5t37 7.5q54 0 123 -15q20 -27 20 -61
q0 -27 -20 -33q-49 -6 -113.5 -14.5t-127 -16t-112.5 -13t-71 -5.5z" />
    <glyph glyph-name="amacron" unicode="&#x101;" 
d="M551 860q53 0 101.5 -41.5t56.5 -97.5q-45 -89 -75 -173t-30 -133q0 -71 2 -85q0 -72 58 -168q17 5 29 13.5t26 14.5q24 0 39.5 -17t15.5 -38q0 -44 -110 -112q-27 -11 -41 -11q-18 0 -43 11q-56 20 -79.5 78t-31.5 145q-213 -223 -336 -223q-14 0 -28.5 -4.5t-28.5 -4.5
q-18 0 -27 9q-11 17 -20 50t-9 68v21q136 426 504 698h27zM162 162q307 156 307 475q-307 -249 -307 -475zM289 1069q-39 0 -76 24t-37 46q0 27 12 43t42 26l30 11q58 -7 145 -7h111q17 0 37 7.5t37 7.5q54 0 123 -15q20 -27 20 -61q0 -27 -20 -33q-49 -6 -113.5 -14.5
t-127 -16t-112.5 -13t-71 -5.5z" />
    <glyph glyph-name="Abreve" unicode="&#x102;" horiz-adv-x="889" 
d="M582 1303q24 0 38.5 -22.5t14.5 -57.5q-23 -74 -23 -109l6 -74v-75q0 -89 5.5 -157t17 -114.5t28 -69t50.5 -22.5q35 0 102 16q53 -6 53 -63q0 -25 -45 -50.5t-137 -31.5q92 -495 187 -520q18 -8 41 -8q20 0 36 8q16 47 52 47q17 0 31 -13t14 -36q0 -22 -27.5 -61
t-66.5 -65t-80 -26q-103 0 -177.5 148.5t-134.5 488.5q-153 -33 -222 -67t-102.5 -85t-35.5 -130q-17 -122 -43 -175t-68 -53q-39 0 -65.5 22.5t-26.5 51.5q0 35 39 104q44 78 57 134q-4 24 -4 53q0 45 7 71.5t24 57.5q34 66 81 208.5t91 338.5q0 18 19 47t44 64t50 74.5
t37 78.5q0 72 133 72zM287 487q0 -8 8 -8q4 0 244 80q-25 204 -38.5 317.5t-13.5 139.5q0 28 -6 28q-8 0 -20 -28q-91 -223 -132.5 -357t-41.5 -172zM254 1698l4 35q0 6 9 19t16.5 17.5t30.5 12.5l20 2l10 -1l7 -1l47 -53l18 -33q0 -6 8 -51t11 -50l36 -49q12 -18 19 -18
l7 -1l11 -1q8 0 11 1q7 0 23.5 7t21.5 12q75 45 84 60q9 6 20 32v19l16 33l58 59l37 16l20 2l12 -1l7 -1q7 0 18 -16l1 -9l1 -16l-1 -15l-1 -9q-1 -2 -5.5 -13.5t-10 -25t-11.5 -26.5t-10 -19q-51 -92 -57 -96q-2 -5 -16.5 -19.5t-20.5 -15.5q-50 -33 -57 -35l-74 -33
q-11 -6 -30.5 -11t-24.5 -5l-16 -1q-18 -1 -21 -1l-37 2l-74 33l-20 16q-10 14 -20 34t-17 36q-6 11 -16.5 36.5t-27 71.5t-16.5 70z" />
    <glyph glyph-name="abreve" unicode="&#x103;" 
d="M551 860q53 0 101.5 -41.5t56.5 -97.5q-45 -89 -75 -173t-30 -133q0 -71 2 -85q0 -72 58 -168q17 5 29 13.5t26 14.5q24 0 39.5 -17t15.5 -38q0 -44 -110 -112q-27 -11 -41 -11q-18 0 -43 11q-56 20 -79.5 78t-31.5 145q-213 -223 -336 -223q-14 0 -28.5 -4.5t-28.5 -4.5
q-18 0 -27 9q-11 17 -20 50t-9 68v21q136 426 504 698h27zM162 162q307 156 307 475q-307 -249 -307 -475zM202 1297l4 35q0 6 9 19t16.5 17.5t30.5 12.5l20 2l10 -1l7 -1l47 -53l18 -33q0 -6 8 -51t11 -50l36 -49q12 -18 19 -18l7 -1l11 -1q8 0 11 1q7 0 23.5 7t21.5 12
q75 45 84 60q9 6 20 32v19l16 33l58 59l37 16l20 2l12 -1l7 -1q7 0 18 -16l1 -9l1 -16l-1 -15l-1 -9q-1 -2 -5.5 -13.5t-10 -25t-11.5 -26.5t-10 -19q-51 -92 -57 -96q-2 -5 -16.5 -19.5t-20.5 -15.5q-50 -33 -57 -35l-74 -33q-11 -6 -30.5 -11t-24.5 -5l-16 -1
q-18 -1 -21 -1l-37 2l-74 33l-20 16q-10 14 -20 34t-17 36q-6 11 -16.5 36.5t-27 71.5t-16.5 70z" />
    <glyph glyph-name="Aogonek" unicode="&#x104;" horiz-adv-x="889" 
d="M582 1303q24 0 38.5 -22.5t14.5 -57.5q-23 -74 -23 -109l6 -74v-75q0 -89 5.5 -157t17 -114.5t28 -69t50.5 -22.5q35 0 102 16q53 -6 53 -63q0 -25 -45 -50.5t-137 -31.5q92 -495 187 -520q18 -8 41 -8q20 0 36 8q16 47 52 47q17 0 31 -13t14 -36q0 -18 -22 -52.5
t-52.5 -60t-65.5 -35.5q-98 -104 -139 -170.5t-41 -89.5v-55h55l195 29l29 -58q0 -71 -224 -110h-139q-62 0 -84 139q0 58 88 221l135 123q-72 55 -125 205.5t-96 398.5q-153 -33 -222 -67t-102.5 -85t-35.5 -130q-17 -122 -43 -175t-68 -53q-39 0 -65.5 22.5t-26.5 51.5
q0 35 39 104q44 78 57 134q-4 24 -4 53q0 45 7 71.5t24 57.5q34 66 81 208.5t91 338.5q0 18 19 47t44 64t50 74.5t37 78.5q0 72 133 72zM287 487q0 -8 8 -8q4 0 244 80q-25 204 -38.5 317.5t-13.5 139.5q0 28 -6 28q-8 0 -20 -28q-91 -223 -132.5 -357t-41.5 -172z" />
    <glyph glyph-name="aogonek" unicode="&#x105;" 
d="M551 860q53 0 101.5 -41.5t56.5 -97.5q-45 -89 -75 -173t-30 -133q0 -71 2 -85q0 -72 58 -168q17 5 29 13.5t26 14.5q24 0 39.5 -17t15.5 -38q0 -44 -110 -112l-2 -2v-1q-87 -90 -140 -164.5t-53 -107.5v-55h55l195 28l29 -57q0 -71 -224 -110h-139q-63 0 -84 139
q0 58 88 221l148 133q-55 50 -68 199q-213 -223 -336 -223q-14 0 -28.5 -4.5t-28.5 -4.5q-18 0 -27 9q-11 17 -20 50t-9 68v21q136 426 504 698h27zM162 162q307 156 307 475q-307 -249 -307 -475z" />
    <glyph glyph-name="Cacute" unicode="&#x106;" horiz-adv-x="1016" 
d="M637 1270q154 0 225.5 -111t71.5 -344q-25 -75 -60.5 -114t-72.5 -39q-40 0 -65.5 17t-45.5 50q17 41 39.5 79.5t36.5 76.5l2 28l-2 23l-27 123q-3 12 -18 12l-33 -6q-182 -71 -412 -465q-29 -70 -51 -178l-2 -29l2 -49q0 -102 53.5 -155.5t159.5 -53.5l45 4
q617 151 617 283q0 41 51 41t51 -41q0 -268 -796 -436q-35 -9 -66 -9q-25 0 -39 9q-229 131 -229 385q199 634 487 796q40 103 78 103zM825 1774l27 -19q10 -8 10 -29q0 -27 -18 -45q-38 0 -96 -77.5t-113 -198.5q0 -55 -111 -55l-43 77v29q118 153 203.5 235.5t140.5 82.5z
" />
    <glyph glyph-name="cacute" unicode="&#x107;" horiz-adv-x="733" 
d="M479 858h56q42 0 110 -110v-111q0 -57 -55 -57h-55l-111 112h-29q-194 -176 -194 -336v-84q15 -69 141 -114q29 -5 58 -5q39 0 79 9q238 84 320 84l14 -51q-46 -100 -446 -175h-56q-211 0 -252 281q0 416 420 557zM653 1391l27 -19q10 -8 10 -29q0 -27 -18 -45
q-38 0 -96 -77.5t-113 -198.5q0 -55 -111 -55l-43 77v29q118 153 203.5 235.5t140.5 82.5z" />
    <glyph glyph-name="Ccircumflex" unicode="&#x108;" horiz-adv-x="1016" 
d="M637 1270q154 0 225.5 -111t71.5 -344q-25 -75 -60.5 -114t-72.5 -39q-40 0 -65.5 17t-45.5 50q17 41 39.5 79.5t36.5 76.5l2 28l-2 23l-27 123q-3 12 -18 12l-33 -6q-182 -71 -412 -465q-29 -70 -51 -178l-2 -29l2 -49q0 -102 53.5 -155.5t159.5 -53.5l45 4
q617 151 617 283q0 41 51 41t51 -41q0 -268 -796 -436q-35 -9 -66 -9q-25 0 -39 9q-229 131 -229 385q199 634 487 796q40 103 78 103zM606 1804q39 0 91.5 -68.5t111.5 -222.5q14 0 37.5 -16.5t39 -42t15.5 -55.5q0 -21 -21 -37t-52 -16t-107 102q-80 108 -104 119
q-77 -113 -118.5 -163t-68.5 -50q-44 0 -61 15.5t-17 43.5q0 32 13 45q96 101 135 170t53 144q16 16 53 32z" />
    <glyph glyph-name="ccircumflex" unicode="&#x109;" horiz-adv-x="733" 
d="M479 858h56q42 0 110 -110v-111q0 -57 -55 -57h-55l-111 112h-29q-194 -176 -194 -336v-84q15 -69 141 -114q29 -5 58 -5q39 0 79 9q238 84 320 84l14 -51q-46 -100 -446 -175h-56q-211 0 -252 281q0 416 420 557zM376 1421q39 0 91.5 -68.5t111.5 -222.5
q14 0 37.5 -16.5t39 -42t15.5 -55.5q0 -21 -21 -37t-52 -16t-107 102q-80 108 -104 119q-77 -113 -118.5 -163t-68.5 -50q-44 0 -61 15.5t-17 43.5q0 32 13 45q96 101 135 170t53 144q16 16 53 32z" />
    <glyph glyph-name="Cdotaccent" unicode="&#x10a;" horiz-adv-x="1016" 
d="M637 1270q154 0 225.5 -111t71.5 -344q-25 -75 -60.5 -114t-72.5 -39q-40 0 -65.5 17t-45.5 50q17 41 39.5 79.5t36.5 76.5l2 28l-2 23l-27 123q-3 12 -18 12l-33 -6q-182 -71 -412 -465q-29 -70 -51 -178l-2 -29l2 -49q0 -102 53.5 -155.5t159.5 -53.5l45 4
q617 151 617 283q0 41 51 41t51 -41q0 -268 -796 -436q-35 -9 -66 -9q-25 0 -39 9q-229 131 -229 385q199 634 487 796q40 103 78 103zM645 1659l56 -84v-55q0 -41 -84 -84h-29q-45 0 -111 112q28 111 168 111z" />
    <glyph glyph-name="cdotaccent" unicode="&#x10b;" horiz-adv-x="733" 
d="M479 858h56q42 0 110 -110v-111q0 -57 -55 -57h-55l-111 112h-29q-194 -176 -194 -336v-84q15 -69 141 -114q29 -5 58 -5q39 0 79 9q238 84 320 84l14 -51q-46 -100 -446 -175h-56q-211 0 -252 281q0 416 420 557zM442 1317l56 -84v-55q0 -41 -84 -84h-29q-45 0 -111 112
q28 111 168 111z" />
    <glyph glyph-name="Ccaron" unicode="&#x10c;" horiz-adv-x="1016" 
d="M637 1270q154 0 225.5 -111t71.5 -344q-25 -75 -60.5 -114t-72.5 -39q-40 0 -65.5 17t-45.5 50q17 41 39.5 79.5t36.5 76.5l2 28l-2 23l-27 123q-3 12 -18 12l-33 -6q-182 -71 -412 -465q-29 -70 -51 -178l-2 -29l2 -49q0 -102 53.5 -155.5t159.5 -53.5l45 4
q617 151 617 283q0 41 51 41t51 -41q0 -268 -796 -436q-35 -9 -66 -9q-25 0 -39 9q-229 131 -229 385q199 634 487 796q40 103 78 103zM799 1780q18 0 35.5 -12t17.5 -29q0 -23 -6 -35q-115 -170 -165 -231t-89 -90t-72 -29q-13 0 -28 6l-84 89q-77 77 -109.5 126.5
t-32.5 91.5q0 45 19.5 69.5t42.5 24.5q14 0 25.5 -5t25.5 -5l25 -42q66 -121 93 -156t44 -35q14 0 33 12q50 20 202 237q4 13 23 13z" />
    <glyph glyph-name="ccaron" unicode="&#x10d;" horiz-adv-x="733" 
d="M479 858h56q42 0 110 -110v-111q0 -57 -55 -57h-55l-111 112h-29q-194 -176 -194 -336v-84q15 -69 141 -114q29 -5 58 -5q39 0 79 9q238 84 320 84l14 -51q-46 -100 -446 -175h-56q-211 0 -252 281q0 416 420 557zM635 1397q18 0 35.5 -12t17.5 -29q0 -23 -6 -35
q-115 -170 -165 -231t-89 -90t-72 -29q-13 0 -28 6l-84 89q-77 77 -109.5 126.5t-32.5 91.5q0 45 19.5 69.5t42.5 24.5q14 0 25.5 -5t25.5 -5l25 -42q66 -121 93 -156t44 -35q14 0 33 12q50 20 202 237q4 13 23 13z" />
    <glyph glyph-name="Dcaron" unicode="&#x10e;" horiz-adv-x="1227" 
d="M190 -66q-98 11 -98 74q0 18 9 41.5t32 63t35 48.5t31 9q22 0 35.5 -8.5t23.5 -18t17.5 -18t17.5 -8.5q22 0 35 24q-41 33 -65.5 64.5t-24.5 50.5q-17 88 -17 258l2 231q0 107 -10 185l-8 25q-15 50 -36.5 64.5t-57.5 14.5q-31 0 -62.5 -7t-62.5 -7q-9 0 -28 51.5
t-19 63.5q30 59 43 72t30.5 17.5t46.5 4.5q60 0 154 -27l57 -9q84 -13 172 -58q21 -11 90 -29q71 -19 117 -41l228 -115q46 -27 134.5 -91t116.5 -91q34 -24 42 -40t8 -48q0 -82 -43 -154.5t-148 -156.5t-211.5 -146.5t-261.5 -137.5t-324 -151zM389 324q0 -70 -7 -89
l-9 -24q-2 -14 -2 -21q0 -17 4 -20q6 -6 14 -6h8l64 31l256 131q42 21 124 92t121 126.5t39 96.5q0 6 -14 32.5t-33 49.5q-15 15 -117 88t-120 82q-51 26 -156.5 58t-130.5 32q-15 0 -41 -26t-33 -54l-2 -192v-33q2 -190 2 -191q0 -20 17 -72q16 -53 16 -91zM881 1678
q18 0 35.5 -12t17.5 -29q0 -23 -6 -35q-115 -170 -165 -231t-89 -90t-72 -29q-13 0 -28 6l-84 89q-77 77 -109.5 126.5t-32.5 91.5q0 45 19.5 69.5t42.5 24.5q14 0 25.5 -5t25.5 -5l25 -42q66 -121 93 -156t44 -35q14 0 33 12q50 20 202 237q4 13 23 13z" />
    <glyph glyph-name="dcaron" unicode="&#x10f;" horiz-adv-x="821" 
d="M516 1745h27q70 0 100 -205v-24q-25 -312 -25 -433v-432q0 -56 -24 -102q55 -408 176 -408q9 52 51 52q51 -10 51 -52v-24q-39 -103 -178 -103q-35 0 -202 230q0 -210 -306 -281q-153 85 -153 154q0 378 254 737l51 27h51q58 0 76 -129h27v204q0 165 24 330
q-51 267 -51 434zM160 141q52 -24 76 -24q127 0 229 381v51q-103 0 -103 129h-24q-178 -196 -178 -537zM877 1333q65 0 105 -33.5t40 -107.5l-4 -29q-4 -16 -4 -33q0 -79 -52.5 -153t-140.5 -123q-26 -12 -49 -12q-21 0 -38 17.5t-17 37.5q0 27 12 39q16 5 29 5.5t27 6.5
q36 22 65 72.5t29 101.5q0 19 -2 25q-7 8 -25 8q-38 0 -63 21.5t-25 54.5q17 63 78 96z" />
    <glyph glyph-name="Dcroat" unicode="&#x110;" horiz-adv-x="1532" 
d="M561 1247q54 -1 104 -21t95.5 -43.5t86.5 -43t77 -19.5q121 -24 246 -126t307 -337q6 -10 6 -30q0 -18 -6 -25q-51 -95 -169 -204t-255 -187.5t-291 -128.5q-16 0 -44 -19.5t-69 -55.5q-87 -75 -133 -75q-21 0 -39 15q-195 -56 -336 -56q-55 0 -55 56l10 27l10 44
q6 27 48 27q23 0 50 -7t50 -7q250 0 250 252l6 141q0 30 -9 47.5t-48 17.5q-43 0 -145 -16q-103 -16 -122 -16q-14 0 -29.5 16t-15.5 33q0 18 -5 35t-5 32q0 36 51 49t61.5 13h18.5q34 0 65.5 -8.5t65.5 -8.5h56q19 0 32.5 20.5t36.5 61.5q-6 184 -20 274.5t-49 90.5
q-49 0 -117.5 -9.5t-290.5 -54.5q-29 17 -55.5 53.5t-26.5 69.5q0 36 45 76.5t96 40.5q42 0 50 -33l10 -32q42 4 71.5 6.5t54.5 5.5t50 6.5t57 9.5q21 2 29 2l55 -2q22 14 40.5 28.5t43.5 14.5zM645 674q0 -21 37 -21l37 4q102 17 121 17q37 0 84 -84q0 -31 -26.5 -49.5
t-74.5 -18.5q-35 0 -74 6.5t-77 6.5q-28 -5 -36.5 -21t-8.5 -39q0 -63 -5.5 -124t-5.5 -124q10 -55 56 -55q84 48 169.5 87t168 84t159.5 103.5t144 147.5q-42 116 -85 175.5t-115 103.5t-161 83t-161 59.5t-117 20.5q-29 0 -29 -12v-350z" />
    <glyph glyph-name="dcroat" unicode="&#x111;" horiz-adv-x="821" 
d="M43 201q0 77 14 125l2 4l2 9q0 4 45 125t78 163q62 74 174 158q66 49 77 64.5t11 82.5q0 51 -26 51q-10 0 -56 -33q-55 -38 -81 -47q-58 0 -90.5 32.5t-32.5 88.5q0 39 18.5 65t47 40t57.5 14h98q28 0 50 11t30 28l2 178q0 140 -4.5 184.5t-16.5 91.5v6q0 52 37 84.5
t82 32.5q19 0 33 -36.5t14 -53.5v-27q0 -40 -28 -380q0 -43 8.5 -51.5t29.5 -8.5l179 43l41 2q45 0 63.5 -9t18.5 -44l-2 -29q-10 0 -50 -25.5t-53 -35.5q-19 0 -101 -27t-96 -35q-22 0 -22 -151l4 -344q0 -87 42 -212.5t85 -125.5q21 0 35.5 19t25.5 42.5t20.5 42.5
t20.5 19q28 -16 40 -30.5t12 -37.5q0 -39 -25 -114q-14 -68 -42 -105t-77 -37q-40 0 -73.5 35.5t-80.5 129.5l-63 118q-23 -18 -45.5 -54t-60.5 -113q-27 -52 -63 -82t-75.5 -50.5t-64.5 -20.5q-77 0 -122.5 63t-45.5 167zM205 131h6q27 0 64.5 29t76 76.5t51.5 77t42 157.5
l16 57q0 66 -66 66q-28 0 -48 -9t-54 -60q-12 -17 -31 -36l-7 -15q-30 -53 -52.5 -107t-22.5 -125l4 -92q0 -6 21 -19z" />
    <glyph glyph-name="Emacron" unicode="&#x112;" horiz-adv-x="997" 
d="M135 53q0 62 15.5 271.5t15.5 212.5l24 112q25 118 25 277l-2 82v8q0 51 31 84t84 33q7 -5 24 -5q18 0 90 25q70 21 165 41t294 51q57 0 76.5 -10.5t19.5 -44.5q0 -31 -20.5 -57.5t-48.5 -26.5l-47 2q-179 -11 -266 -39t-179 -90q-32 -32 -59 -120.5t-27 -151.5l2 -58
q65 8 171 50l59 22l46 6q119 18 138 18q41 0 55.5 -9t14.5 -40q0 -40 -27 -47q-38 -27 -70 -39t-77 -14q-90 -7 -195 -59l-23 -11q-90 -39 -111 -58t-28.5 -48.5t-7.5 -112.5q0 -75 9 -108t44 -33q11 0 50.5 9.5t66.5 19.5q50 5 174 25q111 18 145 18q8 0 31.5 -6t36.5 -13
q30 -8 40.5 -17.5t10.5 -39.5q0 -37 -17 -51l-7 -11l-81 -6q-212 -15 -259 -25.5t-166 -58.5q-39 -12 -99 -42q-54 -27 -71 -27q-32 0 -51 32t-19 80zM424 1370q-39 0 -76 24t-37 46q0 27 12 43t42 26l30 11q58 -7 145 -7h111q17 0 37 7.5t37 7.5q54 0 123 -15
q20 -27 20 -61q0 -27 -20 -33q-49 -6 -113.5 -14.5t-127 -16t-112.5 -13t-71 -5.5z" />
    <glyph glyph-name="emacron" unicode="&#x113;" horiz-adv-x="750" 
d="M526 862q33 0 60 -8q37 0 78 -78q0 -14 6 -30.5t6 -28.5q0 -273 -453 -338q-10 -38 -10 -84t10 -84q0 -19 27 -47.5t96 -79.5q50 -10 82 -10q40 0 86 10q63 0 147.5 35t176.5 121h28v-29q-92 -252 -559 -252q-252 96 -252 307q0 309 420 588q22 8 51 8zM297 516l50 -2
q10 0 63 33t83.5 63t36.5 47q7 15 7 29q0 19 -7 29h-26q-102 -63 -152 -108t-55 -91zM281 1069q-39 0 -76 24t-37 46q0 27 12 43t42 26l30 11q58 -7 145 -7h111q17 0 37 7.5t37 7.5q54 0 123 -15q20 -27 20 -61q0 -27 -20 -33q-49 -6 -113.5 -14.5t-127 -16t-112.5 -13
t-71 -5.5z" />
    <glyph glyph-name="Ebreve" unicode="&#x114;" horiz-adv-x="997" 
d="M135 53q0 62 15.5 271.5t15.5 212.5l24 112q25 118 25 277l-2 82v8q0 51 31 84t84 33q7 -5 24 -5q18 0 90 25q70 21 165 41t294 51q57 0 76.5 -10.5t19.5 -44.5q0 -31 -20.5 -57.5t-48.5 -26.5l-47 2q-179 -11 -266 -39t-179 -90q-32 -32 -59 -120.5t-27 -151.5l2 -58
q65 8 171 50l59 22l46 6q119 18 138 18q41 0 55.5 -9t14.5 -40q0 -40 -27 -47q-38 -27 -70 -39t-77 -14q-90 -7 -195 -59l-23 -11q-90 -39 -111 -58t-28.5 -48.5t-7.5 -112.5q0 -75 9 -108t44 -33q11 0 50.5 9.5t66.5 19.5q50 5 174 25q111 18 145 18q8 0 31.5 -6t36.5 -13
q30 -8 40.5 -17.5t10.5 -39.5q0 -37 -17 -51l-7 -11l-81 -6q-212 -15 -259 -25.5t-166 -58.5q-39 -12 -99 -42q-54 -27 -71 -27q-32 0 -51 32t-19 80zM303 1616l4 35q0 6 9 19t16.5 17.5t30.5 12.5l20 2l10 -1l7 -1l47 -53l18 -33q0 -6 8 -51t11 -50l36 -49q12 -18 19 -18
l7 -1l11 -1q8 0 11 1q7 0 23.5 7t21.5 12q75 45 84 60q9 6 20 32v19l16 33l58 59l37 16l20 2l12 -1l7 -1q7 0 18 -16l1 -9l1 -16l-1 -15l-1 -9q-1 -2 -5.5 -13.5t-10 -25t-11.5 -26.5t-10 -19q-51 -92 -57 -96q-2 -5 -16.5 -19.5t-20.5 -15.5q-50 -33 -57 -35l-74 -33
q-11 -6 -30.5 -11t-24.5 -5l-16 -1q-18 -1 -21 -1l-37 2l-74 33l-20 16q-10 14 -20 34t-17 36q-6 11 -16.5 36.5t-27 71.5t-16.5 70z" />
    <glyph glyph-name="ebreve" unicode="&#x115;" horiz-adv-x="750" 
d="M526 862q33 0 60 -8q37 0 78 -78q0 -14 6 -30.5t6 -28.5q0 -273 -453 -338q-10 -38 -10 -84t10 -84q0 -19 27 -47.5t96 -79.5q50 -10 82 -10q40 0 86 10q63 0 147.5 35t176.5 121h28v-29q-92 -252 -559 -252q-252 96 -252 307q0 309 420 588q22 8 51 8zM297 516l50 -2
q10 0 63 33t83.5 63t36.5 47q7 15 7 29q0 19 -7 29h-26q-102 -63 -152 -108t-55 -91zM159 1315l4 35q0 6 9 19t16.5 17.5t30.5 12.5l20 2l10 -1l7 -1l47 -53l18 -33q0 -6 8 -51t11 -50l36 -49q12 -18 19 -18l7 -1l11 -1q8 0 11 1q7 0 23.5 7t21.5 12q75 45 84 60q9 6 20 32
v19l16 33l58 59l37 16l20 2l12 -1l7 -1q7 0 18 -16l1 -9l1 -16l-1 -15l-1 -9q-1 -2 -5.5 -13.5t-10 -25t-11.5 -26.5t-10 -19q-51 -92 -57 -96q-2 -5 -16.5 -19.5t-20.5 -15.5q-50 -33 -57 -35l-74 -33q-11 -6 -30.5 -11t-24.5 -5l-16 -1q-18 -1 -21 -1l-37 2l-74 33l-20 16
q-10 14 -20 34t-17 36q-6 11 -16.5 36.5t-27 71.5t-16.5 70z" />
    <glyph glyph-name="Edotaccent" unicode="&#x116;" horiz-adv-x="997" 
d="M135 53q0 62 15.5 271.5t15.5 212.5l24 112q25 118 25 277l-2 82v8q0 51 31 84t84 33q7 -5 24 -5q18 0 90 25q70 21 165 41t294 51q57 0 76.5 -10.5t19.5 -44.5q0 -31 -20.5 -57.5t-48.5 -26.5l-47 2q-179 -11 -266 -39t-179 -90q-32 -32 -59 -120.5t-27 -151.5l2 -58
q65 8 171 50l59 22l46 6q119 18 138 18q41 0 55.5 -9t14.5 -40q0 -40 -27 -47q-38 -27 -70 -39t-77 -14q-90 -7 -195 -59l-23 -11q-90 -39 -111 -58t-28.5 -48.5t-7.5 -112.5q0 -75 9 -108t44 -33q11 0 50.5 9.5t66.5 19.5q50 5 174 25q111 18 145 18q8 0 31.5 -6t36.5 -13
q30 -8 40.5 -17.5t10.5 -39.5q0 -37 -17 -51l-7 -11l-81 -6q-212 -15 -259 -25.5t-166 -58.5q-39 -12 -99 -42q-54 -27 -71 -27q-32 0 -51 32t-19 80zM606 1567l56 -84v-55q0 -41 -84 -84h-29q-45 0 -111 112q28 111 168 111z" />
    <glyph glyph-name="edotaccent" unicode="&#x117;" horiz-adv-x="750" 
d="M526 862q33 0 60 -8q37 0 78 -78q0 -14 6 -30.5t6 -28.5q0 -273 -453 -338q-10 -38 -10 -84t10 -84q0 -19 27 -47.5t96 -79.5q50 -10 82 -10q40 0 86 10q63 0 147.5 35t176.5 121h28v-29q-92 -252 -559 -252q-252 96 -252 307q0 309 420 588q22 8 51 8zM297 516l50 -2
q10 0 63 33t83.5 63t36.5 47q7 15 7 29q0 19 -7 29h-26q-102 -63 -152 -108t-55 -91zM450 1317l56 -84v-55q0 -41 -84 -84h-29q-45 0 -111 112q28 111 168 111z" />
    <glyph glyph-name="Eogonek" unicode="&#x118;" horiz-adv-x="997" 
d="M135 53q0 62 15.5 271.5t15.5 212.5l24 112q25 118 25 277l-2 82v8q0 51 31 84t84 33q7 -5 24 -5q18 0 90 25q70 21 165 41t294 51q57 0 76.5 -10.5t19.5 -44.5q0 -31 -20.5 -57.5t-48.5 -26.5l-47 2q-179 -11 -266 -39t-179 -90q-32 -32 -59 -120.5t-27 -151.5l2 -58
q65 8 171 50l59 22l46 6q119 18 138 18q41 0 55.5 -9t14.5 -40q0 -40 -27 -47q-38 -27 -70 -39t-77 -14q-90 -7 -195 -59l-23 -11q-90 -39 -111 -58t-28.5 -48.5t-7.5 -112.5q0 -75 9 -108t44 -33q11 0 50.5 9.5t66.5 19.5q50 5 174 25q111 18 145 18q8 0 31.5 -6t36.5 -13
q30 -8 40.5 -17.5t10.5 -39.5q0 -37 -17 -51l-7 -11l-107 -8q-110 -113 -155.5 -185.5t-45.5 -96.5v-56h56l194 29l29 -57q0 -71 -223 -111h-140q-62 0 -83 139q0 58 88 221l114 103h-4q-63 -6 -117 -25.5t-112 -42.5q-39 -12 -99 -42q-54 -27 -71 -27q-32 0 -51 32t-19 80z
" />
    <glyph glyph-name="eogonek" unicode="&#x119;" horiz-adv-x="750" 
d="M526 862q33 0 60 -8q37 0 78 -78q0 -14 6 -30.5t6 -28.5q0 -273 -453 -338q-10 -38 -10 -84t10 -84q0 -19 27 -47.5t96 -79.5q50 -10 82 -10q40 0 86 10q63 0 147.5 35t176.5 121h28v-29q-45 -123 -176 -184q-90 -95 -143 -170t-53 -109v-55h55l194 28l29 -57
q0 -71 -223 -110h-139q-63 0 -84 139q0 58 88 221l61 55q-76 -10 -168 -10q-252 96 -252 307q0 309 420 588q22 8 51 8zM297 516l50 -2q10 0 63 33t83.5 63t36.5 47q7 15 7 29q0 19 -7 29h-26q-102 -63 -152 -108t-55 -91z" />
    <glyph glyph-name="Ecaron" unicode="&#x11a;" horiz-adv-x="997" 
d="M135 53q0 62 15.5 271.5t15.5 212.5l24 112q25 118 25 277l-2 82v8q0 51 31 84t84 33q7 -5 24 -5q18 0 90 25q70 21 165 41t294 51q57 0 76.5 -10.5t19.5 -44.5q0 -31 -20.5 -57.5t-48.5 -26.5l-47 2q-179 -11 -266 -39t-179 -90q-32 -32 -59 -120.5t-27 -151.5l2 -58
q65 8 171 50l59 22l46 6q119 18 138 18q41 0 55.5 -9t14.5 -40q0 -40 -27 -47q-38 -27 -70 -39t-77 -14q-90 -7 -195 -59l-23 -11q-90 -39 -111 -58t-28.5 -48.5t-7.5 -112.5q0 -75 9 -108t44 -33q11 0 50.5 9.5t66.5 19.5q50 5 174 25q111 18 145 18q8 0 31.5 -6t36.5 -13
q30 -8 40.5 -17.5t10.5 -39.5q0 -37 -17 -51l-7 -11l-81 -6q-212 -15 -259 -25.5t-166 -58.5q-39 -12 -99 -42q-54 -27 -71 -27q-32 0 -51 32t-19 80zM840 1739q18 0 35.5 -12t17.5 -29q0 -23 -6 -35q-115 -170 -165 -231t-89 -90t-72 -29q-13 0 -28 6l-84 89
q-77 77 -109.5 126.5t-32.5 91.5q0 45 19.5 69.5t42.5 24.5q14 0 25.5 -5t25.5 -5l25 -42q66 -121 93 -156t44 -35q14 0 33 12q50 20 202 237q4 13 23 13z" />
    <glyph glyph-name="ecaron" unicode="&#x11b;" horiz-adv-x="750" 
d="M526 862q33 0 60 -8q37 0 78 -78q0 -14 6 -30.5t6 -28.5q0 -273 -453 -338q-10 -38 -10 -84t10 -84q0 -19 27 -47.5t96 -79.5q50 -10 82 -10q40 0 86 10q63 0 147.5 35t176.5 121h28v-29q-92 -252 -559 -252q-252 96 -252 307q0 309 420 588q22 8 51 8zM297 516l50 -2
q10 0 63 33t83.5 63t36.5 47q7 15 7 29q0 19 -7 29h-26q-102 -63 -152 -108t-55 -91zM676 1397q18 0 35.5 -12t17.5 -29q0 -23 -6 -35q-115 -170 -165 -231t-89 -90t-72 -29q-13 0 -28 6l-84 89q-77 77 -109.5 126.5t-32.5 91.5q0 45 19.5 69.5t42.5 24.5q14 0 25.5 -5
t25.5 -5l25 -42q66 -121 93 -156t44 -35q14 0 33 12q50 20 202 237q4 13 23 13z" />
    <glyph glyph-name="Gcircumflex" unicode="&#x11c;" horiz-adv-x="1294" 
d="M938 1319q46 0 113 -113q8 -19 8 -53q0 -29 -4 -56.5t-4 -56.5q0 -40 -84 -84q-58 0 -58 56q0 43 29 55q-29 60 -29 84q-156 -32 -339.5 -222t-315.5 -450q-16 -42 -22 -146l-5 -44q0 -50 28.5 -100t75 -71.5t124.5 -21.5q218 24 349 74.5t192 132.5t61 182q0 32 -6 47
q-3 5 -15 5h-14q-87 -5 -151.5 -26t-118.5 -44q-91 -41 -150 -41q-20 0 -33 25t-22 104q0 69 112 84q26 0 84 -29q173 35 249 62t118 63l13 2q37 0 42 -2q80 -25 80 -141q-29 -50 -45 -98t-39 -99q2 -41 2 -53q0 -67 -14 -100q-98 -196 -98 -518q0 -75 84 -195
q0 -57 -58 -57q-168 144 -168 280l8 60q36 194 48 274q-86 -18 -156.5 -38t-138.5 -36.5t-139.5 -27.5t-159.5 -11l-21 2q-250 44 -250 224q-12 6 -20 16t-8 39q0 159 95 346.5t279 379.5t381 308q47 29 111 29zM688 1865q39 0 91.5 -68.5t111.5 -222.5q14 0 37.5 -16.5
t39 -42t15.5 -55.5q0 -21 -21 -37t-52 -16t-107 102q-80 108 -104 119q-77 -113 -118.5 -163t-68.5 -50q-44 0 -61 15.5t-17 43.5q0 32 13 45q96 101 135 170t53 144q16 16 53 32z" />
    <glyph glyph-name="gcircumflex" unicode="&#x11d;" horiz-adv-x="725" 
d="M467 895q223 -88 223 -141l15 -76q-70 -199 -99 -342l49 -506q-107 -588 -446 -588h-141q-418 49 -418 309l55 27h55q0 -194 308 -194h84q283 0 315 268q47 89 47 207l-20 350v84l-27 -41q-138 -252 -336 -252q-113 27 -113 139q0 230 449 756zM160 195l12 -37l43 10
q162 112 279 336v194h-27q-271 -286 -307 -503zM440 1421q39 0 91.5 -68.5t111.5 -222.5q14 0 37.5 -16.5t39 -42t15.5 -55.5q0 -21 -21 -37t-52 -16t-107 102q-80 108 -104 119q-77 -113 -118.5 -163t-68.5 -50q-44 0 -61 15.5t-17 43.5q0 32 13 45q96 101 135 170t53 144
q16 16 53 32z" />
    <glyph glyph-name="Gbreve" unicode="&#x11e;" horiz-adv-x="1294" 
d="M938 1319q46 0 113 -113q8 -19 8 -53q0 -29 -4 -56.5t-4 -56.5q0 -40 -84 -84q-58 0 -58 56q0 43 29 55q-29 60 -29 84q-156 -32 -339.5 -222t-315.5 -450q-16 -42 -22 -146l-5 -44q0 -50 28.5 -100t75 -71.5t124.5 -21.5q218 24 349 74.5t192 132.5t61 182q0 32 -6 47
q-3 5 -15 5h-14q-87 -5 -151.5 -26t-118.5 -44q-91 -41 -150 -41q-20 0 -33 25t-22 104q0 69 112 84q26 0 84 -29q173 35 249 62t118 63l13 2q37 0 42 -2q80 -25 80 -141q-29 -50 -45 -98t-39 -99q2 -41 2 -53q0 -67 -14 -100q-98 -196 -98 -518q0 -75 84 -195
q0 -57 -58 -57q-168 144 -168 280l8 60q36 194 48 274q-86 -18 -156.5 -38t-138.5 -36.5t-139.5 -27.5t-159.5 -11l-21 2q-250 44 -250 224q-12 6 -20 16t-8 39q0 159 95 346.5t279 379.5t381 308q47 29 111 29zM426 1698l4 35q0 6 9 19t16.5 17.5t30.5 12.5l20 2l10 -1
l7 -1l47 -53l18 -33q0 -6 8 -51t11 -50l36 -49q12 -18 19 -18l7 -1l11 -1q8 0 11 1q7 0 23.5 7t21.5 12q75 45 84 60q9 6 20 32v19l16 33l58 59l37 16l20 2l12 -1l7 -1q7 0 18 -16l1 -9l1 -16l-1 -15l-1 -9q-1 -2 -5.5 -13.5t-10 -25t-11.5 -26.5t-10 -19q-51 -92 -57 -96
q-2 -5 -16.5 -19.5t-20.5 -15.5q-50 -33 -57 -35l-74 -33q-11 -6 -30.5 -11t-24.5 -5l-16 -1q-18 -1 -21 -1l-37 2l-74 33l-20 16q-10 14 -20 34t-17 36q-6 11 -16.5 36.5t-27 71.5t-16.5 70z" />
    <glyph glyph-name="gbreve" unicode="&#x11f;" horiz-adv-x="725" 
d="M467 895q223 -88 223 -141l15 -76q-70 -199 -99 -342l49 -506q-107 -588 -446 -588h-141q-418 49 -418 309l55 27h55q0 -194 308 -194h84q283 0 315 268q47 89 47 207l-20 350v84l-27 -41q-138 -252 -336 -252q-113 27 -113 139q0 230 449 756zM160 195l12 -37l43 10
q162 112 279 336v194h-27q-271 -286 -307 -503zM151 1315l4 35q0 6 9 19t16.5 17.5t30.5 12.5l20 2l10 -1l7 -1l47 -53l18 -33q0 -6 8 -51t11 -50l36 -49q12 -18 19 -18l7 -1l11 -1q8 0 11 1q7 0 23.5 7t21.5 12q75 45 84 60q9 6 20 32v19l16 33l58 59l37 16l20 2l12 -1
l7 -1q7 0 18 -16l1 -9l1 -16l-1 -15l-1 -9q-1 -2 -5.5 -13.5t-10 -25t-11.5 -26.5t-10 -19q-51 -92 -57 -96q-2 -5 -16.5 -19.5t-20.5 -15.5q-50 -33 -57 -35l-74 -33q-11 -6 -30.5 -11t-24.5 -5l-16 -1q-18 -1 -21 -1l-37 2l-74 33l-20 16q-10 14 -20 34t-17 36
q-6 11 -16.5 36.5t-27 71.5t-16.5 70z" />
    <glyph glyph-name="Gdotaccent" unicode="&#x120;" horiz-adv-x="1294" 
d="M938 1319q46 0 113 -113q8 -19 8 -53q0 -29 -4 -56.5t-4 -56.5q0 -40 -84 -84q-58 0 -58 56q0 43 29 55q-29 60 -29 84q-156 -32 -339.5 -222t-315.5 -450q-16 -42 -22 -146l-5 -44q0 -50 28.5 -100t75 -71.5t124.5 -21.5q218 24 349 74.5t192 132.5t61 182q0 32 -6 47
q-3 5 -15 5h-14q-87 -5 -151.5 -26t-118.5 -44q-91 -41 -150 -41q-20 0 -33 25t-22 104q0 69 112 84q26 0 84 -29q173 35 249 62t118 63l13 2q37 0 42 -2q80 -25 80 -141q-29 -50 -45 -98t-39 -99q2 -41 2 -53q0 -67 -14 -100q-98 -196 -98 -518q0 -75 84 -195
q0 -57 -58 -57q-168 144 -168 280l8 60q36 194 48 274q-86 -18 -156.5 -38t-138.5 -36.5t-139.5 -27.5t-159.5 -11l-21 2q-250 44 -250 224q-12 6 -20 16t-8 39q0 159 95 346.5t279 379.5t381 308q47 29 111 29zM723 1659l56 -84v-55q0 -41 -84 -84h-29q-45 0 -111 112
q28 111 168 111z" />
    <glyph glyph-name="gdotaccent" unicode="&#x121;" horiz-adv-x="725" 
d="M467 895q223 -88 223 -141l15 -76q-70 -199 -99 -342l49 -506q-107 -588 -446 -588h-141q-418 49 -418 309l55 27h55q0 -194 308 -194h84q283 0 315 268q47 89 47 207l-20 350v84l-27 -41q-138 -252 -336 -252q-113 27 -113 139q0 230 449 756zM160 195l12 -37l43 10
q162 112 279 336v194h-27q-271 -286 -307 -503zM450 1317l56 -84v-55q0 -41 -84 -84h-29q-45 0 -111 112q28 111 168 111z" />
    <glyph glyph-name="Gcommaaccent" unicode="&#x122;" horiz-adv-x="1294" 
d="M938 1319q46 0 113 -113q8 -19 8 -53q0 -29 -4 -56.5t-4 -56.5q0 -40 -84 -84q-58 0 -58 56q0 43 29 55q-29 60 -29 84q-156 -32 -339.5 -222t-315.5 -450q-16 -42 -22 -146l-5 -44q0 -50 28.5 -100t75 -71.5t124.5 -21.5q218 24 349 74.5t192 132.5t61 182q0 32 -6 47
q-3 5 -15 5h-14q-87 -5 -151.5 -26t-118.5 -44q-91 -41 -150 -41q-20 0 -33 25t-22 104q0 69 112 84q26 0 84 -29q173 35 249 62t118 63l13 2q37 0 42 -2q80 -25 80 -141q-29 -50 -45 -98t-39 -99q2 -41 2 -53q0 -67 -14 -100q-98 -196 -98 -518q0 -75 84 -195
q0 -57 -58 -57q-168 144 -168 280l8 60q36 194 48 274q-86 -18 -156.5 -38t-138.5 -36.5t-139.5 -27.5t-159.5 -11l-21 2q-250 44 -250 224q-12 6 -20 16t-8 39q0 159 95 346.5t279 379.5t381 308q47 29 111 29zM584 -168q65 0 105 -33.5t40 -107.5l-4 -29q-4 -15 -4 -32
q0 -66 -47.5 -118t-138.5 -103q-29 -13 -50 -13t-38 18t-17 38q0 26 12 38q16 5 29 6t27 7q44 28 63 58.5t23 84.5q-7 8 -25 8q-46 0 -67 22.5t-21 53.5q22 67 78 96z" />
    <glyph glyph-name="gcommaaccent" unicode="&#x123;" horiz-adv-x="725" 
d="M467 895q223 -88 223 -141l15 -76q-70 -199 -99 -342l49 -506q-107 -588 -446 -588h-141q-418 49 -418 309l55 27h55q0 -194 308 -194h84q283 0 315 268q47 89 47 207l-20 350v84l-27 -41q-138 -252 -336 -252q-113 27 -113 139q0 230 449 756zM160 195l12 -37l43 10
q162 112 279 336v194h-27q-271 -286 -307 -503zM497.03 1013.99q-64.9922 0 -104.987 33.4961t-39.9951 107.487l3.99902 28.9961q4 14.998 4 31.9961q0 65.9922 47.4941 117.985q47.4941 51.9941 138.483 102.988q28.9961 12.998 49.9932 12.998q20.998 0 37.9961 -17.998
t16.998 -37.9951q0 -25.9971 -11.999 -37.9951q-15.998 -5 -28.9961 -6q-12.999 -1 -26.9971 -6.99902q-43.9941 -27.9961 -62.9922 -58.4922q-18.998 -30.4971 -22.9971 -84.4902q6.99902 -7.99902 24.9971 -7.99902q45.9941 0 66.9912 -22.4971
q20.998 -22.4971 20.998 -53.4932q-21.998 -66.9922 -77.9912 -95.9883z" />
    <glyph glyph-name="Hcircumflex" unicode="&#x124;" horiz-adv-x="1016" 
d="M764 1352q-32 20 -100 113q-67 91 -91 102q-86 -126 -123.5 -169.5t-62.5 -43.5q-44 0 -61 15.5t-17 43.5q0 32 13 45q90 95 131 164t57 150q16 16 53 32q38 0 91 -68.5t112 -222.5q14 0 38 -17.5t39 -42.5t15 -54q0 -24 -20 -37q31 -11 58 -39t36 -63q-57 -76 -84 -644
q168 0 168 -55q-43 -112 -84 -112q-48 28 -92 28l-11 -55l-10 -197q0 -332 45 -500.5t123 -168.5h29l82 55l28 -10q0 -83 -37.5 -135t-101.5 -52q-307 0 -307 756v84q0 31 2 58.5t16 52.5q-14 29 -14 88q-75 -12 -222 -47q-128 -31 -202 -39v-142q55 -67 55 -110
q-45 -142 -168 -142q-20 0 -37.5 28t-17.5 56l139 1008q40 14 66 14q45 0 73.5 -32t28.5 -95q-110 -253 -110 -391q5 -13 25.5 -21t33.5 -8h25q134 0 334 58l28 391l-20 250q23 40 47 119z" />
    <glyph glyph-name="hcircumflex" unicode="&#x125;" horiz-adv-x="733" 
d="M326 1901q38 0 91 -68.5t111 -222.5q15 0 39 -17.5t39 -43t15 -54.5q0 -21 -21 -37t-53 -16q-30 0 -106 102q-79 107 -105 119q-70 -103 -117 -162l21 -35q-20 -446 -56 -446l29 -55v-111q0 -66 -6 -109l-2 -39q0 -48 8 -133l2 -90q73 185 270 398q113 -40 113 -84v-365
q0 -171 84 -389q29 0 55.5 6.5t57.5 11.5q10 -47 10 -96q0 -29 -31 -49t-92 -35q-198 0 -223 737v62l-29 -33q-94 -152 -132 -259.5t-38 -205.5v-112q0 -41 -84 -84q-23 0 -46 27.5t-58 84.5l28 168q0 147 -28 531v223q0 26 28 84q-28 156 -28 252v153q0 33 12 45
q86 88 128.5 158t59.5 156q14 13 54 33z" />
    <glyph glyph-name="Hbar" unicode="&#x126;" horiz-adv-x="1130" 
d="M936 1288q46 0 77 -22t36 -90v-11q0 -37 -15 -73.5t-24 -71.5l-2 -27l155 -16q19 0 32 -16t13 -33q0 -22 -22 -31l-21 -3q-43 -9 -86 -9l-80 4q-6 -103 -30 -103q5 -14 11.5 -26.5t8.5 -26.5q2 -25 2 -33q0 -38 -6.5 -75.5t-9.5 -75.5v-37q0 -173 72 -469l-5 -53
q-6 -49 -51 -49h-6l-78 6q-63 467 -63 602v10q-42 10 -115 10q-75 0 -170 -9.5t-211 -18.5l-4 -52q0 -167 19.5 -244t66.5 -124q2 -34 11.5 -69.5t9.5 -69.5q0 -31 -15 -56q-11 -18 -61 -35l-23 -10q-57 5 -90 165t-47 478q-47 4 -85 20.5t-38 35.5q0 18 13.5 28.5
t33.5 19.5t43.5 20t44.5 32q11 38 11 78.5t2 81.5q0 6 -19 6q-26 0 -115 -17q-89 -18 -106 -18q-20 49 -20 74v6l14 26q16 29 28 39.5t29 10.5q30 0 86 -13l29 -4q44 21 74 21h8q6 12 6 28l-2 25q-12 22 -25.5 46.5t-13.5 49.5q0 57 33 91.5t100 41.5q30 -6 49.5 -29.5
t24.5 -56.5v-12q0 -30 -25 -88q-16 -37 -16 -68l2 -12q14 -14 27 -14q167 0 469 31q6 27 6 53q0 38 -11 97q-12 59 -12 81q0 25 12.5 34.5t28 14t35.5 4.5zM371 858q-3 -42 -8 -84.5t-5 -85.5v-16l27 -2h27q99 0 333 32l111 13l12 157l-26 2l-445 -18z" />
    <glyph glyph-name="hbar" unicode="&#x127;" horiz-adv-x="809" 
d="M483 649q-18 0 -58.5 -65.5t-84.5 -157.5q-12 -23 -36.5 -102.5t-29.5 -115.5q-15 -116 -20 -130q0 -17 -15 -42t-37.5 -50t-25.5 -25q-6 0 -8 1q-12 0 -43 39.5t-31 98.5l2 183l23 137v16l-2 131q0 56 13 136q13 79 13 153q0 89 -6 120.5t-18 31.5h-25l-18 -2
q-50 -13 -56 -13h-16q-16 5 -43 40t-27 52q0 6 9 22l14 26q20 20 50 44.5t42 24.5h8l64 -2q35 0 50 34.5t16.5 141.5t2.5 166l22 10q32 17 67 17q47 0 59 -20t12 -76q0 -35 -13.5 -107.5t-35.5 -142.5h23q41 12 68.5 20t182.5 25h15q17 0 25 -10.5t8 -49.5q0 -26 -5.5 -34
t-49.5 -23.5t-78 -25.5q-107 -32 -150.5 -53.5t-60.5 -55.5q-25 -300 -25 -342v-139l70 139q4 0 28.5 38.5t59.5 99.5t49 89q14 20 22 23.5t35 3.5q32 0 50.5 -7t28.5 -22t24 -68q20 -61 34 -247q37 -316 44 -358t15.5 -60.5t20.5 -18.5l70 21q24 0 24 -57q0 -47 -47 -103
q-11 -11 -57 -39t-59 -28q-3 1 -31.5 29t-36.5 38l-23 45l-24 115l-1 29l-20 247l-22 136z" />
    <glyph glyph-name="Itilde" unicode="&#x128;" horiz-adv-x="420" 
d="M139 133l5 82q18 314 18 477q0 202 -18 342l-9 80q0 52 32 91.5t73 39.5q2 -6 9 -8q35 -13 48 -33t20 -53.5t7 -83.5q0 -66 -31 -205q-2 0 -10.5 -53t-8.5 -82v-100q0 -141 15 -353q37 -28 48 -67.5t11 -112.5q-10 -49 -28 -72.5t-64 -50.5l-28 8q-30 6 -45 14.5
t-25 24.5q-13 36 -19 115zM522 1788q28 0 49 -22.5t21 -51.5q0 -15 -6 -24l-3 -15q-22 -109 -81.5 -182.5t-141.5 -95.5q-15 -2 -20 -2l-39 2q-25 0 -90 46t-84 46h-6q-23 -12 -38.5 -37t-28 -49.5t-22.5 -43t-22 -18.5q-70 0 -70 76q0 71 30.5 114.5t131.5 100.5
q18 10 43 10q11 0 68 -10q33 -8 85 -58l27 -24l29 -6q72 0 117 201q0 20 16 31.5t35 11.5z" />
    <glyph glyph-name="itilde" unicode="&#x129;" horiz-adv-x="375" 
d="M227 829q35 -17 35 -53q0 -29 -22 -57q14 -35 14 -82l-3 -55q-18 -145 -18 -209l21 -101q14 -69 45 -110q0 -69 -11 -104.5t-36 -50.5t-82 -15q-35 21 -55 57q0 28 28 82q-12 45 -14 113q-9 219 -15.5 281.5t-18 111.5t-27.5 86q27 56 64.5 81t94.5 25zM442 1446
q28 0 49 -22.5t21 -51.5q0 -15 -6 -24l-3 -15q-22 -109 -81.5 -182.5t-141.5 -95.5q-15 -2 -20 -2l-39 2q-25 0 -90 46t-84 46h-6q-23 -12 -38.5 -37t-28 -49.5t-22.5 -43t-22 -18.5q-70 0 -70 76q0 71 30.5 114.5t131.5 100.5q18 10 43 10q11 0 68 -10q33 -8 85 -58l27 -24
l29 -6q72 0 117 201q0 20 16 31.5t35 11.5z" />
    <glyph glyph-name="Imacron" unicode="&#x12a;" horiz-adv-x="420" 
d="M139 133l5 82q18 314 18 477q0 202 -18 342l-9 80q0 52 32 91.5t73 39.5q2 -6 9 -8q35 -13 48 -33t20 -53.5t7 -83.5q0 -66 -31 -205q-2 0 -10.5 -53t-8.5 -82v-100q0 -141 15 -353q37 -28 48 -67.5t11 -112.5q-10 -49 -28 -72.5t-64 -50.5l-28 8q-30 6 -45 14.5
t-25 24.5q-13 36 -19 115zM70 1452q-39 0 -76 24t-37 46q0 27 12 43t42 26l30 11q58 -7 145 -7h111q17 0 37 7.5t37 7.5q54 0 123 -15q20 -27 20 -61q0 -27 -20 -33q-49 -6 -113.5 -14.5t-127 -16t-112.5 -13t-71 -5.5z" />
    <glyph glyph-name="imacron" unicode="&#x12b;" horiz-adv-x="375" 
d="M227 829q35 -17 35 -53q0 -29 -22 -57q14 -35 14 -82l-3 -55q-18 -145 -18 -209l21 -101q14 -69 45 -110q0 -69 -11 -104.5t-36 -50.5t-82 -15q-35 21 -55 57q0 28 28 82q-12 45 -14 113q-9 219 -15.5 281.5t-18 111.5t-27.5 86q27 56 64.5 81t94.5 25zM10 1069
q-39 0 -76 24t-37 46q0 27 12 43t42 26l30 11q58 -7 145 -7h111q17 0 37 7.5t37 7.5q54 0 123 -15q20 -27 20 -61q0 -27 -20 -33q-49 -6 -113.5 -14.5t-127 -16t-112.5 -13t-71 -5.5z" />
    <glyph glyph-name="Iogonek" unicode="&#x12e;" horiz-adv-x="420" 
d="M156 25q-11 31 -17 108l5 82q18 314 18 477q0 202 -18 342l-9 80q0 52 32 91.5t73 39.5q2 -6 9 -8q35 -13 48 -33t20 -53.5t7 -83.5q0 -66 -31 -205q-2 0 -10.5 -53t-8.5 -82v-100q0 -141 15 -353q37 -28 48 -67.5t11 -112.5q-11 -48 -27.5 -70.5t-48.5 -41.5
q-34 -42 -59 -90t-25 -74v-56h56l194 29l29 -57q0 -71 -223 -111h-140q-62 0 -84 139q0 55 89 222z" />
    <glyph glyph-name="iogonek" unicode="&#x12f;" horiz-adv-x="375" 
d="M168 840h84q10 -13 29 -82l-58 -365q1 -47 23 -123t59 -159l2 -56q-166 -159 -166 -241v-56h56l194 29l29 -57q0 -71 -223 -111h-140q-62 0 -84 139q0 56 88 222l74 65l-22 125v391l-58 197zM209 1343l55 -83v-56q0 -41 -84 -84h-28q-44 0 -111 113q27 110 168 110z" />
    <glyph glyph-name="Idotaccent" unicode="&#x130;" horiz-adv-x="420" 
d="M139 133l5 82q18 314 18 477q0 202 -18 342l-9 80q0 52 32 91.5t73 39.5q2 -6 9 -8q35 -13 48 -33t20 -53.5t7 -83.5q0 -66 -31 -205q-2 0 -10.5 -53t-8.5 -82v-100q0 -141 15 -353q37 -28 48 -67.5t11 -112.5q-10 -49 -28 -72.5t-64 -50.5l-28 8q-30 6 -45 14.5
t-25 24.5q-13 36 -19 115zM280 1639l56 -84v-55q0 -41 -84 -84h-29q-45 0 -111 112q28 111 168 111z" />
    <glyph glyph-name="dotlessi" unicode="&#x131;" horiz-adv-x="375" 
d="M227 829q35 -17 35 -53q0 -29 -22 -57q14 -35 14 -82l-3 -55q-18 -145 -18 -209l21 -101q14 -69 45 -110q0 -69 -11 -104.5t-36 -50.5t-82 -15q-35 21 -55 57q0 28 28 82q-12 45 -14 113q-9 219 -15.5 281.5t-18 111.5t-27.5 86q27 56 64.5 81t94.5 25z" />
    <glyph glyph-name="IJ" unicode="&#x132;" horiz-adv-x="1384" 
d="M139 133l5 82q18 314 18 477q0 202 -18 342l-9 80q0 52 32 91.5t73 39.5q2 -6 9 -8q35 -13 48 -33t20 -53.5t7 -83.5q0 -66 -31 -205q-2 0 -10.5 -53t-8.5 -82v-100q0 -141 15 -353q37 -28 48 -67.5t11 -112.5q-10 -49 -28 -72.5t-64 -50.5l-28 8q-30 6 -45 14.5
t-25 24.5q-13 36 -19 115zM965 1386q84 0 84 -167l340 26q9 -9 23 -17t14 -24q0 -85 -64 -94h-43l-121 4q-30 0 -47 -4l-76 -2q47 -108 87 -275.5t68 -369t28 -309.5q0 -224 -252 -224q-62 0 -86.5 7.5t-103.5 54.5q-135 79 -242 139q-66 0 -102 39t-36 104q0 21 72 59
l39 21q15 6 27 6q22 0 28 -6q0 -54 18 -85t60 -60.5t113.5 -64t177.5 -74.5h20q66 0 105 32q11 17 12.5 37t1.5 43q0 199 -41.5 442t-109.5 429q-14 20 -30.5 30.5t-47.5 10.5q-153 -20 -260 -64q0 -31 -14 -43t-25 -12q-69 0 -110.5 38.5t-41.5 104.5q0 28 50.5 42
t203.5 28l51 2q105 6 127 88q0 32 8 60t37 42z" />
    <glyph glyph-name="ij" unicode="&#x133;" horiz-adv-x="758" 
d="M209 1343l55 -83v-56q0 -41 -84 -84h-28q-44 0 -111 113q27 110 168 110zM168 840h84q0 -29 29 -82l-58 -365q0 -78 84 -278q-26 -52 -26 -84h-142l-26 139v391l-58 197zM588 1456q11 0 18.5 -14.5t7.5 -36.5q0 -29 -9 -59.5t-9 -59.5q0 -55 -84 -55q-111 39 -111 84
q15 137 166 137zM540 922q67 -23 78 -50l6 -61q0 -211 56 -1257q-50 -281 -250 -281q-252 117 -252 252h55q119 -113 223 -113q64 76 111 226q-71 1118 -166 1118v26q47 140 139 140z" />
    <glyph glyph-name="Jcircumflex" unicode="&#x134;" horiz-adv-x="965" 
d="M545 1386q84 0 84 -167l340 26q9 -9 23 -17t14 -24q0 -85 -64 -94h-43l-121 4q-30 0 -47 -4l-76 -2q47 -108 87 -275.5t68 -369t28 -309.5q0 -224 -252 -224q-62 0 -86.5 7.5t-103.5 54.5q-135 79 -242 139q-66 0 -102 39t-36 104q0 21 72 59l39 21q15 6 27 6q22 0 28 -6
q0 -54 18 -85t60 -60.5t113.5 -64t177.5 -74.5h20q66 0 105 32q11 17 12.5 37t1.5 43q0 199 -41.5 442t-109.5 429q-14 20 -30.5 30.5t-47.5 10.5q-153 -20 -260 -64q0 -31 -14 -43t-25 -12q-69 0 -110.5 38.5t-41.5 104.5q0 28 50.5 42t203.5 28l51 2q105 6 127 88
q0 32 8 60t37 42zM503 1908q39 0 91.5 -68.5t111.5 -222.5q14 0 37.5 -16.5t39 -42t15.5 -55.5q0 -21 -21 -37t-52 -16t-107 102q-80 108 -104 119q-77 -113 -118.5 -163t-68.5 -50q-44 0 -61 15.5t-17 43.5q0 32 13 45q96 101 135 170t53 144q16 16 53 32z" />
    <glyph glyph-name="jcircumflex" unicode="&#x135;" horiz-adv-x="362" 
d="M145 922q67 -23 78 -50l6 -61q0 -211 56 -1257q-50 -281 -250 -281q-252 117 -252 252h55q119 -113 223 -113q64 76 111 226q-71 1118 -166 1118v26q47 140 139 140zM120 1421q39 0 91.5 -68.5t111.5 -222.5q14 0 37.5 -16.5t39 -42t15.5 -55.5q0 -21 -21 -37t-52 -16
t-107 102q-80 108 -104 119q-77 -113 -118.5 -163t-68.5 -50q-44 0 -61 15.5t-17 43.5q0 32 13 45q96 101 135 170t53 144q16 16 53 32z" />
    <glyph glyph-name="Kcommaaccent" unicode="&#x136;" horiz-adv-x="1141" 
d="M135 1178q0 44 32 74t71 30q52 0 87 -51.5t35 -134.5q0 -20 -32 -57l-6 -11q-27 -51 -27 -154v-118q0 -90 3.5 -154.5t8.5 -64.5q38 5 243 242.5t255 361.5q20 34 38 41.5t52 7.5q38 0 59 -10t33 -39q0 -98 -15.5 -127.5t-64.5 -52.5q-81 -77 -203.5 -208.5
t-201.5 -228.5q-11 -7 -25 -26t-14 -35q0 -13 35 -38.5t102 -62t161 -81t154.5 -54t148.5 -12.5q57 -2 92 -19.5t52 -56.5q0 -36 -37.5 -63t-80.5 -27q-5 0 -62 5.5t-85 9t-36 6.5q-75 18 -134 39t-183 84l-91 45l-159 75q-3 0 -10.5 -15t-7.5 -22v-342q0 -7 -14.5 -16.5
t-30.5 -18.5l-17 -12q-22 0 -38.5 2.5t-22.5 22.5q-41 482 -41 1092q0 38 -11 104zM606 -89q65 0 105 -33.5t40 -107.5l-4 -29q-4 -15 -4 -32q0 -66 -47.5 -118t-138.5 -103q-29 -13 -50 -13t-38 18t-17 38q0 26 12 38q16 5 29 6t27 7q44 28 63 58.5t23 84.5q-7 8 -25 8
q-46 0 -67 22.5t-21 53.5q22 67 78 96z" />
    <glyph glyph-name="kcommaaccent" unicode="&#x137;" horiz-adv-x="891" 
d="M215 1458h55q58 -9 58 -55q-57 -330 -82 -860l131 162l174 194h55q56 -6 56 -55v-29l-334 -362q232 -154 391 -154q77 7 143 31q29 0 29 -43q0 -35 -33 -54q-64 -73 -168 -73q-156 0 -463 153v-26l17 -281q-43 -112 -84 -112q-42 0 -84 83q84 1108 84 1231v195
q9 55 55 55zM488 -48q65 0 105 -33.5t40 -107.5l-4 -29q-4 -15 -4 -32q0 -66 -47.5 -118t-138.5 -103q-29 -13 -50 -13t-38 18t-17 38q0 26 12 38q16 5 29 6t27 7q44 28 63 58.5t23 84.5q-7 8 -25 8q-46 0 -67 22.5t-21 53.5q22 67 78 96z" />
    <glyph glyph-name="Lacute" unicode="&#x139;" horiz-adv-x="1030" 
d="M242 1186q29 0 60 -18t52 -40q-57 -269 -57 -811q0 -71 10.5 -103.5t32.5 -50.5t61 -18q15 0 35 5q202 54 300 68.5t218 14.5q29 -25 29 -67q0 -29 -21 -50.5t-49 -21.5h-26q-110 0 -208 -12.5t-191.5 -36.5t-274.5 -90q-35 0 -59.5 23t-24.5 61q57 733 57 950
q-6 29 -19 57t-13 56q0 35 28.5 59.5t59.5 24.5zM581 1692l27 -19q10 -8 10 -29q0 -27 -18 -45q-38 0 -96 -77.5t-113 -198.5q0 -55 -111 -55l-43 77v29q118 153 203.5 235.5t140.5 82.5z" />
    <glyph glyph-name="lacute" unicode="&#x13a;" horiz-adv-x="334" 
d="M174 1481h84q55 -9 55 -56q-95 -816 -95 -1217l1 -73l57 -110q0 -42 -83 -84h-29q-57 0 -84 165l94 1151l-29 140q29 56 29 84zM487 2003l27 -19q10 -8 10 -29q0 -27 -18 -45q-38 0 -96 -77.5t-113 -198.5q0 -55 -111 -55l-43 77v29q118 153 203.5 235.5t140.5 82.5z" />
    <glyph glyph-name="Lcommaaccent" unicode="&#x13b;" horiz-adv-x="1004" 
d="M242 1186q29 0 60 -18t52 -40q-57 -269 -57 -811q0 -71 10.5 -103.5t32.5 -50.5t61 -18q15 0 35 5q202 54 300 68.5t218 14.5q29 -25 29 -67q0 -29 -21 -50.5t-49 -21.5h-26q-110 0 -208 -12.5t-191.5 -36.5t-274.5 -90q-35 0 -59.5 23t-24.5 61q57 733 57 950
q-6 29 -19 57t-13 56q0 35 28.5 59.5t59.5 24.5zM545 -109q65 0 105 -33.5t40 -107.5l-4 -29q-4 -15 -4 -32q0 -66 -47.5 -118t-138.5 -103q-29 -13 -50 -13t-38 18t-17 38q0 26 12 38q16 5 29 6t27 7q44 28 63 58.5t23 84.5q-7 8 -25 8q-46 0 -67 22.5t-21 53.5
q22 67 78 96z" />
    <glyph glyph-name="lcommaaccent" unicode="&#x13c;" horiz-adv-x="348" 
d="M174 1481h84q55 -9 55 -56q-95 -816 -95 -1217l1 -73l57 -110q0 -42 -83 -84h-29q-57 0 -84 165l94 1151l-29 140q29 56 29 84zM160 -148q65 0 105 -33.5t40 -107.5l-4 -29q-4 -15 -4 -32q0 -66 -47.5 -118t-138.5 -103q-29 -13 -50 -13t-38 18t-17 38q0 26 12 38
q16 5 29 6t27 7q44 28 63 58.5t23 84.5q-7 8 -25 8q-46 0 -67 22.5t-21 53.5q22 67 78 96z" />
    <glyph glyph-name="Lcaron" unicode="&#x13d;" horiz-adv-x="1004" 
d="M242 1186q29 0 60 -18t52 -40q-57 -269 -57 -811q0 -71 10.5 -103.5t32.5 -50.5t61 -18q15 0 35 5q202 54 300 68.5t218 14.5q29 -25 29 -67q0 -29 -21 -50.5t-49 -21.5h-26q-110 0 -208 -12.5t-191.5 -36.5t-274.5 -90q-35 0 -59.5 23t-24.5 61q57 733 57 950
q-6 29 -19 57t-13 56q0 35 28.5 59.5t59.5 24.5zM735 1333q65 0 105 -33.5t40 -107.5l-4 -29q-4 -16 -4 -33q0 -79 -52.5 -153t-140.5 -123q-26 -12 -49 -12q-21 0 -38 17.5t-17 37.5q0 27 12 39q16 5 29 5.5t27 6.5q36 22 65 72.5t29 101.5q0 19 -2 25q-7 8 -25 8
q-38 0 -63 21.5t-25 54.5q17 63 78 96z" />
    <glyph glyph-name="lcaron" unicode="&#x13e;" horiz-adv-x="348" 
d="M174 1481h84q55 -9 55 -56q-95 -816 -95 -1217l1 -73l57 -110q0 -42 -83 -84h-29q-57 0 -84 165l94 1151l-29 140q29 56 29 84zM522 1333q65 0 105 -33.5t40 -107.5l-4 -29q-4 -16 -4 -33q0 -79 -52.5 -153t-140.5 -123q-26 -12 -49 -12q-21 0 -38 17.5t-17 37.5
q0 27 12 39q16 5 29 5.5t27 6.5q36 22 65 72.5t29 101.5q0 19 -2 25q-7 8 -25 8q-38 0 -63 21.5t-25 54.5q17 63 78 96z" />
    <glyph glyph-name="Ldot" unicode="&#x13f;" horiz-adv-x="1004" 
d="M242 1186q29 0 60 -18t52 -40q-57 -269 -57 -811q0 -71 10.5 -103.5t32.5 -50.5t61 -18q15 0 35 5q202 54 300 68.5t218 14.5q29 -25 29 -67q0 -29 -21 -50.5t-49 -21.5h-26q-110 0 -208 -12.5t-191.5 -36.5t-274.5 -90q-35 0 -59.5 23t-24.5 61q57 733 57 950
q-6 29 -19 57t-13 56q0 35 28.5 59.5t59.5 24.5zM751 723l56 -84v-55q0 -41 -84 -84h-29q-45 0 -111 112q28 111 168 111z" />
    <glyph glyph-name="ldot" unicode="&#x140;" horiz-adv-x="659" 
d="M174 1481h84q55 -9 55 -56q-95 -816 -95 -1217l1 -73l57 -110q0 -42 -83 -84h-29q-57 0 -84 165l94 1151l-29 140q29 56 29 84zM546 694l56 -84v-55q0 -41 -84 -84h-29q-45 0 -111 112q28 111 168 111z" />
    <glyph glyph-name="Lslash" unicode="&#x141;" horiz-adv-x="1024" 
d="M358 1128l-3 -94q-15 -225 -15 -272q0 -28 5.5 -38.5t19.5 -10.5q93 65 144 93t94.5 39t119.5 11q14 0 26.5 -12t12.5 -29q0 -29 -39 -43q-54 -19 -103 -46l-282 -153l2 -102q0 -34 -29 -72q7 -7 8 -38t2 -68.5t4 -71t15 -45.5q103 22 304 50t304 50q56 -9 56 -57l-3 -26
q0 -32 -74 -52.5t-421 -66.5l-55 -8q-125 -113 -252 -113q-56 0 -56 55l-4 30q0 28 18 86q31 98 42 247q-11 19 -11 37q0 14 4.5 28t4.5 39q-14 0 -68 -41q-55 -42 -74 -43q-55 0 -55 58q0 42 27.5 73t90.5 64l79 45q13 8 17 58q4 56 13 73q-34 131 -34 399l22 16
q51 40 76 40q23 0 45 -33.5t22 -55.5z" />
    <glyph glyph-name="lslash" unicode="&#x142;" horiz-adv-x="449" 
d="M264 1419q55 -9 55 -55l-18 -180q-43 -365 -45 -541q0 -55 23 -55q11 0 27.5 12t35.5 26t38 26t36 12q14 0 22 -9q21 -19 21 -45q0 -32 -29 -49q-77 -40 -104.5 -65t-53.5 -76q-8 -13 -8 -51q0 -64 21 -117q0 -75 7 -129q7 -55 7 -94q-4 -32 -38 -58t-73 -26
q-15 0 -20.5 30.5t-5.5 95.5q0 166 -17 236q0 8 -6 8q-8 0 -58 -47l-20 -16l-16 -4q-11 0 -18 11t-7 26q0 22 13 51q112 96 112 194q0 152 10.5 380t22.5 370q2 41 9 68t20.5 43.5t30.5 22t26 5.5z" />
    <glyph glyph-name="Nacute" unicode="&#x143;" horiz-adv-x="1087" 
d="M961 1315q26 -5 45.5 -22t19.5 -42q-6 -30 -21.5 -63.5t-34 -73t-36 -86t-27.5 -102.5q19 -50 19 -86q-4 -13 -4 -28v-38q0 -92 18.5 -264t54.5 -377q-13 -45 -50 -89t-68 -44q-26 0 -48 45q-206 241 -310 380t-189 292l-22 44l-21 38l6 -99l2 -77l6 -343l6 -233
q-23 -32 -55.5 -54t-63.5 -22q-57 0 -57 60q0 78 13 153q22 135 22 254q0 254 -64 492q-24 16 -24 51q0 26 12 29q34 12 53 29.5t34 34t32 28.5t47 12q36 0 61 -37t45 -137q40 -98 119 -225.5t157 -230t200 -228.5q6 0 6 6l-4 23l-15 160q-26 216 -32.5 281t-6.5 105l1 26
q6 63 6 119q0 74 26.5 156.5t65.5 132.5t76 50zM778 1692l27 -19q10 -8 10 -29q0 -27 -18 -45q-38 0 -96 -77.5t-113 -198.5q0 -55 -111 -55l-43 77v29q118 153 203.5 235.5t140.5 82.5z" />
    <glyph glyph-name="nacute" unicode="&#x144;" horiz-adv-x="811" 
d="M178 897h27l80 -53l-27 -135v-187l-14 -53l-8 -55q57 169 290 430h82l27 -135v-322q0 -144 117 -199h55q82 0 172 72q55 -9 55 -53v-29q-48 -92 -213 -139q-348 0 -348 510l-2 24q-182 -277 -293 -643h-53q-64 0 -82 136q27 132 45 165q19 41 23 125l14 140v213l-29 135z
M661 1391l27 -19q10 -8 10 -29q0 -27 -18 -45q-38 0 -96 -77.5t-113 -198.5q0 -55 -111 -55l-43 77v29q118 153 203.5 235.5t140.5 82.5z" />
    <glyph glyph-name="Ncommaaccent" unicode="&#x145;" horiz-adv-x="1087" 
d="M961 1315q26 -5 45.5 -22t19.5 -42q-6 -30 -21.5 -63.5t-34 -73t-36 -86t-27.5 -102.5q19 -50 19 -86q-4 -13 -4 -28v-38q0 -92 18.5 -264t54.5 -377q-13 -45 -50 -89t-68 -44q-26 0 -48 45q-206 241 -310 380t-189 292l-22 44l-21 38l6 -99l2 -77l6 -343l6 -233
q-23 -32 -55.5 -54t-63.5 -22q-57 0 -57 60q0 78 13 153q22 135 22 254q0 254 -64 492q-24 16 -24 51q0 26 12 29q34 12 53 29.5t34 34t32 28.5t47 12q36 0 61 -37t45 -137q40 -98 119 -225.5t157 -230t200 -228.5q6 0 6 6l-4 23l-15 160q-26 216 -32.5 281t-6.5 105l1 26
q6 63 6 119q0 74 26.5 156.5t65.5 132.5t76 50zM555 -109q65 0 105 -33.5t40 -107.5l-4 -29q-4 -15 -4 -32q0 -66 -47.5 -118t-138.5 -103q-29 -13 -50 -13t-38 18t-17 38q0 26 12 38q16 5 29 6t27 7q44 28 63 58.5t23 84.5q-7 8 -25 8q-46 0 -67 22.5t-21 53.5q22 67 78 96
z" />
    <glyph glyph-name="ncommaaccent" unicode="&#x146;" horiz-adv-x="811" 
d="M180 897h27l80 -53l-27 -135v-187l-14 -53l-8 -55q57 169 290 430h82l27 -135v-322q0 -144 117 -199h55q82 0 172 72q55 -9 55 -53v-29q-48 -92 -213 -139q-348 0 -348 510l-2 24q-182 -277 -293 -643h-53q-64 0 -82 136q27 132 45 165q19 41 23 125l14 140v213l-29 135z
M441 -109q65 0 105 -33.5t40 -107.5l-4 -29q-4 -15 -4 -32q0 -66 -47.5 -118t-138.5 -103q-29 -13 -50 -13t-38 18t-17 38q0 26 12 38q16 5 29 6t27 7q44 28 63 58.5t23 84.5q-7 8 -25 8q-46 0 -67 22.5t-21 53.5q22 67 78 96z" />
    <glyph glyph-name="Ncaron" unicode="&#x147;" horiz-adv-x="1087" 
d="M961 1315q26 -5 45.5 -22t19.5 -42q-6 -30 -21.5 -63.5t-34 -73t-36 -86t-27.5 -102.5q19 -50 19 -86q-4 -13 -4 -28v-38q0 -92 18.5 -264t54.5 -377q-13 -45 -50 -89t-68 -44q-26 0 -48 45q-206 241 -310 380t-189 292l-22 44l-21 38l6 -99l2 -77l6 -343l6 -233
q-23 -32 -55.5 -54t-63.5 -22q-57 0 -57 60q0 78 13 153q22 135 22 254q0 254 -64 492q-24 16 -24 51q0 26 12 29q34 12 53 29.5t34 34t32 28.5t47 12q36 0 61 -37t45 -137q40 -98 119 -225.5t157 -230t200 -228.5q6 0 6 6l-4 23l-15 160q-26 216 -32.5 281t-6.5 105l1 26
q6 63 6 119q0 74 26.5 156.5t65.5 132.5t76 50zM795 1678q18 0 35.5 -12t17.5 -29q0 -23 -6 -35q-115 -170 -165 -231t-89 -90t-72 -29q-13 0 -28 6l-84 89q-77 77 -109.5 126.5t-32.5 91.5q0 45 19.5 69.5t42.5 24.5q14 0 25.5 -5t25.5 -5l25 -42q66 -121 93 -156t44 -35
q14 0 33 12q50 20 202 237q4 13 23 13z" />
    <glyph glyph-name="ncaron" unicode="&#x148;" horiz-adv-x="811" 
d="M180 897h27l80 -53l-27 -135v-187l-14 -53l-8 -55q57 169 290 430h82l27 -135v-322q0 -144 117 -199h55q82 0 172 72q55 -9 55 -53v-29q-48 -92 -213 -139q-348 0 -348 510l-2 24q-182 -277 -293 -643h-53q-64 0 -82 136q27 132 45 165q19 41 23 125l14 140v213l-29 135z
M670 1397q18 0 35.5 -12t17.5 -29q0 -23 -6 -35q-115 -170 -165 -231t-89 -90t-72 -29q-13 0 -28 6l-84 89q-77 77 -109.5 126.5t-32.5 91.5q0 45 19.5 69.5t42.5 24.5q14 0 25.5 -5t25.5 -5l25 -42q66 -121 93 -156t44 -35q14 0 33 12q50 20 202 237q4 13 23 13z" />
    <glyph glyph-name="napostrophe" unicode="&#x149;" horiz-adv-x="993" 
d="M362 897h27l80 -53l-27 -135v-187l-14 -53l-8 -55q57 169 290 430h82l27 -135v-322q0 -144 117 -199h55q82 0 172 72q55 -9 55 -53v-29q-48 -92 -213 -139q-348 0 -348 510l-2 24q-182 -277 -293 -643h-53q-64 0 -82 136q27 132 45 165q19 41 23 125l14 140v213l-29 135z
M182 1333q65 0 105 -33.5t40 -107.5l-4 -29q-4 -16 -4 -33q0 -79 -52.5 -153t-140.5 -123q-26 -12 -49 -12q-21 0 -38 17.5t-17 37.5q0 27 12 39q16 5 29 5.5t27 6.5q36 22 65 72.5t29 101.5q0 19 -2 25q-7 8 -25 8q-38 0 -63 21.5t-25 54.5q17 63 78 96z" />
    <glyph glyph-name="Omacron" unicode="&#x14c;" horiz-adv-x="1094" 
d="M1047 545q-163 -559 -670 -559q-118 0 -191 105.5t-108 334.5l18 119q197 612 336 612q29 39 67 62.5t74 23.5q52 0 93 -45q168 -186 274.5 -369t106.5 -284zM221 483q27 -205 76.5 -291t136.5 -86q125 0 381 189q72 158 72 321q0 190 -332 385q-35 23 -84 23l-33 -4
q-142 -235 -217 -537zM391 1370q-39 0 -76 24t-37 46q0 27 12 43t42 26l30 11q58 -7 145 -7h111q17 0 37 7.5t37 7.5q54 0 123 -15q20 -27 20 -61q0 -27 -20 -33q-49 -6 -113.5 -14.5t-127 -16t-112.5 -13t-71 -5.5z" />
    <glyph glyph-name="omacron" unicode="&#x14d;" horiz-adv-x="834" 
d="M774 387q-18 -120 -182 -301q-114 -61 -197 -78h-8q-52 -10 -96 -10q-42 0 -64 10q-168 102 -168 340q0 87 58.5 185t197.5 245l-2 15q0 24 29.5 42.5t71.5 18.5q39 0 81.5 -28.5t122.5 -130.5q24 -31 54 -62q32 -35 45.5 -69t13.5 -48q25 -35 31.5 -66.5t11.5 -62.5z
M201 319q0 -115 139 -198q278 94 278 311q-79 182 -198 182q-103 -18 -161 -94.5t-58 -200.5zM260 1069q-39 0 -76 24t-37 46q0 27 12 43t42 26l30 11q58 -7 145 -7h111q17 0 37 7.5t37 7.5q54 0 123 -15q20 -27 20 -61q0 -27 -20 -33q-49 -6 -113.5 -14.5t-127 -16
t-112.5 -13t-71 -5.5z" />
    <glyph glyph-name="Obreve" unicode="&#x14e;" horiz-adv-x="1094" 
d="M1047 545q-163 -559 -670 -559q-118 0 -191 105.5t-108 334.5l18 119q197 612 336 612q29 39 67 62.5t74 23.5q52 0 93 -45q168 -186 274.5 -369t106.5 -284zM221 483q27 -205 76.5 -291t136.5 -86q125 0 381 189q72 158 72 321q0 190 -332 385q-35 23 -84 23l-33 -4
q-142 -235 -217 -537zM274 1626l4 35q0 6 9 19t16.5 17.5t30.5 12.5l20 2l10 -1l7 -1l47 -53l18 -33q0 -6 8 -51t11 -50l36 -49q12 -18 19 -18l7 -1l11 -1q8 0 11 1q7 0 23.5 7t21.5 12q75 45 84 60q9 6 20 32v19l16 33l58 59l37 16l20 2l12 -1l7 -1q7 0 18 -16l1 -9l1 -16
l-1 -15l-1 -9q-1 -2 -5.5 -13.5t-10 -25t-11.5 -26.5t-10 -19q-51 -92 -57 -96q-2 -5 -16.5 -19.5t-20.5 -15.5q-50 -33 -57 -35l-74 -33q-11 -6 -30.5 -11t-24.5 -5l-16 -1q-18 -1 -21 -1l-37 2l-74 33l-20 16q-10 14 -20 34t-17 36q-6 11 -16.5 36.5t-27 71.5t-16.5 70z
" />
    <glyph glyph-name="obreve" unicode="&#x14f;" horiz-adv-x="834" 
d="M774 387q-18 -120 -182 -301q-114 -61 -197 -78h-8q-52 -10 -96 -10q-42 0 -64 10q-168 102 -168 340q0 87 58.5 185t197.5 245l-2 15q0 24 29.5 42.5t71.5 18.5q39 0 81.5 -28.5t122.5 -130.5q24 -31 54 -62q32 -35 45.5 -69t13.5 -48q25 -35 31.5 -66.5t11.5 -62.5z
M201 319q0 -115 139 -198q278 94 278 311q-79 182 -198 182q-103 -18 -161 -94.5t-58 -200.5zM131 1315l4 35q0 6 9 19t16.5 17.5t30.5 12.5l20 2l10 -1l7 -1l47 -53l18 -33q0 -6 8 -51t11 -50l36 -49q12 -18 19 -18l7 -1l11 -1q8 0 11 1q7 0 23.5 7t21.5 12q75 45 84 60
q9 6 20 32v19l16 33l58 59l37 16l20 2l12 -1l7 -1q7 0 18 -16l1 -9l1 -16l-1 -15l-1 -9q-1 -2 -5.5 -13.5t-10 -25t-11.5 -26.5t-10 -19q-51 -92 -57 -96q-2 -5 -16.5 -19.5t-20.5 -15.5q-50 -33 -57 -35l-74 -33q-11 -6 -30.5 -11t-24.5 -5l-16 -1q-18 -1 -21 -1l-37 2
l-74 33l-20 16q-10 14 -20 34t-17 36q-6 11 -16.5 36.5t-27 71.5t-16.5 70z" />
    <glyph glyph-name="Ohungarumlaut" unicode="&#x150;" horiz-adv-x="1094" 
d="M1047 545q-163 -559 -670 -559q-118 0 -191 105.5t-108 334.5l18 119q197 612 336 612q29 39 67 62.5t74 23.5q52 0 93 -45q168 -186 274.5 -369t106.5 -284zM221 483q27 -205 76.5 -291t136.5 -86q125 0 381 189q72 158 72 321q0 190 -332 385q-35 23 -84 23l-33 -4
q-142 -235 -217 -537zM620 1744q19 0 36.5 -13.5t17.5 -39.5q0 -18 -15 -33q0 -4 -111 -117q-119 -120 -169 -202h-8q-22 0 -36 13.5t-14 39.5q0 149 252 338q26 14 47 14zM1048 1730q16 -4 34 -28t18 -40q0 -28 -23 -43q-74 -8 -174.5 -81t-208.5 -220q-19 -2 -24 -2
q-35 0 -53.5 16t-18.5 44q0 10 4 20q231 334 446 334z" />
    <glyph glyph-name="ohungarumlaut" unicode="&#x151;" horiz-adv-x="834" 
d="M774 387q-18 -120 -182 -301q-114 -61 -197 -78h-8q-52 -10 -96 -10q-42 0 -64 10q-168 102 -168 340q0 87 58.5 185t197.5 245l-2 15q0 24 29.5 42.5t71.5 18.5q39 0 81.5 -28.5t122.5 -130.5q24 -31 54 -62q32 -35 45.5 -69t13.5 -48q25 -35 31.5 -66.5t11.5 -62.5z
M201 319q0 -115 139 -198q278 94 278 311q-79 182 -198 182q-103 -18 -161 -94.5t-58 -200.5zM477 1382q19 0 36.5 -13.5t17.5 -39.5q0 -18 -15 -33q0 -4 -111 -117q-119 -120 -169 -202h-8q-22 0 -36 13.5t-14 39.5q0 149 252 338q26 14 47 14zM905 1368q16 -4 34 -28
t18 -40q0 -28 -23 -43q-74 -8 -174.5 -81t-208.5 -220q-19 -2 -24 -2q-35 0 -53.5 16t-18.5 44q0 10 4 20q231 334 446 334z" />
    <glyph glyph-name="OE" unicode="&#x152;" horiz-adv-x="1497" 
d="M539 1157q24 0 54 -8q157 -45 238 -45q50 0 84 8q26 6 293 18l205 11q84 -29 84 -56q-8 -16 -15 -50q-6 -28 -14 -34q-23 -20 -63 -20q-34 0 -68 10t-63 10q-245 0 -357 -25t-112 -87q64 -166 194 -166l275 27l26 -56q0 -68 -329 -139q-12 -5 -52.5 -66t-65 -118
t-24.5 -97q0 -44 31 -55l567 84q25 0 40.5 -20t15.5 -41q0 -20 -13.5 -34.5t-42.5 -14.5q-310 -46 -482 -85.5t-247 -91.5q-28 -10 -49 -10q-51 0 -96 45q-97 -55 -197 -55q-278 36 -278 280q26 237 140 475.5t274 389.5q16 16 47 16zM219 276q37 -141 195 -141
q362 117 362 420q0 121 -46 207t-177 184h-29q-24 0 -40.5 -24.5t-40.5 -73t-61.5 -122.5t-102.5 -173q-18 -27 -35.5 -105.5t-24.5 -171.5z" />
    <glyph glyph-name="oe" unicode="&#x153;" horiz-adv-x="1325" 
d="M1122 895l56 -2q38 0 82 -84l4 -111q0 -106 -50 -185t-166.5 -123t-308.5 -58l-10 -70q0 -75 35 -121.5t106 -81.5l56 -2q116 0 278 142q25 0 40.5 -17.5t15.5 -38.5q0 -62 -83 -116t-251 -105l-29 -2q-139 30 -200 78t-79 141q-4 29 -12 29t-43 -29q-132 -110 -280 -110
q-172 0 -224 252q0 215 279 557l77 18q42 10 79 10q13 -3 36.5 -33.5t54 -71t67.5 -81.5t77 -66q51 27 121 100l57 60q104 110 187 119q20 2 28 2zM190 315q0 -26 11 -63q12 -6 18 -18l12.5 -25t17.5 -24.5t34 -16.5h28q279 46 279 250l-4 33q0 23 16 49q16 25 16 59
q0 42 -167 139q-87 -39 -144 -98t-87 -143t-30 -142zM834 494q0 -16 17 -19.5t46 -3.5q223 0 223 231q-160 0 -282 -192z" />
    <glyph glyph-name="Racute" unicode="&#x154;" horiz-adv-x="1327" 
d="M500 403q-28 0 -32.5 -29.5t-4.5 -94.5v-56q0 -18 15 -61q14 -44 14 -58l-1 -7q-1 -8 -2.5 -22.5t-4 -30t-5.5 -24.5q-47 -47 -69 -61t-49 -14q-44 0 -61 19.5t-17 86.5q0 46 18 147q17 100 17 154q0 50 -21 184l-4 27l4 18q18 60 18 105v14q0 216 -22 263q-18 6 -35 6
q-36 0 -82 -24q-46 -25 -55 -25q-53 0 -82 26.5t-29 77.5q0 26 21 59t53 47l35 -2q138 0 149 2q7 0 34 14l32 13l55 -8h131q83 5 195 19q100 12 178 12q114 0 238 -19q73 -27 73 -147q0 -106 -57 -154q-146 -136 -186 -147q0 -12 -39 -36.5t-74 -37.5q-23 -18 -55 -36
t-61 -35.5t-49.5 -33.5t-20.5 -30q0 -19 12 -29.5t28 -18.5t31.5 -15.5t22.5 -20.5q13 -9 92 -108q77 -96 90 -105q31 -19 68 -47.5t37 -42.5q44 -38 94 -47q20 -5 49 -22.5t39 -32.5t10 -52l-17 -47q-7 -24 -18 -31.5t-53 -7.5l-61 4q-15 0 -38 20t-49 47.5t-53 57.5
t-51 51l-94 97l-16 15q-75 69 -78 69q-10 4 -72 62q-59 52 -70 54l-15 12q-37 37 -50 37zM823 1051l-137 -9q-35 0 -114.5 -21t-81.5 -30q-22 -43 -35 -117t-13 -153q0 -59 7 -113q0 -14 24 -14q32 0 88 23t137 81l37 23q32 5 72.5 29t134.5 92q46 34 74.5 73t28.5 66
q0 33 -61.5 51.5t-160.5 18.5zM899 1713l27 -19q10 -8 10 -29q0 -27 -18 -45q-38 0 -96 -77.5t-113 -198.5q0 -55 -111 -55l-43 77v29q118 153 203.5 235.5t140.5 82.5z" />
    <glyph glyph-name="racute" unicode="&#x155;" horiz-adv-x="643" 
d="M561 877q48 -27 78 -27v-82q0 -33 -205 -111q-139 -126 -178 -223v-82l25 -276l-101 -82q-90 40 -90 82q0 119 25 223q0 8 -19 131.5t-57 364.5l39 28h102q27 -106 27 -194q191 179 354 248zM546 1391l27 -19q10 -8 10 -29q0 -27 -18 -45q-38 0 -96 -77.5t-113 -198.5
q0 -55 -111 -55l-43 77v29q118 153 203.5 235.5t140.5 82.5z" />
    <glyph glyph-name="Rcommaaccent" unicode="&#x156;" horiz-adv-x="1153" 
d="M418 403q-28 0 -32.5 -29.5t-4.5 -94.5v-56q0 -18 15 -61q14 -44 14 -58l-1 -7q-1 -8 -2.5 -22.5t-4 -30t-5.5 -24.5q-47 -47 -69 -61t-49 -14q-44 0 -61 19.5t-17 86.5q0 46 18 147q17 100 17 154q0 50 -21 184l-4 27l4 18q18 60 18 105v14q0 216 -22 263q-18 6 -35 6
q-36 0 -82 -24q-46 -25 -55 -25q-53 0 -82 26.5t-29 77.5q0 26 21 59t53 47l35 -2q138 0 149 2q7 0 34 14l32 13l55 -8h131q83 5 195 19q100 12 178 12q114 0 238 -19q73 -27 73 -147q0 -106 -57 -154q-146 -136 -186 -147q0 -12 -39 -36.5t-74 -37.5q-23 -18 -55 -36
t-61 -35.5t-49.5 -33.5t-20.5 -30q0 -19 12 -29.5t28 -18.5t31.5 -15.5t22.5 -20.5q13 -9 92 -108q77 -96 90 -105q31 -19 68 -47.5t37 -42.5q44 -38 94 -47q20 -5 49 -22.5t39 -32.5t10 -52l-17 -47q-7 -24 -18 -31.5t-53 -7.5l-61 4q-15 0 -38 20t-49 47.5t-53 57.5
t-51 51l-94 97l-16 15q-75 69 -78 69q-10 4 -72 62q-59 52 -70 54l-15 12q-37 37 -50 37zM741 1051l-137 -9q-35 0 -114.5 -21t-81.5 -30q-22 -43 -35 -117t-13 -153q0 -59 7 -113q0 -14 24 -14q32 0 88 23t137 81l37 23q32 5 72.5 29t134.5 92q46 34 74.5 73t28.5 66
q0 33 -61.5 51.5t-160.5 18.5zM617 -109q65 0 105 -33.5t40 -107.5l-4 -29q-4 -15 -4 -32q0 -66 -47.5 -118t-138.5 -103q-29 -13 -50 -13t-38 18t-17 38q0 26 12 38q16 5 29 6t27 7q44 28 63 58.5t23 84.5q-7 8 -25 8q-46 0 -67 22.5t-21 53.5q22 67 78 96z" />
    <glyph glyph-name="rcommaaccent" unicode="&#x157;" horiz-adv-x="643" 
d="M561 877q48 -27 78 -27v-82q0 -33 -205 -111q-139 -126 -178 -223v-82l25 -276l-101 -82q-90 40 -90 82q0 119 25 223q0 8 -19 131.5t-57 364.5l39 28h102q27 -106 27 -194q191 179 354 248zM225 -109q65 0 105 -33.5t40 -107.5l-4 -29q-4 -15 -4 -32q0 -66 -47.5 -118
t-138.5 -103q-29 -13 -50 -13t-38 18t-17 38q0 26 12 38q16 5 29 6t27 7q44 28 63 58.5t23 84.5q-7 8 -25 8q-46 0 -67 22.5t-21 53.5q22 67 78 96z" />
    <glyph glyph-name="Rcaron" unicode="&#x158;" horiz-adv-x="1153" 
d="M418 403q-28 0 -32.5 -29.5t-4.5 -94.5v-56q0 -18 15 -61q14 -44 14 -58l-1 -7q-1 -8 -2.5 -22.5t-4 -30t-5.5 -24.5q-47 -47 -69 -61t-49 -14q-44 0 -61 19.5t-17 86.5q0 46 18 147q17 100 17 154q0 50 -21 184l-4 27l4 18q18 60 18 105v14q0 216 -22 263q-18 6 -35 6
q-36 0 -82 -24q-46 -25 -55 -25q-53 0 -82 26.5t-29 77.5q0 26 21 59t53 47l35 -2q138 0 149 2q7 0 34 14l32 13l55 -8h131q83 5 195 19q100 12 178 12q114 0 238 -19q73 -27 73 -147q0 -106 -57 -154q-146 -136 -186 -147q0 -12 -39 -36.5t-74 -37.5q-23 -18 -55 -36
t-61 -35.5t-49.5 -33.5t-20.5 -30q0 -19 12 -29.5t28 -18.5t31.5 -15.5t22.5 -20.5q13 -9 92 -108q77 -96 90 -105q31 -19 68 -47.5t37 -42.5q44 -38 94 -47q20 -5 49 -22.5t39 -32.5t10 -52l-17 -47q-7 -24 -18 -31.5t-53 -7.5l-61 4q-15 0 -38 20t-49 47.5t-53 57.5
t-51 51l-94 97l-16 15q-75 69 -78 69q-10 4 -72 62q-59 52 -70 54l-15 12q-37 37 -50 37zM741 1051l-137 -9q-35 0 -114.5 -21t-81.5 -30q-22 -43 -35 -117t-13 -153q0 -59 7 -113q0 -14 24 -14q32 0 88 23t137 81l37 23q32 5 72.5 29t134.5 92q46 34 74.5 73t28.5 66
q0 33 -61.5 51.5t-160.5 18.5zM850 1708q18 0 35.5 -12t17.5 -29q0 -23 -6 -35q-115 -170 -165 -231t-89 -90t-72 -29q-13 0 -28 6l-84 89q-77 77 -109.5 126.5t-32.5 91.5q0 45 19.5 69.5t42.5 24.5q14 0 25.5 -5t25.5 -5l25 -42q66 -121 93 -156t44 -35q14 0 33 12
q50 20 202 237q4 13 23 13z" />
    <glyph glyph-name="rcaron" unicode="&#x159;" horiz-adv-x="643" 
d="M561 877q48 -27 78 -27v-82q0 -33 -205 -111q-139 -126 -178 -223v-82l25 -276l-101 -82q-90 40 -90 82q0 119 25 223q0 8 -19 131.5t-57 364.5l39 28h102q27 -106 27 -194q191 179 354 248zM569 1397q18 0 35.5 -12t17.5 -29q0 -23 -6 -35q-115 -170 -165 -231t-89 -90
t-72 -29q-13 0 -28 6l-84 89q-77 77 -109.5 126.5t-32.5 91.5q0 45 19.5 69.5t42.5 24.5q14 0 25.5 -5t25.5 -5l25 -42q66 -121 93 -156t44 -35q14 0 33 12q50 20 202 237q4 13 23 13z" />
    <glyph glyph-name="Sacute" unicode="&#x15a;" horiz-adv-x="1180" 
d="M993 1262q45 0 64.5 -25.5t19.5 -85.5q-10 -53 -89.5 -89.5t-301.5 -78.5l-160 -105q-112 -71 -158 -109t-46 -58q2 -10 41.5 -27t187.5 -68l121 -47q202 -78 310 -131t134 -96q4 -8 9 -24.5t5 -22.5q0 -16 -8 -29q-148 -289 -659 -289q-215 0 -341.5 29.5t-137.5 81.5
l-4 30v27q9 58 63 58q15 0 20 -2l70 -39q131 -74 293 -74h33q229 0 342.5 50t152.5 171q-98 58 -195 98.5t-191 74.5t-183.5 66t-173.5 73q-57 66 -57 129q0 49 28 65q105 51 210 113.5t208 124t202 117t191 92.5zM825 1672l27 -19q10 -8 10 -29q0 -27 -18 -45
q-38 0 -96 -77.5t-113 -198.5q0 -55 -111 -55l-43 77v29q118 153 203.5 235.5t140.5 82.5z" />
    <glyph glyph-name="sacute" unicode="&#x15b;" horiz-adv-x="780" 
d="M584 891q108 -44 108 -82v-55q0 -80 -301 -111q-108 -77 -108 -108q438 -105 438 -330q-185 -219 -412 -219h-110q-201 0 -219 82v82q9 55 55 55h55q12 -111 82 -111h82q301 43 301 111v55q0 70 -436 193l-29 55v53q0 23 494 330zM624 1391l27 -19q10 -8 10 -29
q0 -27 -18 -45q-38 0 -96 -77.5t-113 -198.5q0 -55 -111 -55l-43 77v29q118 153 203.5 235.5t140.5 82.5z" />
    <glyph glyph-name="Scircumflex" unicode="&#x15c;" horiz-adv-x="1180" 
d="M993 1262q45 0 64.5 -25.5t19.5 -85.5q-10 -53 -89.5 -89.5t-301.5 -78.5l-160 -105q-112 -71 -158 -109t-46 -58q2 -10 41.5 -27t187.5 -68l121 -47q202 -78 310 -131t134 -96q4 -8 9 -24.5t5 -22.5q0 -16 -8 -29q-148 -289 -659 -289q-215 0 -341.5 29.5t-137.5 81.5
l-4 30v27q9 58 63 58q15 0 20 -2l70 -39q131 -74 293 -74h33q229 0 342.5 50t152.5 171q-98 58 -195 98.5t-191 74.5t-183.5 66t-173.5 73q-57 66 -57 129q0 49 28 65q105 51 210 113.5t208 124t202 117t191 92.5zM573 1804q39 0 91.5 -68.5t111.5 -222.5q14 0 37.5 -16.5
t39 -42t15.5 -55.5q0 -21 -21 -37t-52 -16t-107 102q-80 108 -104 119q-77 -113 -118.5 -163t-68.5 -50q-44 0 -61 15.5t-17 43.5q0 32 13 45q96 101 135 170t53 144q16 16 53 32z" />
    <glyph glyph-name="scircumflex" unicode="&#x15d;" horiz-adv-x="780" 
d="M584 891q108 -44 108 -82v-55q0 -80 -301 -111q-108 -77 -108 -108q438 -105 438 -330q-185 -219 -412 -219h-110q-201 0 -219 82v82q9 55 55 55h55q12 -111 82 -111h82q301 43 301 111v55q0 70 -436 193l-29 55v53q0 23 494 330zM368 1421q39 0 91.5 -68.5t111.5 -222.5
q14 0 37.5 -16.5t39 -42t15.5 -55.5q0 -21 -21 -37t-52 -16t-107 102q-80 108 -104 119q-77 -113 -118.5 -163t-68.5 -50q-44 0 -61 15.5t-17 43.5q0 32 13 45q96 101 135 170t53 144q16 16 53 32z" />
    <glyph glyph-name="Scedilla" unicode="&#x15e;" horiz-adv-x="1180" 
d="M741 -115l-3 -27l-6 -29q-12 -49 -13 -75q-87 -87 -156 -119t-160 -32q-48 0 -84 26.5t-36 61.5q0 31 23 49t54 18q23 0 62 -19q45 -23 63 -26q39 14 57.5 29t30.5 41l21 43q0 65 -19.5 88.5t-103.5 48.5q-29 6 -29 14q-149 1 -248.5 15.5t-156.5 43t-57 82.5v27
q9 58 63 58q15 0 20 -2l70 -39q131 -74 293 -74h33q229 0 342.5 50t152.5 171q-98 58 -195 98.5t-191 74.5t-183.5 66t-173.5 73q-57 66 -57 129q0 49 28 65q105 51 210 113.5t208 124t202 117t191 92.5q45 0 64.5 -25.5t19.5 -85.5q-10 -53 -89.5 -89.5t-301.5 -78.5
l-160 -105q-112 -71 -158 -109t-46 -58q2 -10 41.5 -27t187.5 -68l121 -47q202 -78 310 -131t134 -96q4 -8 9 -24.5t5 -22.5q0 -36 -61.5 -111t-153.5 -121.5t-219 -66.5q17 -19 31 -52.5t14 -58.5z" />
    <glyph glyph-name="scedilla" unicode="&#x15f;" horiz-adv-x="780" 
d="M547 -94q0 -18 -10 -56q-12 -46 -13 -75q-91 -91 -158.5 -121.5t-156.5 -30.5q-47 0 -84 26t-37 62q0 29 22.5 48.5t55.5 19.5q23 0 62 -19q45 -23 63 -26q42 15 59 29.5t29 40.5l20 42q0 67 -20.5 90.5t-102.5 47.5l-5 2h-72q-201 0 -219 82v82q9 55 55 55h55
q12 -111 82 -111h82q301 43 301 111v55q0 70 -436 193l-29 55v53q0 23 494 330q108 -44 108 -82v-55q0 -80 -301 -111q-108 -77 -108 -108q438 -105 438 -330q-111 -130 -229 -180q22 -18 38.5 -55t16.5 -64z" />
    <glyph glyph-name="Scaron" unicode="&#x160;" horiz-adv-x="1180" 
d="M993 1262q45 0 64.5 -25.5t19.5 -85.5q-10 -53 -89.5 -89.5t-301.5 -78.5l-160 -105q-112 -71 -158 -109t-46 -58q2 -10 41.5 -27t187.5 -68l121 -47q202 -78 310 -131t134 -96q4 -8 9 -24.5t5 -22.5q0 -16 -8 -29q-148 -289 -659 -289q-215 0 -341.5 29.5t-137.5 81.5
l-4 30v27q9 58 63 58q15 0 20 -2l70 -39q131 -74 293 -74h33q229 0 342.5 50t152.5 171q-98 58 -195 98.5t-191 74.5t-183.5 66t-173.5 73q-57 66 -57 129q0 49 28 65q105 51 210 113.5t208 124t202 117t191 92.5zM840 1678q18 0 35.5 -12t17.5 -29q0 -23 -6 -35
q-115 -170 -165 -231t-89 -90t-72 -29q-13 0 -28 6l-84 89q-77 77 -109.5 126.5t-32.5 91.5q0 45 19.5 69.5t42.5 24.5q14 0 25.5 -5t25.5 -5l25 -42q66 -121 93 -156t44 -35q14 0 33 12q50 20 202 237q4 13 23 13z" />
    <glyph glyph-name="scaron" unicode="&#x161;" horiz-adv-x="780" 
d="M584 891q108 -44 108 -82v-55q0 -80 -301 -111q-108 -77 -108 -108q438 -105 438 -330q-185 -219 -412 -219h-110q-201 0 -219 82v82q9 55 55 55h55q12 -111 82 -111h82q301 43 301 111v55q0 70 -436 193l-29 55v53q0 23 494 330zM647 1397q18 0 35.5 -12t17.5 -29
q0 -23 -6 -35q-115 -170 -165 -231t-89 -90t-72 -29q-13 0 -28 6l-84 89q-77 77 -109.5 126.5t-32.5 91.5q0 45 19.5 69.5t42.5 24.5q14 0 25.5 -5t25.5 -5l25 -42q66 -121 93 -156t44 -35q14 0 33 12q50 20 202 237q4 13 23 13z" />
    <glyph glyph-name="Tcommaaccent" unicode="&#x162;" horiz-adv-x="1100" 
d="M838 -219q0 -18 -10 -56q-12 -46 -13 -75q-91 -91 -158.5 -121.5t-156.5 -30.5q-49 0 -85 26.5t-36 61.5q0 29 22.5 48.5t55.5 19.5q23 0 62 -19q45 -23 63 -26q41 15 58 29t29 41l21 42q0 60 -15 83.5t-65.5 41t-58.5 17.5q-41 13 -41 59q-2 96 -2 131q0 63 8 185
q8 121 8 196q0 185 -32 461l2 149q0 37 -2 48q-400 -56 -560 -56q-43 0 -63.5 20t-20.5 64q0 69 113 84q84 -27 84 -55q200 0 420 80l35 15q41 23 61 30.5t39 7.5q17 0 22.5 -16t10.5 -33l158 29q336 64 483 81q29 -11 51 -13q41 -4 41 -36q0 -15 -8 -34q0 -31 -175.5 -65
t-527.5 -58q-22 -128 -22 -163v-79q0 -201 11 -479.5t26 -483.5q69 -6 99.5 -23.5t49.5 -56t19 -71.5z" />
    <glyph glyph-name="tcommaaccent" unicode="&#x163;" horiz-adv-x="725" 
d="M635 -94q0 -18 -10 -56q-12 -46 -13 -75q-91 -91 -158.5 -121.5t-156.5 -30.5q-47 0 -84 26t-37 62q0 29 22.5 48.5t55.5 19.5q23 0 62 -19q45 -23 63 -26q42 15 59 29.5t29 40.5l20 42q0 62 -17 85.5t-71 41.5q-6 0 -10 -4h-78q-102 38 -102 234v51q0 135 33 401
l-215 -12l-27 129q59 53 140 53h12q38 -26 81 -26h52q0 99 53 338q-27 44 -27 75l78 54h27q38 0 76 -78q-53 -122 -103 -389h258q37 0 78 -78q-24 -78 -51 -78q-46 0 -156 51q-156 0 -156 -102q-25 -204 -38 -252q14 -45 14 -111l12 -98l39 -6q51 0 109.5 35.5t169.5 140.5
q21 0 32 -12t11 -52q0 -103 -164 -194q42 -16 65 -60t23 -77z" />
    <glyph glyph-name="Tcaron" unicode="&#x164;" horiz-adv-x="1100" 
d="M1274 1343q29 -11 51 -13q41 -4 41 -36q0 -15 -8 -34q0 -31 -175.5 -65t-527.5 -58q-22 -128 -22 -163v-79q0 -210 11.5 -499t27.5 -478q0 -24 -28 -41.5t-62 -17.5q-68 0 -72 63q-2 96 -2 131q0 63 8 185q8 121 8 196q0 185 -32 461l2 149q0 37 -2 48q-400 -56 -560 -56
q-43 0 -63.5 20t-20.5 64q0 69 113 84q84 -27 84 -55q200 0 420 80l35 15q41 23 61 30.5t39 7.5q17 0 22.5 -16t10.5 -33l158 29q336 64 483 81zM811 1780q18 0 35.5 -12t17.5 -29q0 -23 -6 -35q-115 -170 -165 -231t-89 -90t-72 -29q-13 0 -28 6l-84 89
q-77 77 -109.5 126.5t-32.5 91.5q0 45 19.5 69.5t42.5 24.5q14 0 25.5 -5t25.5 -5l25 -42q66 -121 93 -156t44 -35q14 0 33 12q50 20 202 237q4 13 23 13z" />
    <glyph glyph-name="tcaron" unicode="&#x165;" horiz-adv-x="903" 
d="M389 1266h27q38 0 76 -78q-53 -122 -103 -389h258q37 0 78 -78q-24 -78 -51 -78q-46 0 -156 51q-156 0 -156 -102q-25 -204 -38 -252q14 -45 14 -111l12 -98l39 -6q51 0 109.5 35.5t169.5 140.5q21 0 32 -12t11 -53q0 -73 -82.5 -139t-239.5 -128h-78q-102 38 -102 234
v51q0 135 33 401l-215 -12l-27 129q59 53 140 53h12q38 -26 81 -26h52q0 99 53 338q-27 44 -27 75zM885 1333q65 0 105 -33.5t40 -107.5l-4 -29q-4 -16 -4 -33q0 -79 -52.5 -153t-140.5 -123q-26 -12 -49 -12q-21 0 -38 17.5t-17 37.5q0 27 12 39q16 5 29 5.5t27 6.5
q36 22 65 72.5t29 101.5q0 19 -2 25q-7 8 -25 8q-38 0 -63 21.5t-25 54.5q17 63 78 96z" />
    <glyph glyph-name="Tbar" unicode="&#x166;" horiz-adv-x="1077" 
d="M487 391q-10 0 -46 -12q-33 -12 -46 -12h-69l-45 24q0 12 -12 34q-13 22 -13 34q26 45 47 45q115 0 184 65q11 33 11 109v139l-33 68l-47 43h-23q-15 0 -69 -11q-55 -12 -70 -12q-67 -20 -88 -20l-74 -25h-67q-32 0 -50 19t-18 71q0 35 8.5 59.5t36.5 43.5q10 4 55 4
l152 -4q15 0 115 8h22l70 22l47 23l45 57h22q23 0 73 -27q50 -28 87 -28h23q11 0 95 17q84 16 114 16l159 22h93l45 -35v-45l-25 -20l-43 -23h-70q-16 0 -130.5 -22.5t-190.5 -44.5q-19 0 -92 -23l-23 -22q-16 -144 -16 -348l174 8q35 -47 35 -64q-24 -45 -47 -45l-78 -14
l-45 -23l-31 -20l-14 -76q0 -18 12 -85q33 -185 33 -204v-43q0 -38 -26 -61.5t-64 -28.5l-48 45l-22 45q-6 21 -6 69v64l4 170q0 74 -21 74z" />
    <glyph glyph-name="tbar" unicode="&#x167;" horiz-adv-x="707" 
d="M70 357q0 18 8 30l96 98v119l-57 -10q-86 0 -107 45v39q0 22 15 40t48 34.5t44 21.5l86 10l12 50l-20 38v58q0 31 33 74t65 43h18q9 -4 19.5 -16t19 -25.5t14.5 -24.5t7 -12l-19 -176q21 0 78 20l156 18h59l39 -38v-58l-20 -18q-11 -7 -29.5 -14t-28.5 -7
q-30 -7 -56.5 -8t-52 -2.5t-51.5 -6.5t-55 -20l-39 -20l-20 -39l-6 -104q2 -20 63 -20l117 7l20 -18v-57q-18 -21 -39 -21l-57 -18q-5 0 -14 -2.5t-105 -36.5l-18 -39l-4 -39l4 -57l18 -39q36 -21 60 -21l43 -10q22 0 55 10q60 21 78 21q8 8 25.5 9t54.5 9l18 -18
q0 -34 -16 -59.5t-47 -53.5q-31 -31 -47 -31q-80 -41 -156 -41q-31 0 -94 14l-31 5l-39 28q0 18 -41 78l-18 156q0 48 -78 78q-8 8 -8 27z" />
    <glyph glyph-name="Utilde" unicode="&#x168;" horiz-adv-x="1036" 
d="M698 360q-13 0 -91 -123l-34 -51q-15 -15 -23 -32t-18 -35q-77 -97 -112 -120.5t-90 -23.5q-83 0 -92 31q-16 16 -50 180.5t-34 219.5l20 221q0 53 6 83q12 58 14.5 90.5t2.5 88.5l-2 133q0 25 -11 68q-12 42 -12 57q0 38 20.5 79.5t40.5 41.5q60 0 97 -28.5t37 -78.5
l-5 -51l-11 -91q-22 -178 -32 -239l-18 -276l18 -221q0 -28 19 -69.5t33 -41.5q20 0 80 61.5t102 126.5l6 15q36 67 80.5 162t54.5 131q0 15 7 45q34 156 34 209q0 26 -2 34l-2 39v56q0 57 20.5 81.5t84.5 24.5q32 0 51.5 -21t19.5 -81l-2 -76q-12 -94 -27 -171
q-32 -164 -32 -256v-169q0 -49 20 -116t45 -103q12 0 57 19l15 3q9 0 31 -27t22 -40q-29 -86 -67.5 -133t-79.5 -47q-58 0 -82.5 21.5t-42 81.5t-36.5 177q-17 102 -30 141zM858 1788q28 0 49 -22.5t21 -51.5q0 -15 -6 -24l-3 -15q-22 -109 -81.5 -182.5t-141.5 -95.5
q-15 -2 -20 -2l-39 2q-25 0 -90 46t-84 46h-6q-23 -12 -38.5 -37t-28 -49.5t-22.5 -43t-22 -18.5q-70 0 -70 76q0 71 30.5 114.5t131.5 100.5q18 10 43 10q11 0 68 -10q33 -8 85 -58l27 -24l29 -6q72 0 117 201q0 20 16 31.5t35 11.5z" />
    <glyph glyph-name="utilde" unicode="&#x169;" horiz-adv-x="799" 
d="M174 854q150 0 168 -139q-113 -162 -113 -307v-84l29 -140h29q45 0 96 68.5t103 196.5t108 350q0 28 27 28h57q20 0 35.5 -27.5t38.5 -84.5q-57 -167 -80 -271.5t-23 -146.5q15 -202 174 -223q8 -3 8 -21q0 -22 -9.5 -47t-20.5 -31l-68 -14q-194 0 -205 281
q-39 -33 -108 -118q-63 -77 -107 -108q-19 -8 -43 -8q-18 0 -33.5 4t-33.5 4q-46 0 -113 113v55q0 208 29 420q-29 96 -29 195zM727 1446q28 0 49 -22.5t21 -51.5q0 -15 -6 -24l-3 -15q-22 -109 -81.5 -182.5t-141.5 -95.5q-15 -2 -20 -2l-39 2q-25 0 -90 46t-84 46h-6
q-23 -12 -38.5 -37t-28 -49.5t-22.5 -43t-22 -18.5q-70 0 -70 76q0 71 30.5 114.5t131.5 100.5q18 10 43 10q11 0 68 -10q33 -8 85 -58l27 -24l29 -6q72 0 117 201q0 20 16 31.5t35 11.5z" />
    <glyph glyph-name="Umacron" unicode="&#x16a;" horiz-adv-x="1036" 
d="M698 360q-13 0 -91 -123l-34 -51q-15 -15 -23 -32t-18 -35q-77 -97 -112 -120.5t-90 -23.5q-83 0 -92 31q-16 16 -50 180.5t-34 219.5l20 221q0 53 6 83q12 58 14.5 90.5t2.5 88.5l-2 133q0 25 -11 68q-12 42 -12 57q0 38 20.5 79.5t40.5 41.5q60 0 97 -28.5t37 -78.5
l-5 -51l-11 -91q-22 -178 -32 -239l-18 -276l18 -221q0 -28 19 -69.5t33 -41.5q20 0 80 61.5t102 126.5l6 15q36 67 80.5 162t54.5 131q0 15 7 45q34 156 34 209q0 26 -2 34l-2 39v56q0 57 20.5 81.5t84.5 24.5q32 0 51.5 -21t19.5 -81l-2 -76q-12 -94 -27 -171
q-32 -164 -32 -256v-169q0 -49 20 -116t45 -103q12 0 57 19l15 3q9 0 31 -27t22 -40q-29 -86 -67.5 -133t-79.5 -47q-58 0 -82.5 21.5t-42 81.5t-36.5 177q-17 102 -30 141zM405 1350q-39 0 -76 24t-37 46q0 27 12 43t42 26l30 11q58 -7 145 -7h111q17 0 37 7.5t37 7.5
q54 0 123 -15q20 -27 20 -61q0 -27 -20 -33q-49 -6 -113.5 -14.5t-127 -16t-112.5 -13t-71 -5.5z" />
    <glyph glyph-name="umacron" unicode="&#x16b;" horiz-adv-x="799" 
d="M174 854q150 0 168 -139q-113 -162 -113 -307v-84l29 -140h29q45 0 96 68.5t103 196.5t108 350q0 28 27 28h57q20 0 35.5 -27.5t38.5 -84.5q-57 -167 -80 -271.5t-23 -146.5q15 -202 174 -223q8 -3 8 -21q0 -22 -9.5 -47t-20.5 -31l-68 -14q-194 0 -205 281
q-39 -33 -108 -118q-63 -77 -107 -108q-19 -8 -43 -8q-18 0 -33.5 4t-33.5 4q-46 0 -113 113v55q0 208 29 420q-29 96 -29 195zM276 1069q-39 0 -76 24t-37 46q0 27 12 43t42 26l30 11q58 -7 145 -7h111q17 0 37 7.5t37 7.5q54 0 123 -15q20 -27 20 -61q0 -27 -20 -33
q-49 -6 -113.5 -14.5t-127 -16t-112.5 -13t-71 -5.5z" />
    <glyph glyph-name="Ubreve" unicode="&#x16c;" horiz-adv-x="1036" 
d="M698 360q-13 0 -91 -123l-34 -51q-15 -15 -23 -32t-18 -35q-77 -97 -112 -120.5t-90 -23.5q-83 0 -92 31q-16 16 -50 180.5t-34 219.5l20 221q0 53 6 83q12 58 14.5 90.5t2.5 88.5l-2 133q0 25 -11 68q-12 42 -12 57q0 38 20.5 79.5t40.5 41.5q60 0 97 -28.5t37 -78.5
l-5 -51l-11 -91q-22 -178 -32 -239l-18 -276l18 -221q0 -28 19 -69.5t33 -41.5q20 0 80 61.5t102 126.5l6 15q36 67 80.5 162t54.5 131q0 15 7 45q34 156 34 209q0 26 -2 34l-2 39v56q0 57 20.5 81.5t84.5 24.5q32 0 51.5 -21t19.5 -81l-2 -76q-12 -94 -27 -171
q-32 -164 -32 -256v-169q0 -49 20 -116t45 -103q12 0 57 19l15 3q9 0 31 -27t22 -40q-29 -86 -67.5 -133t-79.5 -47q-58 0 -82.5 21.5t-42 81.5t-36.5 177q-17 102 -30 141zM309 1616l4 35q0 6 9 19t16.5 17.5t30.5 12.5l20 2l10 -1l7 -1l47 -53l18 -33q0 -6 8 -51t11 -50
l36 -49q12 -18 19 -18l7 -1l11 -1q8 0 11 1q7 0 23.5 7t21.5 12q75 45 84 60q9 6 20 32v19l16 33l58 59l37 16l20 2l12 -1l7 -1q7 0 18 -16l1 -9l1 -16l-1 -15l-1 -9q-1 -2 -5.5 -13.5t-10 -25t-11.5 -26.5t-10 -19q-51 -92 -57 -96q-2 -5 -16.5 -19.5t-20.5 -15.5
q-50 -33 -57 -35l-74 -33q-11 -6 -30.5 -11t-24.5 -5l-16 -1q-18 -1 -21 -1l-37 2l-74 33l-20 16q-10 14 -20 34t-17 36q-6 11 -16.5 36.5t-27 71.5t-16.5 70z" />
    <glyph glyph-name="ubreve" unicode="&#x16d;" horiz-adv-x="799" 
d="M174 854q150 0 168 -139q-113 -162 -113 -307v-84l29 -140h29q45 0 96 68.5t103 196.5t108 350q0 28 27 28h57q20 0 35.5 -27.5t38.5 -84.5q-57 -167 -80 -271.5t-23 -146.5q15 -202 174 -223q8 -3 8 -21q0 -22 -9.5 -47t-20.5 -31l-68 -14q-194 0 -205 281
q-39 -33 -108 -118q-63 -77 -107 -108q-19 -8 -43 -8q-18 0 -33.5 4t-33.5 4q-46 0 -113 113v55q0 208 29 420q-29 96 -29 195zM184 1315l4 35q0 6 9 19t16.5 17.5t30.5 12.5l20 2l10 -1l7 -1l47 -53l18 -33q0 -6 8 -51t11 -50l36 -49q12 -18 19 -18l7 -1l11 -1q8 0 11 1
q7 0 23.5 7t21.5 12q75 45 84 60q9 6 20 32v19l16 33l58 59l37 16l20 2l12 -1l7 -1q7 0 18 -16l1 -9l1 -16l-1 -15l-1 -9q-1 -2 -5.5 -13.5t-10 -25t-11.5 -26.5t-10 -19q-51 -92 -57 -96q-2 -5 -16.5 -19.5t-20.5 -15.5q-50 -33 -57 -35l-74 -33q-11 -6 -30.5 -11t-24.5 -5
l-16 -1q-18 -1 -21 -1l-37 2l-74 33l-20 16q-10 14 -20 34t-17 36q-6 11 -16.5 36.5t-27 71.5t-16.5 70z" />
    <glyph glyph-name="Uring" unicode="&#x16e;" horiz-adv-x="1036" 
d="M698 360q-13 0 -91 -123l-34 -51q-15 -15 -23 -32t-18 -35q-77 -97 -112 -120.5t-90 -23.5q-83 0 -92 31q-16 16 -50 180.5t-34 219.5l20 221q0 53 6 83q12 58 14.5 90.5t2.5 88.5l-2 133q0 25 -11 68q-12 42 -12 57q0 38 20.5 79.5t40.5 41.5q60 0 97 -28.5t37 -78.5
l-5 -51l-11 -91q-22 -178 -32 -239l-18 -276l18 -221q0 -28 19 -69.5t33 -41.5q20 0 80 61.5t102 126.5l6 15q36 67 80.5 162t54.5 131q0 15 7 45q34 156 34 209q0 26 -2 34l-2 39v56q0 57 20.5 81.5t84.5 24.5q32 0 51.5 -21t19.5 -81l-2 -76q-12 -94 -27 -171
q-32 -164 -32 -256v-169q0 -49 20 -116t45 -103q12 0 57 19l15 3q9 0 31 -27t22 -40q-29 -86 -67.5 -133t-79.5 -47q-58 0 -82.5 21.5t-42 81.5t-36.5 177q-17 102 -30 141zM676 1800q224 -52 224 -112v-29q0 -125 -92 -202.5t-300 -131.5q-145 0 -168 84q57 179 99.5 251.5
t97.5 106t139 33.5zM508 1493v-57q29 0 93.5 31t158.5 108v29q0 55 -55 55h-84q-113 -83 -113 -146v-20z" />
    <glyph glyph-name="uring" unicode="&#x16f;" horiz-adv-x="799" 
d="M174 854q150 0 168 -139q-113 -162 -113 -307v-84l29 -140h29q45 0 96 68.5t103 196.5t108 350q0 28 27 28h57q20 0 35.5 -27.5t38.5 -84.5q-57 -167 -80 -271.5t-23 -146.5q15 -202 174 -223q8 -3 8 -21q0 -22 -9.5 -47t-20.5 -31l-68 -14q-194 0 -205 281
q-39 -33 -108 -118q-63 -77 -107 -108q-19 -8 -43 -8q-18 0 -33.5 4t-33.5 4q-46 0 -113 113v55q0 208 29 420q-29 96 -29 195zM516 1417q224 -52 224 -112v-29q0 -125 -92 -202.5t-300 -131.5q-145 0 -168 84q57 179 99.5 251.5t97.5 106t139 33.5zM348 1110v-57
q29 0 93.5 31t158.5 108v29q0 55 -55 55h-84q-113 -83 -113 -146v-20z" />
    <glyph glyph-name="Uhungarumlaut" unicode="&#x170;" horiz-adv-x="1036" 
d="M698 360q-13 0 -91 -123l-34 -51q-15 -15 -23 -32t-18 -35q-77 -97 -112 -120.5t-90 -23.5q-83 0 -92 31q-16 16 -50 180.5t-34 219.5l20 221q0 53 6 83q12 58 14.5 90.5t2.5 88.5l-2 133q0 25 -11 68q-12 42 -12 57q0 38 20.5 79.5t40.5 41.5q60 0 97 -28.5t37 -78.5
l-5 -51l-11 -91q-22 -178 -32 -239l-18 -276l18 -221q0 -28 19 -69.5t33 -41.5q20 0 80 61.5t102 126.5l6 15q36 67 80.5 162t54.5 131q0 15 7 45q34 156 34 209q0 26 -2 34l-2 39v56q0 57 20.5 81.5t84.5 24.5q32 0 51.5 -21t19.5 -81l-2 -76q-12 -94 -27 -171
q-32 -164 -32 -256v-169q0 -49 20 -116t45 -103q12 0 57 19l15 3q9 0 31 -27t22 -40q-29 -86 -67.5 -133t-79.5 -47q-58 0 -82.5 21.5t-42 81.5t-36.5 177q-17 102 -30 141zM645 1724q19 0 36.5 -13.5t17.5 -39.5q0 -18 -15 -33q0 -4 -111 -117q-119 -120 -169 -202h-8
q-22 0 -36 13.5t-14 39.5q0 149 252 338q26 14 47 14zM1073 1710q16 -4 34 -28t18 -40q0 -28 -23 -43q-74 -8 -174.5 -81t-208.5 -220q-19 -2 -24 -2q-35 0 -53.5 16t-18.5 44q0 10 4 20q231 334 446 334z" />
    <glyph glyph-name="uhungarumlaut" unicode="&#x171;" horiz-adv-x="799" 
d="M174 854q150 0 168 -139q-113 -162 -113 -307v-84l29 -140h29q45 0 96 68.5t103 196.5t108 350q0 28 27 28h57q20 0 35.5 -27.5t38.5 -84.5q-57 -167 -80 -271.5t-23 -146.5q15 -202 174 -223q8 -3 8 -21q0 -22 -9.5 -47t-20.5 -31l-68 -14q-194 0 -205 281
q-39 -33 -108 -118q-63 -77 -107 -108q-19 -8 -43 -8q-18 0 -33.5 4t-33.5 4q-46 0 -113 113v55q0 208 29 420q-29 96 -29 195zM495 1382q19 0 36.5 -13.5t17.5 -39.5q0 -18 -15 -33q0 -4 -111 -117q-119 -120 -169 -202h-8q-22 0 -36 13.5t-14 39.5q0 149 252 338
q26 14 47 14zM923 1368q16 -4 34 -28t18 -40q0 -28 -23 -43q-74 -8 -174.5 -81t-208.5 -220q-19 -2 -24 -2q-35 0 -53.5 16t-18.5 44q0 10 4 20q231 334 446 334z" />
    <glyph glyph-name="Uogonek" unicode="&#x172;" horiz-adv-x="1036" 
d="M698 360q-13 0 -91 -123l-34 -51q-15 -15 -23 -32t-18 -35q-77 -97 -112 -120.5t-90 -23.5q-83 0 -92 31q-16 16 -50 180.5t-34 219.5l20 221q0 53 6 83q12 58 14.5 90.5t2.5 88.5l-2 133q0 25 -11 68q-12 42 -12 57q0 38 20.5 79.5t40.5 41.5q60 0 97 -28.5t37 -78.5
l-5 -51l-11 -91q-22 -178 -32 -239l-18 -276l18 -221q0 -28 19 -69.5t33 -41.5q20 0 80 61.5t102 126.5l6 15q36 67 80.5 162t54.5 131q0 15 7 45q34 156 34 209q0 26 -2 34l-2 39v56q0 57 20.5 81.5t84.5 24.5q32 0 51.5 -21t19.5 -81l-2 -76q-12 -94 -27 -171t-24 -151
t-10 -190q0 -103 9 -148t25.5 -88.5t32.5 -66.5q12 0 57 19l15 3q9 0 31 -27t22 -40q-5 -32 -24 -58t-113 -112q-68 -72 -96.5 -125.5t-28.5 -79.5v-51h55l195 28l29 -57q0 -71 -224 -110h-139q-62 0 -84 139q0 58 88 221l88 80q-26 47 -54 225q-17 102 -30 141z" />
    <glyph glyph-name="uogonek" unicode="&#x173;" horiz-adv-x="799" 
d="M621 -4q-87 61 -93 246q-39 -33 -108 -118q-63 -77 -107 -108q-19 -8 -43 -8q-18 0 -33.5 4t-33.5 4q-46 0 -113 113v55q0 208 29 420q-29 96 -29 195l84 55q150 0 168 -139q-113 -162 -113 -307v-84l29 -140h29q45 0 96 68.5t103 196.5t108 350q0 28 27 28h57
q20 0 35.5 -27.5t38.5 -84.5q-57 -167 -80 -271.5t-23 -146.5q15 -202 174 -223q8 -3 8 -21q0 -22 -9.5 -47t-20.5 -31l-68 -14l-16 2q-78 -56 -118 -110.5t-40 -96.5l10 -55l62 -14l170 34l28 -57q0 -71 -223 -110l-131 8q-62 0 -84 139q0 35 19.5 84t52.5 109l96 71z" />
    <glyph glyph-name="Wcircumflex" unicode="&#x174;" horiz-adv-x="1292" 
d="M1511 1565q62 -17 62 -70q0 -19 -6 -43q-482 -583 -559 -1407q-15 -10 -29.5 -28.5t-33 -37t-43.5 -32t-60 -13.5q-150 0 -168 930v84q-152 -285 -252 -762q16 -34 16 -82q-22 -46 -77.5 -79t-106.5 -33q-55 0 -55 53q0 35 7.5 51t18.5 33q-23 70 -37.5 171t-27 220
t-26 248.5t-34.5 257.5q-12 9 -23 33t-11 39q14 45 40.5 75.5t63.5 30.5q47 0 74.5 -32.5t27.5 -81.5l-3 -49q-15 -128 -15 -148q0 -120 27 -363t41 -243q4 0 16 39q156 618 362 903h11q47 0 63.5 -23.5t16.5 -70.5q0 -26 -4.5 -52t-4.5 -55q0 -44 18 -159l3 -48
q0 -34 -19 -67q40 -280 60 -500q3 -70 18 -70t33 58q252 1075 616 1323zM706 1804q39 0 91.5 -68.5t111.5 -222.5q14 0 37.5 -16.5t39 -42t15.5 -55.5q0 -21 -21 -37t-52 -16t-107 102q-80 108 -104 119q-77 -113 -118.5 -163t-68.5 -50q-44 0 -61 15.5t-17 43.5q0 32 13 45
q96 101 135 170t53 144q16 16 53 32z" />
    <glyph glyph-name="wcircumflex" unicode="&#x175;" horiz-adv-x="934" 
d="M1026 1225l55 -84v-84q-101 0 -333 -1008l-58 -26h-26q-65 9 -197 417h-29q-15 -224 -53 -227l8 -57l-8 -86q-27 -103 -86 -103h-1q-66 0 -278 754q40 110 84 110h84q16 -199 101 -542l10 41q95 446 139 446h103q24 -210 137 -506l12 31q197 860 281 924h55zM454 1421
q39 0 91.5 -68.5t111.5 -222.5q14 0 37.5 -16.5t39 -42t15.5 -55.5q0 -21 -21 -37t-52 -16t-107 102q-80 108 -104 119q-77 -113 -118.5 -163t-68.5 -50q-44 0 -61 15.5t-17 43.5q0 32 13 45q96 101 135 170t53 144q16 16 53 32z" />
    <glyph glyph-name="Ycircumflex" unicode="&#x176;" horiz-adv-x="942" 
d="M301 -307q0 28 51 69h6q13 0 55 -12l44 -12h65q9 0 61 -23q66 -29 111 -45l23 45l4 123v31q0 131 -23 338.5t-53 345.5l-101 -101q-60 -60 -106.5 -84t-128.5 -34q-30 3 -42.5 13t-21.5 22.5t-21.5 24.5t-41.5 18q-17 3 -26 32t-9 105v14l11 108q16 132 19 182t3 108
q0 45 -4 79t-4 60q0 53 29 82l86 14q8 0 21.5 -15.5t13.5 -27.5v-10q0 -73 -20 -200q-21 -128 -21 -179l4 -95q4 -112 12 -126q8 -17 25 -31t28 -14q30 0 69 19.5t91.5 69t91.5 115.5q47 64 47 205v228q0 68 5.5 92t19.5 40t43 29q36 0 56 -16.5t29 -44.5t9 -98l-2 -117
l-25 -207q0 -156 4.5 -245.5t20.5 -233.5q0 -21 7 -72q38 -277 38 -409l25 -220q0 -67 -31 -107t-84 -40q-21 0 -85 32q-125 62 -162.5 75.5t-63 21t-33.5 8.5q-49 0 -84 20t-35 50zM465 1804q39 0 91.5 -68.5t111.5 -222.5q14 0 37.5 -16.5t39 -42t15.5 -55.5
q0 -21 -21 -37t-52 -16t-107 102q-80 108 -104 119q-77 -113 -118.5 -163t-68.5 -50q-44 0 -61 15.5t-17 43.5q0 32 13 45q96 101 135 170t53 144q16 16 53 32z" />
    <glyph glyph-name="ycircumflex" unicode="&#x177;" horiz-adv-x="739" 
d="M588 877q55 -10 55 -54v-4l-16 -223q-4 -46 -4 -102q0 -119 7 -246l1 -41q0 -133 -8 -253q-9 -121 -9 -167v-336l-34 -176l-76 -20q-84 31 -84 167q82 119 82 392l-19 57l21 168v381l-29 -76q-13 -161 -194 -305l-29 -4l-29 4q-62 4 -95 177.5t-44 520.5q10 40 33 61
t47 21h43q57 -6 57 -53q-18 -111 -18 -260l6 -273l14 -38l41 38q28 73 55.5 144t51 145t42 154t29.5 172q54 29 103 29zM356 1421q39 0 91.5 -68.5t111.5 -222.5q14 0 37.5 -16.5t39 -42t15.5 -55.5q0 -21 -21 -37t-52 -16t-107 102q-80 108 -104 119q-77 -113 -118.5 -163
t-68.5 -50q-44 0 -61 15.5t-17 43.5q0 32 13 45q96 101 135 170t53 144q16 16 53 32z" />
    <glyph glyph-name="Ydieresis" unicode="&#x178;" horiz-adv-x="942" 
d="M301 -307q0 28 51 69h6q13 0 55 -12l44 -12h65q9 0 61 -23q66 -29 111 -45l23 45l4 123v31q0 131 -23 338.5t-53 345.5l-101 -101q-60 -60 -106.5 -84t-128.5 -34q-30 3 -42.5 13t-21.5 22.5t-21.5 24.5t-41.5 18q-17 3 -26 32t-9 105v14l11 108q16 132 19 182t3 108
q0 45 -4 79t-4 60q0 53 29 82l86 14q8 0 21.5 -15.5t13.5 -27.5v-10q0 -73 -20 -200q-21 -128 -21 -179l4 -95q4 -112 12 -126q8 -17 25 -31t28 -14q30 0 69 19.5t91.5 69t91.5 115.5q47 64 47 205v228q0 68 5.5 92t19.5 40t43 29q36 0 56 -16.5t29 -44.5t9 -98l-2 -117
l-25 -207q0 -156 4.5 -245.5t20.5 -233.5q0 -21 7 -72q38 -277 38 -409l25 -220q0 -67 -31 -107t-84 -40q-21 0 -85 32q-125 62 -162.5 75.5t-63 21t-33.5 8.5q-49 0 -84 20t-35 50zM657 1645h27q35 0 77 -80v-80q0 -80 -104 -80q-26 14 -44.5 23.5t-31.5 21.5l-4 115
q0 34 80 80zM284 1612h27q30 -5 58 -24.5t28 -37.5v-24q0 -50 -30.5 -89t-82.5 -53q-35 0 -76 76v76q0 19 19.5 36.5t56.5 39.5z" />
    <glyph glyph-name="Zacute" unicode="&#x179;" horiz-adv-x="1108" 
d="M1034 1249q20 0 36.5 -9t16.5 -28q0 -80 -221 -372t-573 -678q-12 -15 -12 -23q0 -10 106 -10q52 0 244 20q191 19 305 19q107 0 156 -39q16 -16 16 -53q0 -43 -18 -76q-56 2 -122 13t-145 16q-326 -5 -766 -78q-19 0 -38 27.5t-19 56.5q4 57 55 101.5t152 84.5l77 109
q134 190 228 288l72 77q106 111 174.5 212.5t68.5 124.5q0 12 -18 12h-29q-29 0 -219.5 -28t-425.5 -70q-23 0 -39 26t-16 62q0 42 16 72.5t39 30.5q31 0 60.5 -11t52.5 -16l101 12q273 29 406 54t200 54q45 19 79 19zM778 1692l27 -19q10 -8 10 -29q0 -27 -18 -45
q-38 0 -96 -77.5t-113 -198.5q0 -55 -111 -55l-43 77v29q118 153 203.5 235.5t140.5 82.5z" />
    <glyph glyph-name="zacute" unicode="&#x17a;" horiz-adv-x="745" 
d="M655 868q47 0 47 -86q-101 -233 -395 -616q254 59 336 59q92 -42 92 -86q0 -35 -5 -58t-28 -52q-31 0 -153 45q-142 0 -479 -92q-24 0 -42 33t-18 71q142 89 254.5 221.5t237.5 364.5q-193 -64 -340 -81l-76 -11l-47 79v29l47 76l115 -29q223 50 300.5 74.5t153.5 58.5z
M591 1391l27 -19q10 -8 10 -29q0 -27 -18 -45q-38 0 -96 -77.5t-113 -198.5q0 -55 -111 -55l-43 77v29q118 153 203.5 235.5t140.5 82.5z" />
    <glyph glyph-name="Zdotaccent" unicode="&#x17b;" horiz-adv-x="1108" 
d="M1034 1249q20 0 36.5 -9t16.5 -28q0 -80 -221 -372t-573 -678q-12 -15 -12 -23q0 -10 106 -10q52 0 244 20q191 19 305 19q107 0 156 -39q16 -16 16 -53q0 -43 -18 -76q-56 2 -122 13t-145 16q-326 -5 -766 -78q-19 0 -38 27.5t-19 56.5q4 57 55 101.5t152 84.5l77 109
q134 190 228 288l72 77q106 111 174.5 212.5t68.5 124.5q0 12 -18 12h-29q-29 0 -219.5 -28t-425.5 -70q-23 0 -39 26t-16 62q0 42 16 72.5t39 30.5q31 0 60.5 -11t52.5 -16l101 12q273 29 406 54t200 54q45 19 79 19zM608 1557l56 -84v-55q0 -41 -84 -84h-29
q-45 0 -111 112q28 111 168 111z" />
    <glyph glyph-name="zdotaccent" unicode="&#x17c;" horiz-adv-x="745" 
d="M655 868q47 0 47 -86q-101 -233 -395 -616q254 59 336 59q92 -42 92 -86q0 -35 -5 -58t-28 -52q-31 0 -153 45q-142 0 -479 -92q-24 0 -42 33t-18 71q142 89 254.5 221.5t237.5 364.5q-193 -64 -340 -81l-76 -11l-47 79v29l47 76l115 -29q223 50 300.5 74.5t153.5 58.5z
M411 1317l56 -84v-55q0 -41 -84 -84h-29q-45 0 -111 112q28 111 168 111z" />
    <glyph glyph-name="Zcaron" unicode="&#x17d;" horiz-adv-x="1108" 
d="M1034 1249q20 0 36.5 -9t16.5 -28q0 -80 -221 -372t-573 -678q-12 -15 -12 -23q0 -10 106 -10q52 0 244 20q191 19 305 19q107 0 156 -39q16 -16 16 -53q0 -43 -18 -76q-56 2 -122 13t-145 16q-326 -5 -766 -78q-19 0 -38 27.5t-19 56.5q4 57 55 101.5t152 84.5l77 109
q134 190 228 288l72 77q106 111 174.5 212.5t68.5 124.5q0 12 -18 12h-29q-29 0 -219.5 -28t-425.5 -70q-23 0 -39 26t-16 62q0 42 16 72.5t39 30.5q31 0 60.5 -11t52.5 -16l101 12q273 29 406 54t200 54q45 19 79 19zM834 1698q18 0 35.5 -12t17.5 -29q0 -23 -6 -35
q-115 -170 -165 -231t-89 -90t-72 -29q-13 0 -28 6l-84 89q-77 77 -109.5 126.5t-32.5 91.5q0 45 19.5 69.5t42.5 24.5q14 0 25.5 -5t25.5 -5l25 -42q66 -121 93 -156t44 -35q14 0 33 12q50 20 202 237q4 13 23 13z" />
    <glyph glyph-name="zcaron" unicode="&#x17e;" horiz-adv-x="745" 
d="M655 868q47 0 47 -86q-101 -233 -395 -616q254 59 336 59q92 -42 92 -86q0 -35 -5 -58t-28 -52q-31 0 -153 45q-142 0 -479 -92q-24 0 -42 33t-18 71q142 89 254.5 221.5t237.5 364.5q-193 -64 -340 -81l-76 -11l-47 79v29l47 76l115 -29q223 50 300.5 74.5t153.5 58.5z
M637 1397q18 0 35.5 -12t17.5 -29q0 -23 -6 -35q-115 -170 -165 -231t-89 -90t-72 -29q-13 0 -28 6l-84 89q-77 77 -109.5 126.5t-32.5 91.5q0 45 19.5 69.5t42.5 24.5q14 0 25.5 -5t25.5 -5l25 -42q66 -121 93 -156t44 -35q14 0 33 12q50 20 202 237q4 13 23 13z" />
    <glyph glyph-name="florin" unicode="&#x192;" horiz-adv-x="805" 
d="M731 1423q37 -3 53.5 -14t16.5 -33q0 -21 11 -71q11 -49 11 -68q0 -30 -14 -48t-33 -18q-7 0 -22 9l-12 17q-16 25 -27.5 36t-30.5 18q-77 -20 -131.5 -146.5t-83.5 -346.5l-2 -31q0 -11 2 -16q4 -13 41 -13l41 3q115 12 133 12q35 0 70 -72q0 -11 -5.5 -22.5t-5.5 -22.5
q0 -8 -77 -18q-127 -18 -173.5 -36t-46.5 -42q-121 -803 -235 -803q0 -18 -56.5 -59t-109.5 -60q-69 24 -108 63.5t-39 86.5l2 14q6 47 51 47q35 -5 69.5 -13.5t71.5 -8.5q113 0 213 757q-8 11 -31 11q-24 0 -56.5 -6.5t-57.5 -6.5h-11q-15 0 -38 18t-41 56q2 54 13.5 73
t33.5 19q48 0 84 -22q62 3 91.5 43.5t42.5 144.5l19 143q149 426 377 426z" />
    <glyph glyph-name="Scommaaccent" unicode="&#x218;" horiz-adv-x="1180" 
d="M993 1262q45 0 64.5 -25.5t19.5 -85.5q-10 -53 -89.5 -89.5t-301.5 -78.5l-160 -105q-112 -71 -158 -109t-46 -58q2 -10 41.5 -27t187.5 -68l121 -47q202 -78 310 -131t134 -96q4 -8 9 -24.5t5 -22.5q0 -16 -8 -29q-148 -289 -659 -289q-215 0 -341.5 29.5t-137.5 81.5
l-4 30v27q9 58 63 58q15 0 20 -2l70 -39q131 -74 293 -74h33q229 0 342.5 50t152.5 171q-98 58 -195 98.5t-191 74.5t-183.5 66t-173.5 73q-57 66 -57 129q0 49 28 65q105 51 210 113.5t208 124t202 117t191 92.5zM543 -109q65 0 105 -33.5t40 -107.5l-4 -29q-4 -15 -4 -32
q0 -66 -47.5 -118t-138.5 -103q-29 -13 -50 -13t-38 18t-17 38q0 26 12 38q16 5 29 6t27 7q44 28 63 58.5t23 84.5q-7 8 -25 8q-46 0 -67 22.5t-21 53.5q22 67 78 96z" />
    <glyph glyph-name="scommaaccent" unicode="&#x219;" horiz-adv-x="780" 
d="M584 891q108 -44 108 -82v-55q0 -80 -301 -111q-108 -77 -108 -108q438 -105 438 -330q-185 -219 -412 -219h-110q-201 0 -219 82v82q9 55 55 55h55q12 -111 82 -111h82q301 43 301 111v55q0 70 -436 193l-29 55v53q0 23 494 330zM336 -109q65 0 105 -33.5t40 -107.5
l-4 -29q-4 -15 -4 -32q0 -66 -47.5 -118t-138.5 -103q-29 -13 -50 -13t-38 18t-17 38q0 26 12 38q16 5 29 6t27 7q44 28 63 58.5t23 84.5q-7 8 -25 8q-46 0 -67 22.5t-21 53.5q22 67 78 96z" />
    <glyph glyph-name="uni021A" unicode="&#x21a;" horiz-adv-x="1100" 
d="M1274 1343q29 -11 51 -13q41 -4 41 -36q0 -15 -8 -34q0 -31 -175.5 -65t-527.5 -58q-22 -128 -22 -163v-79q0 -210 11.5 -499t27.5 -478q0 -24 -28 -41.5t-62 -17.5q-68 0 -72 63q-2 96 -2 131q0 63 8 185q8 121 8 196q0 185 -32 461l2 149q0 37 -2 48q-400 -56 -560 -56
q-43 0 -63.5 20t-20.5 64q0 69 113 84q84 -27 84 -55q200 0 420 80l35 15q41 23 61 30.5t39 7.5q17 0 22.5 -16t10.5 -33l158 29q336 64 483 81zM582 -230q65 0 105 -33.5t40 -107.5l-4 -29q-4 -15 -4 -32q0 -66 -47.5 -118t-138.5 -103q-29 -13 -50 -13t-38 18t-17 38
q0 26 12 38q16 5 29 6t27 7q44 28 63 58.5t23 84.5q-7 8 -25 8q-46 0 -67 22.5t-21 53.5q22 67 78 96z" />
    <glyph glyph-name="uni021B" unicode="&#x21b;" horiz-adv-x="725" 
d="M389 1266h27q38 0 76 -78q-53 -122 -103 -389h258q37 0 78 -78q-24 -78 -51 -78q-46 0 -156 51q-156 0 -156 -102q-25 -204 -38 -252q14 -45 14 -111l12 -98l39 -6q51 0 109.5 35.5t169.5 140.5q21 0 32 -12t11 -53q0 -73 -82.5 -139t-239.5 -128h-78q-102 38 -102 234
v51q0 135 33 401l-215 -12l-27 129q59 53 140 53h12q38 -26 81 -26h52q0 99 53 338q-27 44 -27 75zM363 -109q65 0 105 -33.5t40 -107.5l-4 -29q-4 -15 -4 -32q0 -66 -47.5 -118t-138.5 -103q-29 -13 -50 -13t-38 18t-17 38q0 26 12 38q16 5 29 6t27 7q44 28 63 58.5
t23 84.5q-7 8 -25 8q-46 0 -67 22.5t-21 53.5q22 67 78 96z" />
    <glyph glyph-name="uni0237" unicode="&#x237;" horiz-adv-x="362" 
d="M145 922q67 -23 78 -50l6 -61q0 -211 56 -1257q-50 -281 -250 -281q-252 117 -252 252h55q119 -113 223 -113q64 76 111 226q-71 1118 -166 1118v26q47 140 139 140z" />
    <glyph glyph-name="circumflex" unicode="&#x2c6;" horiz-adv-x="754" 
d="M356 1421q39 0 91.5 -68.5t111.5 -222.5q14 0 37.5 -16.5t39 -42t15.5 -55.5q0 -21 -21 -37t-52 -16t-107 102q-80 108 -104 119q-77 -113 -118.5 -163t-68.5 -50q-44 0 -61 15.5t-17 43.5q0 32 13 45q96 101 135 170t53 144q16 16 53 32z" />
    <glyph glyph-name="caron" unicode="&#x2c7;" horiz-adv-x="791" 
d="M635 1397q18 0 35.5 -12t17.5 -29q0 -23 -6 -35q-115 -170 -165 -231t-89 -90t-72 -29q-13 0 -28 6l-84 89q-77 77 -109.5 126.5t-32.5 91.5q0 45 19.5 69.5t42.5 24.5q14 0 25.5 -5t25.5 -5l25 -42q66 -121 93 -156t44 -35q14 0 33 12q50 20 202 237q4 13 23 13z" />
    <glyph glyph-name="uni02C9" unicode="&#x2c9;" horiz-adv-x="809" 
d="M240 1102q-45 0 -91.5 24t-46.5 50q0 24 9.5 38.5t24.5 22.5t33 13.5t36 11.5q84 -7 237 -7q20 0 44.5 8.5t45.5 8.5q53 0 150 -17q9 -12 17 -31.5t8 -33.5q0 -29 -25 -37q-100 -10 -255 -31q-142 -20 -187 -20z" />
    <glyph glyph-name="breve" unicode="&#x2d8;" horiz-adv-x="788" 
d="M102 1315l4 35q0 6 9 19t16.5 17.5t30.5 12.5l20 2l10 -1l7 -1l47 -53l18 -33q0 -6 8 -51t11 -50l36 -49q12 -18 19 -18l7 -1l11 -1q8 0 11 1q7 0 23.5 7t21.5 12q75 45 84 60q9 6 20 32v19l16 33l58 59l37 16l20 2l12 -1l7 -1q7 0 18 -16l1 -9l1 -16l-1 -15l-1 -9
q-1 -2 -5.5 -13.5t-10 -25t-11.5 -26.5t-10 -19q-51 -92 -57 -96q-2 -5 -16.5 -19.5t-20.5 -15.5q-50 -33 -57 -35l-74 -33q-11 -6 -30.5 -11t-24.5 -5l-16 -1q-18 -1 -21 -1l-37 2l-74 33l-20 16q-10 14 -20 34t-17 36q-6 11 -16.5 36.5t-27 71.5t-16.5 70z" />
    <glyph glyph-name="dotaccent" unicode="&#x2d9;" horiz-adv-x="428" 
d="M270 1317l56 -84v-55q0 -41 -84 -84h-29q-45 0 -111 112q28 111 168 111z" />
    <glyph glyph-name="ring" unicode="&#x2da;" horiz-adv-x="764" 
d="M438 1417q224 -52 224 -112v-29q0 -125 -92 -202.5t-300 -131.5q-145 0 -168 84q57 179 99.5 251.5t97.5 106t139 33.5zM270 1110v-57q29 0 93.5 31t158.5 108v29q0 55 -55 55h-84q-113 -83 -113 -146v-20z" />
    <glyph glyph-name="ogonek" unicode="&#x2db;" horiz-adv-x="678" 
d="M471 133h104q-139 -131 -222 -236.5t-83 -148.5v-55h56l194 28l29 -57q0 -71 -223 -110h-140q-62 0 -84 139q0 58 88 221l193 172z" />
    <glyph glyph-name="tilde" unicode="&#x2dc;" horiz-adv-x="856" 
d="M684 1446q28 0 49 -22.5t21 -51.5q0 -15 -6 -24l-3 -15q-22 -109 -81.5 -182.5t-141.5 -95.5q-15 -2 -20 -2l-39 2q-25 0 -90 46t-84 46h-6q-23 -12 -38.5 -37t-28 -49.5t-22.5 -43t-22 -18.5q-70 0 -70 76q0 71 30.5 114.5t131.5 100.5q18 10 43 10q11 0 68 -10
q33 -8 85 -58l27 -24l29 -6q72 0 117 201q0 20 16 31.5t35 11.5z" />
    <glyph glyph-name="hungarumlaut" unicode="&#x2dd;" horiz-adv-x="983" 
d="M401 1382q19 0 36.5 -13.5t17.5 -39.5q0 -18 -15 -33q0 -4 -111 -117q-119 -120 -169 -202h-8q-22 0 -36 13.5t-14 39.5q0 149 252 338q26 14 47 14zM829 1368q16 -4 34 -28t18 -40q0 -28 -23 -43q-74 -8 -174.5 -81t-208.5 -220q-19 -2 -24 -2q-35 0 -53.5 16t-18.5 44
q0 10 4 20q231 334 446 334z" />
    <glyph glyph-name="Delta" unicode="&#x394;" horiz-adv-x="1008" 
d="M696 1335q56 -9 56 -55l-27 -391q25 -336 81.5 -527.5t127.5 -191.5h29q12 6 18 6q25 0 25 -70l2 -28q0 -34 -33 -57t-111 -48q-62 0 -112 29q-94 -6 -269 -6q-177 0 -258 -11.5t-149 -37.5q-60 0 -85.5 19t-31.5 59q0 47 17.5 85.5t75.5 101t59 62.5q0 62 417 865
q0 99 20.5 143t63.5 47zM195 162v-33q45 0 100 -4t133 -4q142 0 297 20v29q-76 281 -141 719v8q0 23 -5.5 41t-11.5 18q-4 0 -10 -12q-182 -367 -272 -563t-90 -219z" />
    <glyph glyph-name="Omega" unicode="&#x3a9;" horiz-adv-x="1083" 
d="M1038 684q-86 -276 -234.5 -398t-389.5 -122q-72 0 -136 35t-110.5 102t-70 153.5t-23.5 157.5q0 40 8 72q196 573 338 573q26 36 65.5 53t79.5 17q76 0 117 -47q165 -190 260.5 -351t95.5 -245zM420 1126q-147 -229 -221 -495q25 -153 78 -237.5t139 -108.5l55 -17
q45 0 106 29.5t236 151.5q76 150 76 301q0 172 -342 354q-42 22 -127 22zM1047 100q20 -6 20 -37q0 -21 -8 -43.5t-19 -33.5l-161 2q-227 -17 -467 -69q-126 -27 -186.5 -35.5t-125.5 -8.5h-18q-23 0 -46.5 22.5t-23.5 47.5l13 27q18 44 41 58.5t63 14.5l34 -2
q92 -14 128 -14l194 17q229 24 359.5 38t202.5 16z" />
    <glyph glyph-name="Omega" unicode="&#x2126;" horiz-adv-x="1083" 
d="M1038 684q-86 -276 -234.5 -398t-389.5 -122q-72 0 -136 35t-110.5 102t-70 153.5t-23.5 157.5q0 40 8 72q196 573 338 573q26 36 65.5 53t79.5 17q76 0 117 -47q165 -190 260.5 -351t95.5 -245zM420 1126q-147 -229 -221 -495q25 -153 78 -237.5t139 -108.5l55 -17
q45 0 106 29.5t236 151.5q76 150 76 301q0 172 -342 354q-42 22 -127 22zM1047 100q20 -6 20 -37q0 -21 -8 -43.5t-19 -33.5l-161 2q-227 -17 -467 -69q-126 -27 -186.5 -35.5t-125.5 -8.5h-18q-23 0 -46.5 22.5t-23.5 47.5l13 27q18 44 41 58.5t63 14.5l34 -2
q92 -14 128 -14l194 17q229 24 359.5 38t202.5 16z" />
    <glyph glyph-name="mu" unicode="&#x3bc;" horiz-adv-x="803" 
d="M240 852q43 -41 43 -92q0 -29 -7 -57q-16 -66 -16 -132l8 -157q0 -72 9 -126t24.5 -83t30.5 -29q89 92 137.5 215.5t48.5 247.5q-16 112 -16 168q24 30 69 60l27 20q43 0 75 -25.5t32 -58.5q-18 -115 -48 -359q0 -154 46.5 -230.5t158.5 -76.5v-55q0 -41 -84 -84h-28
q-90 0 -146.5 82.5t-56.5 218.5q-67 -143 -133 -236.5t-90 -93.5q-35 0 -72 78q-22 45 -33 61.5t-20 16.5l-9 -424q0 -129 5 -174l7 -32q31 -103 31 -152q0 -67 -40 -107h-21q-42 0 -58.5 12.5t-27 47.5t-33.5 231v12l6 84q0 22 -6 43q58 406 58 862q0 133 -9 234
q-2 47 -2 61q53 29 140 29z" />
    <glyph glyph-name="pi" unicode="&#x3c0;" horiz-adv-x="961" 
d="M147 94q0 92 13 142l5 25l7 26l24 140q17 91 17 140q-6 73 -6 78q-32 0 -50 -9t-30 -9q-45 0 -81 23.5t-46 60.5q0 55 20.5 89t49.5 34l43 -3q132 -18 215 -18q94 0 159 14l129 23q5 0 36 -5t69 -5q33 0 63 6q126 14 170 14v-1l2 -1q19 -12 22 -22.5t3 -28.5
q0 -40 -16 -61t-50 -26l-45 -9l-36 2q-77 0 -113 -25q-31 -17 -41 -58.5t-10 -101.5v-73q0 -32 4 -59.5t6 -53.5l-4 -39q9 -43 31 -57q14 -17 32 -17q25 0 43.5 9.5t45.5 33.5l22 15q12 0 36.5 -21t24.5 -35q0 -7 -21 -41t-61 -72t-75.5 -53.5t-75.5 -15.5l-62 4
q-45 15 -71 144q-6 29 -13 47q0 68 4.5 142t4.5 140q0 91 -8.5 120.5t-24.5 29.5h-59q-39 0 -53.5 -10t-25.5 -39t-27 -91.5t-22 -118t-6 -116.5v-82q0 -24 13 -53q12 -30 12 -39q0 -6 -9 -37.5t-12 -36.5q-26 -34 -57.5 -60t-48.5 -26q-12 0 -37.5 17t-25.5 26z" />
    <glyph glyph-name="endash" unicode="&#x2013;" horiz-adv-x="977" 
d="M63 451q0 23 16.5 46.5t53.5 34.5q54 -6 162 -6h102q64 0 189 27q41 0 117 17q76 16 135 16q30 0 52.5 -20.5t22.5 -53.5q0 -78 -88 -78q-39 21 -137 21h-14q-41 -10 -92.5 -16t-108.5 -13t-116 -17t-115 -28q-13 0 -33 -11q-20 -12 -33 -12q-11 0 -15 1l-9 1
q-51 34 -70 52.5t-19 38.5z" />
    <glyph glyph-name="emdash" unicode="&#x2014;" horiz-adv-x="1444" 
d="M63 473q0 33 15 62.5t35 29.5l82 -4q102 0 200.5 17t194.5 34q28 5 58 6t60 2.5t60 6t57 16.5l164 -14l160 14h188q22 0 32.5 -19t10.5 -42q0 -14 -16.5 -30.5t-26.5 -16.5l-133 -15l-143 6l-115 -5l-18 -1q-43 0 -251 -16t-292 -31q-28 -5 -60 -17.5t-66.5 -25.5
t-69 -23t-66.5 -10q-23 0 -41.5 21t-18.5 55z" />
    <glyph glyph-name="quoteleft" unicode="&#x2018;" horiz-adv-x="516" 
d="M356 963h-26q-197 0 -197 194v57q0 274 252 418h84v-84q-138 0 -197 -362v-29h168q56 0 56 -55v-29q0 -36 -140 -110z" />
    <glyph glyph-name="quoteright" unicode="&#x2019;" horiz-adv-x="516" 
d="M272 1653h27q197 0 197 -197v-55q0 -273 -252 -420h-82v86q136 0 194 363v26h-168q-55 0 -55 57v27q0 39 139 113z" />
    <glyph glyph-name="quotesinglbase" unicode="&#x201a;" horiz-adv-x="516" 
d="M202 385h27q197 0 197 -197v-55q0 -273 -252 -420h-82v86q136 0 194 363v26h-168q-55 0 -55 57v27q0 39 139 113z" />
    </font>
</defs>
</svg>
